{"glyphs":{"0":{"ha":1289,"x_min":68,"x_max":1219,"o":"m 318 778 q 367 743 350 771 q 376 683 383 715 l 303 369 q 269 321 296 338 q 210 311 242 304 q 162 346 179 318 q 151 404 144 374 l 225 719 q 260 768 233 751 q 318 778 288 785 m 763 833 l 763 333 q 738 274 763 299 q 681 250 714 250 l 624 250 l 624 79 q 601 24 624 47 q 546 1 578 1 q 491 24 514 1 q 468 79 468 47 l 468 250 l 364 250 l 364 79 q 341 24 364 47 q 286 1 318 1 q 233 24 256 1 q 210 79 210 47 l 210 250 l 154 250 q 95 274 119 250 q 71 333 71 299 l 71 833 l 763 833 m 404 696 q 389 761 413 731 q 325 803 365 792 q 249 795 283 813 q 206 742 214 778 l 124 392 q 138 326 115 357 q 203 286 161 294 q 280 292 244 275 q 324 344 315 310 l 404 696 m 1219 1163 q 1201 1069 1219 1113 q 1149 992 1182 1025 q 1073 941 1117 960 q 979 922 1029 922 l 972 922 q 988 915 981 919 q 1001 906 994 911 q 1026 852 1025 883 q 1006 797 1028 821 l 790 564 l 790 790 l 892 901 q 940 925 911 922 q 861 953 897 932 q 798 1006 825 975 q 756 1078 771 1038 q 740 1163 740 1118 q 759 1256 740 1213 q 810 1331 778 1299 q 886 1383 843 1364 q 979 1401 929 1401 q 1073 1383 1029 1401 q 1149 1331 1117 1364 q 1201 1256 1182 1299 q 1219 1163 1219 1213 m 764 1163 q 781 1078 764 1118 q 828 1010 799 1039 q 896 964 857 981 q 979 947 935 947 q 1063 964 1024 947 q 1132 1010 1103 981 q 1178 1078 1161 1039 q 1194 1163 1194 1118 q 1178 1246 1194 1207 q 1132 1314 1161 1285 q 1063 1360 1103 1343 q 979 1378 1024 1378 q 896 1360 935 1378 q 828 1314 857 1343 q 781 1246 799 1285 q 764 1163 764 1207 m 881 1301 q 979 1343 913 1343 q 1079 1301 1047 1343 q 1113 1167 1113 1260 q 1079 1032 1113 1074 q 979 989 1044 989 q 881 1032 915 989 q 849 1167 849 1075 q 881 1301 849 1258 m 931 1071 q 979 1042 946 1042 q 1029 1071 1014 1042 q 1041 1108 1036 1085 q 1046 1167 1046 1132 q 1041 1225 1046 1201 q 1029 1264 1036 1249 q 979 1292 1013 1292 q 931 1264 947 1292 q 915 1167 915 1233 q 931 1071 915 1099 m 590 1139 q 717 1025 669 1099 q 764 861 764 951 l 68 861 q 118 1026 68 953 q 249 1140 168 1100 l 194 1229 q 200 1247 189 1240 q 217 1243 210 1253 l 271 1151 q 417 1181 338 1181 q 565 1150 497 1181 l 622 1247 q 639 1251 628 1260 q 643 1233 651 1246 l 590 1139 m 467 999 q 487 1008 478 999 q 496 1028 496 1017 q 487 1049 496 1040 q 467 1057 478 1057 q 446 1049 454 1057 q 438 1028 438 1040 q 446 1008 438 1017 q 467 999 454 999 m 617 1024 q 637 1031 628 1024 q 646 1051 646 1039 q 637 1072 646 1063 q 617 1081 628 1081 q 596 1072 604 1081 q 588 1051 588 1063 q 596 1031 588 1039 q 617 1024 604 1024 z "},"1":{"ha":1290,"x_min":69,"x_max":1221,"o":"m 319 778 q 368 743 351 771 q 378 683 385 715 l 304 369 q 270 321 297 338 q 211 311 243 304 q 163 346 181 318 q 153 404 146 374 l 226 719 q 262 768 235 751 q 319 778 289 785 m 764 833 l 764 333 q 740 274 764 299 q 682 250 715 250 l 625 250 l 625 79 q 602 24 625 47 q 547 1 579 1 q 492 24 515 1 q 469 79 469 47 l 469 250 l 365 250 l 365 79 q 342 24 365 47 q 288 1 319 1 q 234 24 257 1 q 211 79 211 47 l 211 250 l 156 250 q 97 274 121 250 q 72 333 72 299 l 72 833 l 764 833 m 406 696 q 390 761 414 731 q 326 803 367 792 q 250 795 285 813 q 207 742 215 778 l 125 392 q 140 326 117 357 q 204 286 163 294 q 281 292 246 275 q 325 344 317 310 l 406 696 m 1221 1163 q 1202 1069 1221 1113 q 1151 992 1183 1025 q 1074 941 1118 960 q 981 922 1031 922 l 974 922 q 989 915 982 919 q 1003 906 996 911 q 1028 852 1026 883 q 1007 797 1029 821 l 792 564 l 792 790 l 893 901 q 942 925 913 922 q 863 953 899 932 q 799 1006 826 975 q 757 1078 772 1038 q 742 1163 742 1118 q 760 1256 742 1213 q 812 1331 779 1299 q 888 1383 844 1364 q 981 1401 931 1401 q 1074 1383 1031 1401 q 1151 1331 1118 1364 q 1202 1256 1183 1299 q 1221 1163 1221 1213 m 765 1163 q 783 1078 765 1118 q 829 1010 800 1039 q 897 964 858 981 q 981 947 936 947 q 1065 964 1025 947 q 1133 1010 1104 981 q 1179 1078 1163 1039 q 1196 1163 1196 1118 q 1179 1246 1196 1207 q 1133 1314 1163 1285 q 1065 1360 1104 1343 q 981 1378 1025 1378 q 897 1360 936 1378 q 829 1314 858 1343 q 783 1246 800 1285 q 765 1163 765 1207 m 965 996 l 965 1261 l 883 1186 l 861 1242 l 965 1339 l 1033 1339 l 1033 996 l 965 996 m 592 1139 q 718 1025 671 1099 q 765 861 765 951 l 69 861 q 119 1026 69 953 q 250 1140 169 1100 l 196 1229 q 201 1247 190 1240 q 218 1243 211 1253 l 272 1151 q 418 1181 339 1181 q 567 1150 499 1181 l 624 1247 q 640 1251 629 1260 q 644 1233 653 1246 l 592 1139 m 468 999 q 488 1008 479 999 q 497 1028 497 1017 q 488 1049 497 1040 q 468 1057 479 1057 q 447 1049 456 1057 q 439 1028 439 1040 q 447 1008 439 1017 q 468 999 456 999 m 618 1024 q 638 1031 629 1024 q 647 1051 647 1039 q 638 1072 647 1063 q 618 1081 629 1081 q 597 1072 606 1081 q 589 1051 589 1063 q 597 1031 589 1039 q 618 1024 606 1024 z "},"2":{"ha":1292,"x_min":69,"x_max":1222,"o":"m 321 776 q 369 742 353 769 q 378 683 385 715 l 306 368 q 270 320 297 338 q 211 310 243 303 q 164 344 181 317 q 154 404 147 372 l 226 718 q 262 767 235 750 q 321 776 289 785 m 765 833 l 765 332 q 740 273 765 297 q 682 249 715 249 l 626 249 l 626 78 q 603 23 626 46 q 549 0 581 0 q 493 23 517 0 q 469 78 469 46 l 469 249 l 367 249 l 367 78 q 343 23 367 46 q 288 0 319 0 q 234 23 257 0 q 211 78 211 46 l 211 249 l 156 249 q 97 273 121 249 q 72 332 72 297 l 72 833 l 765 833 m 406 696 q 391 761 414 731 q 326 803 368 792 q 250 795 285 813 q 207 742 215 778 l 125 392 q 140 326 117 357 q 204 285 163 294 q 282 292 247 274 q 325 344 317 310 l 406 696 m 1222 1163 q 1203 1069 1222 1113 q 1152 992 1185 1025 q 1076 941 1119 960 q 982 922 1032 922 l 975 922 q 990 915 982 919 q 1004 906 997 911 q 1029 852 1028 883 q 1008 797 1031 821 l 793 563 l 793 790 l 893 900 q 943 925 914 922 q 863 953 900 932 q 799 1006 826 975 q 757 1078 772 1038 q 742 1163 742 1118 q 760 1256 742 1213 q 812 1331 779 1299 q 888 1383 844 1364 q 982 1401 932 1401 q 1076 1383 1032 1401 q 1152 1331 1119 1364 q 1203 1256 1185 1299 q 1222 1163 1222 1213 m 767 1163 q 783 1078 767 1118 q 829 1010 800 1039 q 898 963 858 981 q 982 946 938 946 q 1066 963 1026 946 q 1135 1010 1106 981 q 1181 1078 1164 1039 q 1197 1163 1197 1118 q 1181 1246 1197 1207 q 1135 1314 1164 1285 q 1066 1360 1106 1343 q 982 1378 1026 1378 q 898 1360 938 1378 q 829 1314 858 1343 q 783 1246 800 1285 q 767 1163 767 1207 m 871 1047 q 969 1133 936 1097 q 1015 1189 1006 1167 q 1028 1238 1028 1211 q 971 1289 1028 1289 q 882 1257 933 1289 l 864 1308 q 919 1335 889 1326 q 950 1342 935 1339 q 981 1344 965 1344 q 1031 1338 1010 1344 q 1067 1318 1051 1331 q 1096 1243 1096 1290 q 1068 1157 1096 1200 q 1026 1110 1054 1136 q 958 1049 999 1083 l 958 1047 l 1097 1047 l 1097 996 l 871 996 l 871 1047 m 592 1139 q 719 1024 671 1097 q 767 861 767 951 l 69 861 q 119 1026 69 953 q 250 1140 169 1100 l 196 1229 q 201 1247 190 1240 q 218 1243 213 1253 l 272 1151 q 418 1181 339 1181 q 568 1150 499 1181 l 625 1247 q 642 1253 629 1258 q 646 1233 651 1246 l 592 1139 m 468 999 q 488 1008 479 999 q 497 1028 497 1017 q 488 1049 497 1040 q 468 1057 479 1057 q 447 1049 456 1057 q 439 1028 439 1040 q 447 1008 439 1017 q 468 999 456 999 m 618 1022 q 638 1031 629 1022 q 647 1051 647 1039 q 638 1072 647 1063 q 618 1081 629 1081 q 597 1072 606 1081 q 589 1051 589 1063 q 597 1031 589 1039 q 618 1022 606 1022 z "},"3":{"ha":1290,"x_min":69,"x_max":1221,"o":"m 319 778 q 368 743 351 771 q 378 683 385 715 l 304 369 q 270 321 297 338 q 211 311 243 304 q 163 346 181 318 q 153 404 146 374 l 226 719 q 262 768 235 751 q 319 778 289 785 m 764 833 l 764 333 q 740 274 764 299 q 682 250 715 250 l 625 250 l 625 79 q 602 24 625 47 q 547 1 579 1 q 492 24 515 1 q 469 79 469 47 l 469 250 l 365 250 l 365 79 q 342 24 365 47 q 288 1 319 1 q 234 24 257 1 q 211 79 211 47 l 211 250 l 156 250 q 97 274 121 250 q 72 333 72 299 l 72 833 l 764 833 m 406 696 q 390 761 414 731 q 326 803 367 792 q 250 795 285 813 q 207 742 215 778 l 125 392 q 140 326 117 357 q 204 286 163 294 q 281 292 246 275 q 325 344 317 310 l 406 696 m 1221 1163 q 1202 1069 1221 1113 q 1151 992 1183 1025 q 1074 941 1118 960 q 981 922 1031 922 l 974 922 q 989 915 982 919 q 1003 906 996 911 q 1028 852 1026 883 q 1007 797 1029 821 l 792 564 l 792 790 l 893 901 q 942 925 913 922 q 863 953 899 932 q 799 1006 826 975 q 757 1078 772 1038 q 742 1163 742 1118 q 760 1256 742 1213 q 812 1331 779 1299 q 888 1383 844 1364 q 981 1401 931 1401 q 1074 1383 1031 1401 q 1151 1331 1118 1364 q 1202 1256 1183 1299 q 1221 1163 1221 1213 m 765 1163 q 783 1078 765 1118 q 829 1010 800 1039 q 897 964 858 981 q 981 947 936 947 q 1065 964 1025 947 q 1133 1010 1104 981 q 1179 1078 1163 1039 q 1196 1163 1196 1118 q 1179 1246 1196 1207 q 1133 1314 1163 1285 q 1065 1360 1104 1343 q 981 1378 1025 1378 q 897 1360 936 1378 q 829 1314 858 1343 q 783 1246 800 1285 q 765 1163 765 1207 m 868 1332 l 1089 1332 l 1089 1278 l 992 1190 l 992 1189 l 1001 1189 q 1068 1165 1046 1189 q 1094 1096 1094 1139 q 1061 1013 1094 1042 q 965 982 1026 982 q 867 1008 911 982 l 883 1060 q 964 1035 926 1035 q 992 1039 979 1035 q 1011 1050 1004 1043 q 1028 1094 1028 1065 q 1010 1133 1028 1121 q 943 1143 990 1143 l 914 1143 l 914 1190 l 1008 1276 l 1008 1278 l 868 1278 l 868 1332 m 592 1139 q 718 1025 671 1099 q 765 861 765 951 l 69 861 q 119 1026 69 953 q 250 1140 169 1100 l 196 1229 q 201 1247 190 1240 q 218 1243 211 1253 l 272 1151 q 418 1181 339 1181 q 567 1150 499 1181 l 624 1247 q 640 1251 629 1260 q 644 1233 653 1246 l 592 1139 m 468 999 q 488 1008 479 999 q 497 1028 497 1017 q 488 1049 497 1040 q 468 1057 479 1057 q 447 1049 456 1057 q 439 1028 439 1040 q 447 1008 439 1017 q 468 999 456 999 m 618 1024 q 638 1031 629 1024 q 647 1051 647 1039 q 638 1072 647 1063 q 618 1081 629 1081 q 597 1072 606 1081 q 589 1051 589 1063 q 597 1031 589 1039 q 618 1024 606 1024 z "},"4":{"ha":1304,"x_min":69,"x_max":1221,"o":"m 321 776 q 369 742 353 769 q 378 683 385 715 l 306 369 q 270 322 297 339 q 211 311 243 304 q 164 346 181 318 q 154 406 147 374 l 226 718 q 262 767 235 750 q 321 776 289 785 m 764 833 l 764 333 q 739 274 764 299 q 681 250 714 250 l 626 250 l 626 79 q 603 24 626 47 q 549 1 581 1 q 493 24 517 1 q 469 79 469 47 l 469 250 l 367 250 l 367 79 q 343 24 367 47 q 288 1 319 1 q 234 24 257 1 q 211 79 211 47 l 211 250 l 156 250 q 97 274 121 250 q 72 333 72 299 l 72 833 l 764 833 m 406 696 q 391 761 414 731 q 326 803 368 792 q 250 795 285 813 q 207 742 215 778 l 125 393 q 140 327 117 358 q 204 286 163 296 q 282 293 247 275 q 325 346 317 311 l 406 696 m 1056 1113 l 1110 1113 l 1110 1061 l 1056 1061 l 1056 990 l 992 990 l 992 1061 l 838 1061 l 838 1113 l 992 1335 l 1056 1335 l 1056 1113 m 992 1113 l 992 1247 l 899 1113 l 992 1113 m 1221 1163 q 1202 1069 1221 1113 q 1151 992 1183 1025 q 1074 941 1118 960 q 981 922 1031 922 l 974 922 q 988 915 981 919 q 1003 906 996 911 q 1028 852 1026 883 q 1007 797 1029 821 l 792 564 l 792 790 l 892 900 q 942 925 913 922 q 862 953 899 932 q 798 1006 825 975 q 756 1078 771 1038 q 740 1163 740 1118 q 759 1256 740 1213 q 810 1331 778 1299 q 887 1383 843 1364 q 981 1401 931 1401 q 1074 1383 1031 1401 q 1151 1331 1118 1364 q 1202 1256 1183 1299 q 1221 1163 1221 1213 m 765 1163 q 782 1078 765 1118 q 828 1010 799 1039 q 897 963 857 981 q 981 946 936 946 q 1065 963 1025 946 q 1133 1010 1104 981 q 1179 1078 1163 1039 q 1196 1163 1196 1118 q 1179 1246 1196 1207 q 1133 1314 1163 1285 q 1065 1360 1104 1343 q 981 1378 1025 1378 q 897 1360 936 1378 q 828 1314 857 1343 q 782 1246 799 1285 q 765 1163 765 1207 m 592 1139 q 717 1024 669 1097 q 765 861 765 951 l 69 861 q 119 1026 69 953 q 250 1140 169 1100 l 196 1229 q 201 1247 190 1240 q 218 1243 213 1253 l 272 1151 q 418 1181 339 1181 q 568 1150 499 1181 l 625 1247 q 642 1253 629 1258 q 644 1233 650 1244 l 592 1139 m 468 999 q 488 1008 479 999 q 497 1028 497 1017 q 488 1049 497 1040 q 468 1057 479 1057 q 447 1049 456 1057 q 439 1028 439 1040 q 447 1008 439 1017 q 468 999 456 999 m 618 1022 q 638 1031 629 1022 q 646 1051 646 1039 q 638 1072 646 1063 q 618 1081 629 1081 q 597 1072 606 1081 q 589 1051 589 1063 q 597 1031 589 1039 q 618 1022 606 1022 z "},"5":{"ha":1292,"x_min":69,"x_max":1222,"o":"m 321 776 q 369 742 353 769 q 378 683 385 715 l 306 368 q 270 320 297 338 q 211 310 243 303 q 164 344 181 317 q 154 404 147 372 l 226 718 q 262 767 235 750 q 321 776 289 785 m 765 833 l 765 332 q 740 273 765 297 q 682 249 715 249 l 626 249 l 626 78 q 603 23 626 46 q 549 0 581 0 q 493 23 517 0 q 469 78 469 46 l 469 249 l 367 249 l 367 78 q 343 23 367 46 q 288 0 319 0 q 234 23 257 0 q 211 78 211 46 l 211 249 l 156 249 q 97 273 121 249 q 72 332 72 297 l 72 833 l 765 833 m 406 696 q 391 761 414 731 q 326 803 368 792 q 250 795 285 813 q 207 742 215 778 l 125 392 q 140 326 117 357 q 204 285 163 294 q 282 292 247 274 q 325 344 317 310 l 406 696 m 1222 1163 q 1203 1069 1222 1113 q 1152 992 1185 1025 q 1076 941 1119 960 q 982 922 1032 922 l 975 922 q 990 915 982 919 q 1004 906 997 911 q 1029 852 1028 883 q 1008 797 1031 821 l 793 563 l 793 790 l 893 900 q 943 925 914 922 q 863 953 900 932 q 799 1006 826 975 q 757 1078 772 1038 q 742 1163 742 1118 q 760 1256 742 1213 q 812 1331 779 1299 q 888 1383 844 1364 q 982 1401 932 1401 q 1076 1383 1032 1401 q 1152 1331 1119 1364 q 1203 1256 1185 1299 q 1222 1163 1222 1213 m 767 1163 q 783 1078 767 1118 q 829 1010 800 1039 q 898 963 858 981 q 982 946 938 946 q 1066 963 1026 946 q 1135 1010 1106 981 q 1181 1078 1164 1039 q 1197 1163 1197 1118 q 1181 1246 1197 1207 q 1135 1314 1164 1285 q 1066 1360 1106 1343 q 982 1378 1026 1378 q 898 1360 938 1378 q 829 1314 858 1343 q 783 1246 800 1285 q 767 1163 767 1207 m 1086 1281 l 946 1281 l 940 1201 l 943 1201 q 993 1213 964 1213 q 1072 1185 1044 1213 q 1101 1107 1101 1156 q 963 985 1101 985 q 868 1006 914 985 l 883 1060 q 961 1038 925 1038 q 1036 1107 1036 1038 q 981 1163 1036 1163 q 932 1143 954 1163 l 875 1143 l 885 1335 l 1086 1335 l 1086 1281 m 592 1139 q 719 1024 671 1097 q 767 861 767 951 l 69 861 q 119 1026 69 953 q 250 1140 169 1100 l 196 1229 q 201 1247 190 1240 q 218 1243 213 1253 l 272 1151 q 418 1181 339 1181 q 568 1150 499 1181 l 625 1247 q 642 1253 629 1258 q 646 1233 651 1246 l 592 1139 m 468 999 q 488 1008 479 999 q 497 1028 497 1017 q 488 1049 497 1040 q 468 1057 479 1057 q 447 1049 456 1057 q 439 1028 439 1040 q 447 1008 439 1017 q 468 999 456 999 m 618 1022 q 638 1031 629 1022 q 647 1051 647 1039 q 638 1072 647 1063 q 618 1081 629 1081 q 597 1072 606 1081 q 589 1051 589 1063 q 597 1031 589 1039 q 618 1022 606 1022 z "},"6":{"ha":1292,"x_min":69,"x_max":1221,"o":"m 319 778 q 368 743 351 771 q 378 683 385 715 l 304 369 q 270 321 297 338 q 211 311 243 304 q 163 346 181 318 q 153 404 146 374 l 226 719 q 262 768 235 751 q 319 778 289 785 m 764 833 l 764 333 q 740 274 764 299 q 682 250 715 250 l 625 250 l 625 79 q 602 24 625 47 q 547 1 579 1 q 492 24 515 1 q 469 79 469 47 l 469 250 l 365 250 l 365 79 q 342 24 365 47 q 288 1 319 1 q 234 24 257 1 q 211 79 211 47 l 211 250 l 156 250 q 97 274 121 250 q 72 333 72 299 l 72 833 l 764 833 m 406 696 q 390 761 414 731 q 326 803 367 792 q 250 795 285 813 q 207 742 215 778 l 125 392 q 140 326 117 357 q 204 286 163 294 q 281 292 246 275 q 325 344 317 310 l 406 696 m 1221 1163 q 1202 1069 1221 1113 q 1151 992 1183 1025 q 1074 941 1118 960 q 981 922 1031 922 l 974 922 q 989 915 982 919 q 1003 906 996 911 q 1028 852 1026 883 q 1007 797 1029 821 l 792 564 l 792 790 l 893 901 q 942 925 913 922 q 863 953 899 932 q 799 1006 826 975 q 757 1078 772 1038 q 742 1163 742 1118 q 760 1256 742 1213 q 812 1331 779 1299 q 888 1383 844 1364 q 981 1401 931 1401 q 1074 1383 1031 1401 q 1151 1331 1118 1364 q 1202 1256 1183 1299 q 1221 1163 1221 1213 m 765 1163 q 783 1078 765 1118 q 829 1010 800 1039 q 897 964 858 981 q 981 947 936 947 q 1065 964 1025 947 q 1133 1010 1104 981 q 1179 1078 1163 1039 q 1196 1163 1196 1118 q 1179 1246 1196 1207 q 1133 1314 1163 1285 q 1065 1360 1104 1343 q 981 1378 1025 1378 q 897 1360 936 1378 q 829 1314 858 1343 q 783 1246 800 1285 q 765 1163 765 1207 m 1042 1339 l 1054 1286 q 974 1261 1006 1285 q 926 1200 940 1240 l 928 1200 q 1000 1224 958 1224 q 1083 1193 1053 1224 q 1105 1157 1097 1178 q 1113 1108 1113 1136 q 1078 1018 1113 1056 q 1035 994 1058 1003 q 982 985 1013 985 q 888 1019 925 985 q 854 1124 854 1057 q 904 1278 854 1221 q 1042 1339 956 1335 m 982 1035 q 1032 1054 1013 1035 q 1049 1108 1049 1075 q 1031 1158 1049 1140 q 982 1175 1014 1175 q 936 1157 953 1175 q 919 1108 919 1140 q 936 1054 919 1072 q 982 1035 953 1035 m 592 1139 q 718 1025 671 1099 q 765 861 765 951 l 69 861 q 119 1026 69 953 q 250 1140 169 1100 l 196 1229 q 201 1247 190 1240 q 218 1243 211 1253 l 272 1151 q 418 1181 339 1181 q 567 1150 499 1181 l 624 1247 q 640 1251 629 1260 q 644 1233 653 1246 l 592 1139 m 468 999 q 488 1008 479 999 q 497 1028 497 1017 q 488 1049 497 1040 q 468 1057 479 1057 q 447 1049 456 1057 q 439 1028 439 1040 q 447 1008 439 1017 q 468 999 456 999 m 618 1024 q 638 1031 629 1024 q 647 1051 647 1039 q 638 1072 647 1063 q 618 1081 629 1081 q 597 1072 606 1081 q 589 1051 589 1063 q 597 1031 589 1039 q 618 1024 606 1024 z "},"7":{"ha":1292,"x_min":69,"x_max":1222,"o":"m 321 776 q 369 742 353 769 q 378 683 385 715 l 306 368 q 270 320 297 338 q 211 310 243 303 q 164 344 181 317 q 154 404 147 372 l 226 718 q 262 767 235 750 q 321 776 289 785 m 765 833 l 765 332 q 740 273 765 297 q 682 249 715 249 l 626 249 l 626 78 q 603 23 626 46 q 549 0 581 0 q 493 23 517 0 q 469 78 469 46 l 469 249 l 367 249 l 367 78 q 343 23 367 46 q 288 0 319 0 q 234 23 257 0 q 211 78 211 46 l 211 249 l 156 249 q 97 273 121 249 q 72 332 72 297 l 72 833 l 765 833 m 406 696 q 391 761 414 731 q 326 803 368 792 q 250 795 285 813 q 207 742 215 778 l 125 392 q 140 326 117 357 q 204 285 163 294 q 282 292 247 274 q 325 344 317 310 l 406 696 m 1222 1163 q 1203 1069 1222 1113 q 1152 992 1185 1025 q 1076 941 1119 960 q 982 922 1032 922 l 975 922 q 990 915 982 919 q 1004 906 997 911 q 1029 852 1028 883 q 1008 797 1031 821 l 793 563 l 793 790 l 893 900 q 943 925 914 922 q 863 953 900 932 q 799 1006 826 975 q 757 1078 772 1038 q 742 1163 742 1118 q 760 1256 742 1213 q 812 1331 779 1299 q 888 1383 844 1364 q 982 1401 932 1401 q 1076 1383 1032 1401 q 1152 1331 1119 1364 q 1203 1256 1185 1299 q 1222 1163 1222 1213 m 767 1163 q 783 1078 767 1118 q 829 1010 800 1039 q 898 963 858 981 q 982 946 938 946 q 1066 963 1026 946 q 1135 1010 1106 981 q 1181 1078 1164 1039 q 1197 1163 1197 1118 q 1181 1246 1197 1207 q 1135 1314 1164 1285 q 1066 1360 1106 1343 q 982 1378 1026 1378 q 898 1360 938 1378 q 829 1314 858 1343 q 783 1246 800 1285 q 767 1163 767 1207 m 868 1332 l 1101 1332 l 1101 1278 q 974 988 1025 1151 l 903 988 q 1039 1276 956 1144 l 1039 1278 l 868 1278 l 868 1332 m 592 1139 q 719 1024 671 1097 q 767 861 767 951 l 69 861 q 119 1026 69 953 q 250 1140 169 1100 l 196 1229 q 201 1247 190 1240 q 218 1243 213 1253 l 272 1151 q 418 1181 339 1181 q 568 1150 499 1181 l 625 1247 q 642 1253 629 1258 q 646 1233 651 1246 l 592 1139 m 468 999 q 488 1008 479 999 q 497 1028 497 1017 q 488 1049 497 1040 q 468 1057 479 1057 q 447 1049 456 1057 q 439 1028 439 1040 q 447 1008 439 1017 q 468 999 456 999 m 618 1022 q 638 1031 629 1022 q 647 1051 647 1039 q 638 1072 647 1063 q 618 1081 629 1081 q 597 1072 606 1081 q 589 1051 589 1063 q 597 1031 589 1039 q 618 1022 606 1022 z "},"8":{"ha":1292,"x_min":69,"x_max":1222,"o":"m 321 776 q 369 742 353 769 q 378 683 385 715 l 306 368 q 270 320 297 338 q 211 310 243 303 q 164 344 181 317 q 154 404 147 372 l 226 718 q 262 767 235 750 q 321 776 289 785 m 765 833 l 765 332 q 740 273 765 297 q 682 249 715 249 l 626 249 l 626 78 q 603 23 626 46 q 549 0 581 0 q 493 23 517 0 q 469 78 469 46 l 469 249 l 367 249 l 367 78 q 343 23 367 46 q 288 0 319 0 q 234 23 257 0 q 211 78 211 46 l 211 249 l 156 249 q 97 273 121 249 q 72 332 72 297 l 72 833 l 765 833 m 406 696 q 391 761 414 731 q 326 803 368 792 q 250 795 285 813 q 207 742 215 778 l 125 392 q 140 326 117 357 q 204 285 163 294 q 282 292 247 274 q 325 344 317 310 l 406 696 m 1222 1163 q 1203 1069 1222 1113 q 1152 992 1185 1025 q 1076 941 1119 960 q 982 922 1032 922 l 975 922 q 990 915 982 919 q 1004 906 997 911 q 1029 852 1028 883 q 1008 797 1031 821 l 793 563 l 793 790 l 893 900 q 943 925 914 922 q 863 953 900 932 q 799 1006 826 975 q 757 1078 772 1038 q 742 1163 742 1118 q 760 1256 742 1213 q 812 1331 779 1299 q 888 1383 844 1364 q 982 1401 932 1401 q 1076 1383 1032 1401 q 1152 1331 1119 1364 q 1203 1256 1185 1299 q 1222 1163 1222 1213 m 767 1163 q 783 1078 767 1118 q 829 1010 800 1039 q 898 963 858 981 q 982 946 938 946 q 1066 963 1026 946 q 1135 1010 1106 981 q 1181 1078 1164 1039 q 1197 1163 1197 1118 q 1181 1246 1197 1207 q 1135 1314 1164 1285 q 1066 1360 1106 1343 q 982 1378 1026 1378 q 898 1360 938 1378 q 829 1314 858 1343 q 783 1246 800 1285 q 767 1163 767 1207 m 893 1311 q 982 1336 924 1336 q 1072 1311 1043 1336 q 1104 1249 1104 1289 q 1044 1172 1104 1201 q 1115 1081 1115 1144 q 1081 1010 1115 1038 q 982 982 1047 982 q 886 1010 918 982 q 851 1081 851 1036 q 868 1129 851 1106 q 919 1165 885 1150 l 919 1167 q 876 1201 893 1181 q 861 1249 861 1225 q 893 1311 861 1288 m 978 1144 q 914 1083 914 1126 q 933 1046 914 1060 q 982 1031 950 1031 q 1033 1046 1017 1031 q 1050 1083 1050 1060 q 1035 1121 1050 1106 q 1013 1133 1026 1128 q 978 1144 999 1139 m 983 1192 q 1042 1243 1042 1208 q 1026 1275 1042 1265 q 982 1288 1013 1288 q 939 1275 953 1288 q 924 1243 924 1263 q 983 1192 924 1207 m 592 1139 q 719 1024 671 1097 q 767 861 767 951 l 69 861 q 119 1026 69 953 q 250 1140 169 1100 l 196 1229 q 201 1247 190 1240 q 218 1243 213 1253 l 272 1151 q 418 1181 339 1181 q 568 1150 499 1181 l 625 1247 q 642 1253 629 1258 q 646 1233 651 1246 l 592 1139 m 468 999 q 488 1008 479 999 q 497 1028 497 1017 q 488 1049 497 1040 q 468 1057 479 1057 q 447 1049 456 1057 q 439 1028 439 1040 q 447 1008 439 1017 q 468 999 456 999 m 618 1022 q 638 1031 629 1022 q 647 1051 647 1039 q 638 1072 647 1063 q 618 1081 629 1081 q 597 1072 606 1081 q 589 1051 589 1063 q 597 1031 589 1039 q 618 1022 606 1022 z "},"9":{"ha":1290,"x_min":69,"x_max":1221,"o":"m 319 778 q 368 743 351 771 q 378 683 385 715 l 304 369 q 270 321 297 338 q 211 311 243 304 q 163 346 181 318 q 153 404 146 374 l 226 719 q 262 768 235 751 q 319 778 289 785 m 764 833 l 764 333 q 740 274 764 299 q 682 250 715 250 l 625 250 l 625 79 q 602 24 625 47 q 547 1 579 1 q 492 24 515 1 q 469 79 469 47 l 469 250 l 365 250 l 365 79 q 342 24 365 47 q 288 1 319 1 q 234 24 257 1 q 211 79 211 47 l 211 250 l 156 250 q 97 274 121 250 q 72 333 72 299 l 72 833 l 764 833 m 406 696 q 390 761 414 731 q 326 803 367 792 q 250 795 285 813 q 207 742 215 778 l 125 392 q 140 326 117 357 q 204 286 163 294 q 281 292 246 275 q 325 344 317 310 l 406 696 m 1221 1163 q 1202 1069 1221 1113 q 1151 992 1183 1025 q 1074 941 1118 960 q 981 922 1031 922 l 974 922 q 989 915 982 919 q 1003 906 996 911 q 1028 852 1026 883 q 1007 797 1029 821 l 792 564 l 792 790 l 893 901 q 942 925 913 922 q 863 953 899 932 q 799 1006 826 975 q 757 1078 772 1038 q 742 1163 742 1118 q 760 1256 742 1213 q 812 1331 779 1299 q 888 1383 844 1364 q 981 1401 931 1401 q 1074 1383 1031 1401 q 1151 1331 1118 1364 q 1202 1256 1183 1299 q 1221 1163 1221 1213 m 765 1163 q 783 1078 765 1118 q 829 1010 800 1039 q 897 964 858 981 q 981 947 936 947 q 1065 964 1025 947 q 1133 1010 1104 981 q 1179 1078 1163 1039 q 1196 1163 1196 1118 q 1179 1246 1196 1207 q 1133 1314 1163 1285 q 1065 1360 1104 1343 q 981 1378 1025 1378 q 897 1360 936 1378 q 829 1314 858 1343 q 783 1246 800 1285 q 765 1163 765 1207 m 904 1035 q 953 1043 932 1038 q 989 1060 974 1049 q 1036 1121 1019 1081 q 1003 1105 1021 1110 q 964 1100 985 1100 q 881 1128 908 1100 q 851 1215 851 1158 q 886 1303 851 1268 q 979 1336 924 1336 q 1076 1301 1039 1336 q 1110 1200 1110 1264 q 1057 1043 1110 1100 q 915 982 1006 986 l 904 1035 m 979 1286 q 932 1267 951 1286 q 915 1215 915 1247 q 932 1164 915 1183 q 979 1146 950 1146 q 1026 1164 1010 1146 q 1043 1215 1043 1181 q 1026 1267 1043 1250 q 979 1286 1011 1286 m 592 1139 q 718 1025 671 1099 q 765 861 765 951 l 69 861 q 119 1026 69 953 q 250 1140 169 1100 l 196 1229 q 201 1247 190 1240 q 218 1243 211 1253 l 272 1151 q 418 1181 339 1181 q 567 1150 499 1181 l 624 1247 q 640 1251 629 1260 q 644 1233 653 1246 l 592 1139 m 468 999 q 488 1008 479 999 q 497 1028 497 1017 q 488 1049 497 1040 q 468 1057 479 1057 q 447 1049 456 1057 q 439 1028 439 1040 q 447 1008 439 1017 q 468 999 456 999 m 618 1024 q 638 1031 629 1024 q 647 1051 647 1039 q 638 1072 647 1063 q 618 1081 629 1081 q 597 1072 606 1081 q 589 1051 589 1063 q 597 1031 589 1039 q 618 1024 606 1024 z "},"\u0000":{"ha":0,"x_min":0,"x_max":0,"o":""},"\r":{"ha":694,"x_min":0,"x_max":0,"o":""}," ":{"ha":694,"x_min":0,"x_max":0,"o":""},"À":{"ha":1278,"x_min":69,"x_max":1208,"o":"m 69 796 q 93 851 69 828 q 150 875 117 875 q 206 851 182 875 q 229 796 229 828 l 229 461 q 206 404 229 428 q 150 381 182 381 q 93 404 117 381 q 69 461 69 428 l 69 796 m 1008 818 q 1164 803 1078 779 l 1164 796 l 1164 461 q 1140 404 1164 428 q 1085 381 1117 381 q 1028 404 1051 381 q 1004 461 1004 428 l 1004 796 q 1008 818 1004 807 m 993 883 q 1047 905 1018 900 q 1106 905 1076 910 q 1161 884 1135 900 q 1208 843 1188 868 q 1153 816 1182 824 q 1094 810 1124 808 q 1039 825 1065 813 q 992 861 1013 838 q 988 856 989 858 q 985 850 988 853 l 247 850 q 238 878 238 863 q 247 903 238 894 l 985 903 l 986 901 q 1011 951 994 929 q 1051 989 1028 974 q 1103 1011 1075 1004 q 1163 1015 1132 1018 q 1146 962 1160 986 q 1113 919 1132 938 q 1050 918 1082 924 q 989 897 1018 913 q 993 883 993 890 m 793 1176 q 917 1069 868 1136 q 975 919 967 1003 l 258 919 q 317 1070 268 1003 q 443 1176 367 1138 l 389 1271 q 393 1285 383 1282 q 410 1282 404 1290 l 463 1186 q 617 1218 533 1218 q 771 1186 700 1218 l 826 1282 q 842 1285 832 1290 q 846 1271 851 1282 l 793 1176 m 453 1018 q 474 1027 465 1018 q 483 1049 483 1036 q 474 1070 483 1061 q 453 1079 465 1079 q 431 1070 440 1079 q 422 1049 422 1061 q 431 1027 422 1036 q 453 1018 440 1018 m 781 1018 q 803 1027 794 1018 q 811 1049 811 1036 q 803 1070 811 1061 q 781 1079 794 1079 q 760 1070 769 1079 q 751 1049 751 1061 q 760 1027 751 1036 q 781 1018 769 1018 m 658 463 l 572 463 l 614 606 l 658 463 m 974 833 l 974 342 q 949 281 974 306 q 889 257 925 257 l 832 257 l 832 81 q 808 24 832 47 q 751 0 785 0 q 694 24 718 0 q 671 81 671 47 l 671 257 l 563 257 l 563 81 q 539 24 563 47 q 482 0 515 0 q 427 24 450 0 q 404 81 404 47 l 404 257 l 346 257 q 285 281 310 257 q 260 342 260 306 l 260 833 l 974 833 m 536 764 l 604 688 l 658 688 l 608 764 l 536 764 m 761 339 l 650 661 l 582 661 l 472 339 l 535 339 l 558 415 l 672 415 l 696 339 l 761 339 z "},"á":{"ha":958,"x_min":64,"x_max":897,"o":"m 71 1004 q 82 1062 64 1036 q 132 1093 100 1088 q 190 1082 164 1100 q 222 1032 217 1064 l 279 713 q 267 654 286 681 q 218 622 249 628 q 160 635 186 617 q 128 685 133 653 l 71 1004 m 646 981 q 657 1038 639 1013 q 707 1071 675 1064 q 765 1058 739 1076 q 799 1007 792 1039 l 856 689 q 843 631 861 657 q 793 599 825 606 q 762 599 776 596 q 735 611 747 603 q 714 633 722 619 q 703 661 706 646 l 646 981 m 749 1196 q 860 1065 822 1144 q 886 897 897 986 l 847 903 l 824 1032 q 783 1086 818 1067 q 704 1097 749 1106 q 633 1060 660 1090 q 613 994 606 1029 l 624 933 l 261 982 l 249 1054 q 228 1093 244 1078 q 303 1185 257 1146 q 408 1243 350 1224 l 367 1344 q 374 1360 363 1354 q 383 1360 378 1363 q 389 1353 388 1358 l 432 1251 q 506 1264 468 1261 q 583 1261 543 1267 q 728 1210 664 1250 l 794 1297 q 811 1299 803 1307 q 814 1282 822 1293 l 749 1196 m 386 1126 q 381 1148 389 1139 q 361 1160 372 1157 q 340 1154 349 1163 q 328 1133 331 1146 q 333 1113 326 1122 q 353 1101 340 1104 q 374 1107 365 1099 q 386 1126 383 1115 m 581 1088 q 575 1109 582 1100 q 556 1121 568 1118 q 534 1115 543 1124 q 522 1096 525 1107 q 528 1074 519 1083 q 547 1063 536 1065 q 569 1068 560 1060 q 581 1088 578 1076 m 508 422 q 560 435 525 435 l 578 435 l 578 419 q 561 381 578 394 q 519 364 544 364 q 499 372 504 364 q 490 394 490 381 q 508 422 490 414 m 889 833 l 889 332 q 865 274 889 297 q 807 250 842 250 l 750 250 l 750 78 q 727 23 750 46 q 672 0 704 0 q 617 23 640 0 q 594 78 594 46 l 594 250 l 490 250 l 490 78 q 467 23 490 46 q 413 0 444 0 q 358 23 381 0 q 335 78 335 46 l 335 250 l 279 250 q 222 274 246 250 q 197 332 197 297 l 197 596 q 209 596 203 596 q 221 599 215 596 q 292 635 265 606 q 313 700 319 665 l 289 833 l 640 833 l 676 639 q 718 585 683 603 q 797 574 753 567 q 868 612 842 582 q 888 678 894 642 l 858 833 l 889 833 m 503 581 l 554 581 l 619 654 l 549 654 l 503 581 m 640 328 q 635 358 636 343 q 633 388 633 372 l 633 471 q 611 535 633 514 q 539 554 590 554 q 450 535 489 554 l 458 494 q 538 514 494 514 q 569 504 560 514 q 578 474 578 493 l 578 472 l 560 472 q 469 449 501 472 q 438 389 438 428 q 457 342 438 358 q 506 325 472 325 q 529 326 518 325 q 550 333 540 328 q 582 361 572 344 l 583 361 q 588 328 585 342 l 640 328 z "},"à":{"ha":1278,"x_min":69,"x_max":1208,"o":"m 69 794 q 93 851 69 828 q 150 875 117 875 q 206 851 182 875 q 229 794 229 828 l 229 461 q 206 406 229 429 q 150 382 182 382 q 93 406 117 382 q 69 461 69 429 l 69 794 m 1008 818 q 1082 795 1042 799 q 1164 803 1122 792 l 1164 794 l 1164 461 q 1140 406 1164 429 q 1085 382 1117 382 q 1028 406 1051 382 q 1004 461 1004 429 l 1004 794 q 1008 818 1004 807 m 992 883 q 1047 904 1018 899 q 1106 904 1076 910 q 1161 883 1135 899 q 1208 843 1188 868 q 1153 815 1182 824 q 1094 810 1124 807 q 1038 825 1065 813 q 990 860 1011 838 q 985 850 988 853 l 247 850 q 238 878 238 863 q 247 903 238 893 l 985 903 l 986 901 q 1011 951 994 929 q 1051 989 1028 974 q 1103 1011 1075 1004 q 1163 1015 1132 1018 q 1146 962 1160 986 q 1113 919 1132 938 q 1050 917 1082 922 q 989 897 1018 913 q 992 883 992 886 m 792 1176 q 916 1069 867 1136 q 975 919 965 1003 l 258 919 q 317 1070 268 1003 q 443 1176 367 1138 l 389 1271 q 393 1286 386 1282 q 410 1282 404 1292 l 463 1186 q 618 1218 535 1218 q 771 1186 699 1218 l 825 1282 q 842 1286 831 1292 q 846 1271 851 1282 l 792 1176 m 454 1018 q 475 1027 465 1018 q 485 1049 485 1036 q 475 1070 485 1061 q 454 1079 465 1079 q 431 1070 440 1079 q 422 1049 422 1061 q 431 1027 422 1036 q 454 1018 440 1018 m 781 1018 q 802 1027 793 1018 q 811 1049 811 1036 q 802 1070 811 1061 q 781 1079 793 1079 q 760 1070 768 1079 q 751 1049 751 1061 q 760 1027 751 1036 q 781 1018 768 1018 m 582 436 q 635 449 599 449 l 654 449 l 654 433 q 636 392 654 410 q 593 376 617 376 q 571 385 579 376 q 563 406 563 390 q 582 436 563 426 m 974 833 l 974 343 q 949 282 974 307 q 889 257 925 257 l 831 257 l 831 81 q 807 24 831 47 q 751 0 783 0 q 694 24 718 0 q 671 81 671 47 l 671 257 l 563 257 l 563 81 q 539 24 563 47 q 483 0 515 0 q 427 24 450 0 q 404 81 404 47 l 404 257 l 346 257 q 285 282 310 257 q 260 343 260 307 l 260 833 l 974 833 m 538 675 l 604 599 l 657 599 l 611 675 l 538 675 m 718 339 q 713 369 714 354 q 711 400 711 385 l 711 486 q 688 553 711 529 q 613 572 664 572 q 522 553 565 572 l 529 510 q 611 529 571 529 q 644 519 635 529 q 654 486 654 510 l 635 486 q 542 463 571 486 q 508 401 508 440 q 528 351 508 371 q 579 335 546 335 q 624 344 606 335 q 657 372 647 356 l 658 372 q 663 339 660 353 l 718 339 z "},"É":{"ha":1197,"x_min":69,"x_max":1128,"o":"m 69 769 q 92 824 69 801 q 147 847 115 847 q 201 824 179 847 q 224 769 224 801 l 224 446 q 201 391 224 414 q 147 368 179 368 q 92 391 115 368 q 69 446 69 414 l 69 769 m 1128 446 q 1106 391 1128 414 q 1050 368 1083 368 q 997 391 1018 368 q 975 446 975 414 l 975 769 q 997 824 975 801 q 1050 847 1018 847 q 1106 824 1083 847 q 1128 769 1128 801 l 1128 446 m 919 982 q 946 858 946 928 l 251 858 q 286 1000 251 935 l 293 939 l 567 939 l 575 1018 l 633 1018 l 640 938 l 915 938 l 919 982 m 544 954 l 313 954 l 301 1069 l 557 1069 l 544 954 m 651 1068 l 906 1068 l 894 954 l 663 954 l 651 1068 m 626 1086 l 632 1035 l 576 1035 l 581 1086 l 356 1086 q 429 1139 388 1115 l 379 1228 q 383 1243 374 1236 q 399 1238 390 1249 l 449 1147 q 599 1178 521 1178 q 749 1147 676 1178 l 800 1239 q 815 1244 808 1250 q 819 1229 825 1238 l 768 1139 q 843 1086 807 1117 l 626 1086 m 943 833 l 943 332 q 919 273 943 297 q 861 249 896 249 l 806 249 l 806 78 q 783 23 806 46 q 728 0 760 0 q 674 23 696 0 q 651 78 651 46 l 651 249 l 546 249 l 546 78 q 524 23 546 46 q 469 0 501 0 q 415 23 438 0 q 392 78 392 46 l 392 249 l 336 249 q 278 273 303 249 q 254 332 254 297 l 254 833 l 943 833 m 549 664 l 600 664 l 665 738 l 594 738 l 549 664 m 699 638 l 506 638 l 506 328 l 699 328 l 699 376 l 564 376 l 564 468 l 689 468 l 689 514 l 564 514 l 564 590 l 699 590 l 699 638 z "},"é":{"ha":1197,"x_min":69,"x_max":1128,"o":"m 69 769 q 92 824 69 801 q 147 847 115 847 q 201 824 179 847 q 224 769 224 801 l 224 446 q 201 392 224 414 q 147 369 179 369 q 92 392 115 369 q 69 446 69 414 l 69 769 m 1128 446 q 1106 392 1128 414 q 1051 369 1083 369 q 997 392 1019 369 q 975 446 975 414 l 975 769 q 997 824 975 801 q 1051 847 1019 847 q 1106 824 1083 847 q 1128 769 1128 801 l 1128 446 m 919 983 q 940 924 933 956 q 946 858 946 892 l 251 858 q 286 1001 251 935 l 293 939 l 567 939 l 575 1019 l 633 1019 l 640 938 l 915 938 l 919 983 m 546 954 l 314 954 l 301 1071 l 557 1071 l 546 954 m 651 1069 l 907 1069 l 894 954 l 663 954 l 651 1069 m 626 1088 l 632 1036 l 576 1036 l 582 1088 l 356 1088 q 429 1139 386 1117 l 379 1228 q 383 1243 375 1236 q 399 1238 390 1249 l 449 1147 q 521 1171 483 1163 q 599 1179 558 1179 q 676 1171 639 1179 q 749 1147 714 1163 l 801 1239 q 817 1244 807 1250 q 819 1229 824 1238 l 768 1139 q 808 1115 789 1128 q 843 1088 826 1103 l 626 1088 m 944 833 l 944 332 q 921 273 944 297 q 861 249 897 249 l 806 249 l 806 78 q 783 23 806 46 q 729 0 761 0 q 674 23 697 0 q 651 78 651 46 l 651 249 l 547 249 l 547 78 q 524 23 547 46 q 469 0 501 0 q 415 23 438 0 q 392 78 392 46 l 392 249 l 336 249 q 278 273 303 249 q 254 332 254 297 l 254 833 l 944 833 m 549 579 l 601 579 l 665 653 l 594 653 l 549 579 m 701 419 q 703 429 703 424 q 703 440 703 435 q 675 524 703 493 q 599 553 650 553 q 521 522 550 553 q 492 439 492 493 q 522 354 492 385 q 604 324 557 324 q 685 340 647 324 l 672 379 q 610 364 639 364 q 567 379 585 364 q 547 419 550 393 l 701 419 m 600 514 q 638 499 622 514 q 651 457 649 485 l 547 457 q 563 499 550 486 q 600 514 575 514 z "},"ê":{"ha":1051,"x_min":67,"x_max":986,"o":"m 214 751 q 181 707 207 722 q 126 699 156 692 q 83 732 99 706 q 74 786 67 758 l 144 1079 q 177 1124 151 1108 q 232 1133 203 1140 q 277 1101 261 1126 q 286 1046 293 1075 l 214 751 m 308 1057 q 304 1106 315 1082 q 357 1139 328 1124 l 307 1233 q 306 1242 304 1238 q 310 1249 307 1246 q 326 1244 321 1256 l 378 1150 q 391 1155 385 1153 q 404 1160 397 1157 l 414 1147 l 469 1176 l 479 1176 q 535 1154 501 1158 q 608 1157 568 1150 q 622 1161 615 1160 q 635 1165 628 1163 q 656 1158 646 1161 q 676 1150 667 1154 l 724 1231 l 750 1229 l 697 1139 q 753 1104 726 1124 q 747 1056 742 1079 l 794 861 l 261 861 l 308 1057 m 661 997 l 696 963 l 713 978 l 676 1013 l 713 1047 l 696 1063 l 661 1028 l 646 1013 l 661 997 m 385 1013 l 349 978 l 364 963 l 399 997 l 414 1013 l 399 1028 l 364 1063 l 349 1047 l 385 1013 m 715 1350 q 688 1351 703 1346 l 674 1332 q 696 1317 688 1325 l 754 1336 l 757 1325 l 704 1308 q 715 1289 714 1297 l 764 1293 l 765 1281 l 718 1276 q 718 1264 718 1269 q 715 1253 718 1258 l 763 1250 l 761 1238 l 713 1240 q 672 1195 700 1215 q 606 1167 644 1175 q 533 1166 568 1160 q 479 1192 499 1172 l 417 1163 l 411 1174 l 469 1200 q 461 1217 463 1208 l 401 1206 l 399 1217 l 457 1229 q 457 1251 454 1238 l 397 1247 l 397 1258 l 461 1263 q 465 1274 463 1269 q 472 1283 468 1278 l 446 1300 q 419 1282 436 1286 q 384 1288 400 1278 q 365 1318 368 1299 l 410 1328 q 407 1339 407 1336 q 406 1344 407 1342 q 404 1351 406 1346 q 400 1372 403 1357 l 401 1372 q 435 1367 419 1376 q 456 1338 450 1357 q 453 1311 457 1324 l 481 1293 q 500 1311 488 1303 q 492 1325 494 1315 q 519 1308 496 1304 q 533 1318 528 1311 q 536 1333 539 1325 q 526 1349 533 1344 q 510 1351 518 1354 q 494 1342 500 1350 q 492 1325 489 1333 q 497 1348 489 1338 q 515 1361 504 1358 q 538 1357 528 1364 q 551 1338 549 1350 l 551 1336 q 560 1338 557 1338 q 568 1340 564 1339 q 592 1344 581 1344 q 590 1346 592 1346 q 595 1369 588 1358 q 615 1382 603 1379 q 637 1378 626 1385 q 650 1358 647 1371 q 649 1340 653 1347 q 656 1338 653 1339 q 663 1336 658 1338 l 676 1358 q 661 1385 665 1369 q 668 1419 658 1404 q 696 1439 678 1435 l 707 1393 q 719 1395 717 1394 q 724 1397 721 1396 q 732 1399 726 1397 q 753 1404 738 1400 l 753 1403 q 745 1368 756 1383 q 715 1350 735 1353 m 610 1372 q 594 1363 600 1371 q 592 1346 589 1354 q 602 1330 594 1335 q 618 1328 610 1325 q 633 1338 628 1331 q 636 1354 638 1346 q 626 1370 633 1365 q 610 1372 618 1375 m 586 1238 l 585 1238 q 545 1246 564 1233 q 521 1281 526 1258 q 522 1287 519 1286 q 526 1281 524 1288 q 533 1272 531 1274 q 538 1267 535 1269 q 549 1255 542 1260 q 564 1249 557 1250 q 576 1247 574 1246 q 583 1249 578 1247 q 591 1251 589 1250 q 600 1256 593 1251 q 612 1267 607 1258 q 618 1283 617 1276 q 620 1290 619 1288 q 621 1300 621 1293 q 624 1308 622 1307 q 628 1304 626 1308 q 620 1262 632 1281 q 586 1238 608 1243 m 839 751 q 872 707 846 722 q 926 699 897 692 q 971 732 956 706 q 979 786 986 758 l 908 1079 q 876 1124 901 1108 q 821 1133 850 1140 q 776 1101 792 1126 q 768 1046 761 1075 l 839 751 m 531 514 q 568 499 556 514 q 578 481 575 492 q 582 457 581 471 l 478 457 q 493 497 481 486 q 531 514 506 514 m 825 735 q 842 703 829 717 q 874 683 856 690 l 874 332 q 849 273 874 297 q 792 249 825 249 l 735 249 l 735 78 q 712 24 735 46 q 657 1 689 1 q 602 24 625 1 q 579 78 579 46 l 579 249 l 476 249 l 476 78 q 453 24 476 46 q 399 1 431 1 q 344 24 367 1 q 321 78 321 46 l 321 249 l 265 249 q 206 273 231 249 q 182 332 182 297 l 182 685 q 229 736 221 699 l 253 833 l 800 833 l 825 735 m 440 579 l 501 579 l 533 632 l 565 579 l 626 579 l 572 653 l 494 653 l 440 579 m 633 418 l 478 418 q 497 378 479 392 q 540 363 515 363 q 603 379 571 363 l 617 340 q 536 322 581 322 q 453 354 488 322 q 422 439 422 385 q 451 522 422 490 q 529 554 481 554 q 607 524 579 554 q 635 439 635 493 q 633 418 635 425 z "},"Í":{"ha":1074,"x_min":64,"x_max":1010,"o":"m 904 418 q 867 371 894 386 q 808 365 839 356 q 761 403 776 376 q 757 463 746 431 l 853 772 q 890 818 861 803 q 947 824 918 833 q 994 786 979 814 q 1000 726 1010 758 l 904 418 m 72 731 q 78 790 64 763 q 125 828 93 817 q 183 822 156 838 q 221 775 211 807 l 315 467 q 311 407 326 435 q 265 369 296 379 q 206 375 233 360 q 168 421 179 390 l 72 731 m 700 1140 q 828 1024 779 1099 q 878 861 878 950 l 182 861 q 229 1024 182 950 q 356 1138 276 1097 l 306 1229 q 311 1246 301 1240 q 319 1247 314 1249 q 328 1240 325 1246 l 378 1149 q 451 1172 414 1164 q 529 1181 489 1181 q 678 1149 607 1181 l 731 1242 q 738 1249 733 1247 q 747 1247 743 1250 q 751 1231 757 1240 l 700 1140 m 421 913 q 440 921 432 913 q 449 942 449 929 q 440 963 449 954 q 421 971 432 971 q 399 963 408 971 q 390 942 390 954 q 399 921 390 929 q 421 913 408 913 m 625 913 q 644 921 636 913 q 653 942 653 929 q 644 963 653 954 q 625 971 636 971 q 603 963 613 971 q 594 942 594 954 q 603 921 594 929 q 625 913 613 913 m 800 339 q 840 332 819 332 q 875 339 860 332 l 875 332 q 851 274 875 297 q 793 250 826 250 l 736 250 l 736 78 q 714 23 736 46 q 660 0 692 0 q 604 23 626 0 q 582 78 582 46 l 582 250 l 478 250 l 478 78 q 455 23 478 46 q 400 0 432 0 q 345 23 368 0 q 322 78 322 46 l 322 250 l 267 250 q 207 274 231 250 q 183 332 183 297 l 183 347 q 272 343 224 326 q 338 388 315 356 q 350 456 360 421 l 243 797 q 218 833 236 821 l 860 833 q 829 793 836 817 l 724 451 q 735 384 713 417 q 800 339 758 351 m 564 640 l 499 640 l 499 328 l 564 328 l 564 640 m 614 739 l 544 739 l 499 665 l 550 665 l 614 739 z "},"í":{"ha":1046,"x_min":64,"x_max":1010,"o":"m 904 418 q 867 371 894 386 q 808 365 839 356 q 761 403 776 376 q 757 463 746 431 l 853 772 q 890 818 861 803 q 947 824 918 833 q 994 786 979 814 q 1000 726 1010 758 l 904 418 m 72 731 q 78 790 64 763 q 125 828 93 817 q 183 822 156 838 q 221 775 211 807 l 315 467 q 311 407 326 435 q 265 369 296 379 q 206 375 233 360 q 168 421 179 390 l 72 731 m 700 1140 q 828 1024 779 1099 q 878 861 878 950 l 182 861 q 229 1024 182 950 q 356 1138 276 1097 l 306 1229 q 311 1246 301 1240 q 319 1247 314 1249 q 328 1240 325 1246 l 378 1149 q 451 1172 414 1164 q 529 1181 489 1181 q 678 1149 607 1181 l 731 1242 q 738 1249 733 1247 q 747 1247 743 1250 q 751 1231 757 1240 l 700 1140 m 421 913 q 440 921 432 913 q 449 942 449 929 q 440 963 449 954 q 421 971 432 971 q 399 963 408 971 q 390 942 390 954 q 399 921 390 929 q 421 913 408 913 m 625 913 q 644 921 636 913 q 653 942 653 929 q 644 963 653 954 q 625 971 636 971 q 603 963 613 971 q 594 942 594 954 q 603 921 594 929 q 625 913 613 913 m 800 339 q 840 332 819 332 q 875 339 860 332 l 875 332 q 851 274 875 297 q 793 250 826 250 l 736 250 l 736 78 q 714 23 736 46 q 660 0 692 0 q 604 23 626 0 q 582 78 582 46 l 582 250 l 478 250 l 478 78 q 455 23 478 46 q 400 0 432 0 q 345 23 368 0 q 322 78 322 46 l 322 250 l 267 250 q 207 274 231 250 q 183 332 183 297 l 183 347 q 272 343 224 326 q 338 388 315 356 q 350 456 360 421 l 243 797 q 218 833 236 821 l 860 833 q 829 793 836 817 l 724 451 q 735 384 713 417 q 800 339 758 351 m 556 550 l 499 550 l 499 328 l 556 328 l 556 550 m 614 654 l 544 654 l 499 581 l 550 581 l 614 654 z "},"Î":{"ha":1025,"x_min":64,"x_max":961,"o":"m 947 486 q 951 427 961 457 q 913 382 940 397 q 854 379 885 368 q 808 418 824 390 l 806 424 l 806 771 l 947 486 m 71 696 q 81 755 64 728 q 129 790 97 782 q 188 781 161 797 q 221 732 214 764 l 296 417 q 286 358 303 385 q 238 324 269 331 q 179 333 206 317 q 146 382 153 350 l 71 696 m 661 1088 q 745 982 714 1043 q 776 850 776 921 l 79 850 q 99 955 79 906 q 152 1045 118 1004 q 233 1115 186 1086 q 336 1158 281 1144 l 310 1244 q 318 1257 307 1254 q 325 1257 321 1260 q 331 1250 329 1254 l 357 1164 q 392 1168 375 1167 q 428 1169 408 1169 q 544 1151 489 1169 q 643 1101 599 1133 l 706 1189 q 721 1192 711 1199 q 724 1176 728 1186 l 661 1088 m 224 958 q 244 967 235 958 q 253 986 253 975 q 244 1008 253 999 q 224 1017 235 1017 q 203 1008 213 1017 q 194 986 194 999 q 203 967 194 975 q 224 958 213 958 m 400 915 q 419 924 411 915 q 428 943 428 932 q 419 964 428 956 q 400 972 411 972 q 378 964 386 972 q 369 943 369 956 q 378 924 369 932 q 400 915 386 915 m 774 833 l 774 332 q 749 273 774 297 q 690 249 725 249 l 635 249 l 635 78 q 613 23 635 46 q 558 0 590 0 q 503 23 526 0 q 481 78 481 46 l 481 249 l 376 249 l 376 78 q 353 23 376 46 q 299 0 331 0 q 244 23 267 0 q 221 78 221 46 l 221 249 l 165 249 q 107 273 131 249 q 83 332 83 297 l 83 542 l 125 361 q 169 308 133 326 q 246 300 204 290 q 312 342 288 311 q 326 408 336 374 l 244 760 q 201 814 236 796 q 124 821 165 832 q 83 803 99 814 l 83 833 l 774 833 m 460 644 l 393 644 l 393 331 l 460 331 l 460 644 m 519 671 l 464 744 l 388 744 l 333 671 l 394 671 l 425 722 l 426 722 l 458 671 l 519 671 z "},"î":{"ha":1026,"x_min":64,"x_max":963,"o":"m 949 488 q 952 428 963 458 q 913 383 942 399 q 854 380 885 369 q 808 418 824 390 l 807 424 l 807 771 l 949 488 m 72 697 q 81 756 64 729 q 129 790 97 783 q 188 781 161 797 q 221 732 214 764 l 296 417 q 287 358 303 385 q 239 325 271 332 q 180 333 207 317 q 146 382 153 350 l 72 697 m 661 1089 q 746 983 714 1044 q 778 851 778 922 l 79 851 q 99 956 79 907 q 152 1047 118 1006 q 233 1117 186 1088 q 336 1160 281 1146 l 310 1246 q 318 1258 307 1256 q 331 1251 328 1263 l 357 1165 q 392 1169 375 1168 q 429 1171 410 1171 q 544 1153 490 1171 q 643 1103 599 1135 l 706 1190 q 722 1193 711 1201 q 724 1178 728 1188 l 661 1089 m 224 958 q 244 967 236 958 q 253 988 253 976 q 244 1009 253 1000 q 224 1018 236 1018 q 203 1009 213 1018 q 194 988 194 1000 q 203 967 194 976 q 224 958 213 958 m 400 915 q 420 924 411 915 q 429 944 429 933 q 420 965 429 956 q 400 974 411 974 q 378 965 388 974 q 369 944 369 956 q 378 924 369 933 q 400 915 388 915 m 775 833 l 775 332 q 751 273 775 297 q 692 249 726 249 l 636 249 l 636 78 q 613 23 636 46 q 558 0 590 0 q 503 23 526 0 q 481 78 481 46 l 481 249 l 376 249 l 376 78 q 354 23 376 46 q 300 0 332 0 q 244 23 268 0 q 221 78 221 46 l 221 249 l 165 249 q 107 273 131 249 q 83 332 83 297 l 83 542 l 125 363 q 169 308 133 326 q 246 301 204 290 q 313 344 289 313 q 326 410 336 375 l 244 761 q 201 815 236 797 q 124 822 165 832 q 83 804 103 817 l 83 833 l 775 833 m 456 556 l 397 556 l 397 331 l 456 331 l 456 556 m 519 585 l 467 660 l 388 660 l 333 585 l 394 585 l 428 638 l 460 585 l 519 585 z "},"ñ":{"ha":1200,"x_min":69,"x_max":1131,"o":"m 69 771 q 92 825 69 803 q 147 847 115 847 q 201 825 179 847 q 224 771 224 803 l 224 446 q 201 392 224 414 q 147 369 179 369 q 92 392 115 369 q 69 446 69 414 l 69 771 m 1131 446 q 1108 392 1131 414 q 1054 369 1086 369 q 999 392 1022 369 q 976 446 976 414 l 976 771 q 999 825 976 803 q 1054 847 1022 847 q 1108 825 1086 847 q 1131 771 1131 803 l 1131 446 m 839 1147 l 754 1147 l 444 1147 l 358 1147 l 403 1397 l 599 1385 l 794 1397 l 839 1147 m 864 1069 q 926 974 904 1026 q 949 861 949 921 l 251 861 q 274 974 251 921 q 336 1069 296 1026 l 864 1069 m 442 988 q 463 996 454 988 q 471 1015 471 1004 q 463 1036 471 1028 q 442 1044 454 1044 q 421 1036 429 1044 q 413 1015 413 1028 q 421 996 413 1004 q 442 988 429 988 m 758 988 q 779 996 771 988 q 788 1015 788 1004 q 779 1036 788 1028 q 758 1044 771 1044 q 739 1036 747 1044 q 731 1015 731 1028 q 739 996 731 1004 q 758 988 747 988 m 899 1114 q 910 1107 906 1114 q 915 1092 915 1100 q 909 1076 915 1082 q 886 1069 903 1069 l 282 1069 q 281 1076 285 1069 q 278 1092 278 1082 q 283 1107 278 1100 q 294 1114 288 1114 l 351 1114 l 844 1114 l 899 1114 m 947 833 l 947 332 q 923 273 947 297 q 864 249 899 249 l 807 249 l 807 78 q 785 23 807 46 q 731 0 763 0 q 676 23 699 0 q 653 78 653 46 l 653 249 l 549 249 l 549 78 q 526 23 549 46 q 471 0 503 0 q 416 23 439 0 q 393 78 393 46 l 393 249 l 338 249 q 279 273 303 249 q 256 332 256 297 l 256 833 l 947 833 m 556 647 q 514 574 514 647 l 557 574 q 558 600 557 594 q 568 607 563 607 q 594 593 574 607 q 646 574 625 574 q 688 643 688 574 l 644 643 q 644 630 644 635 q 642 622 643 625 q 635 615 642 615 q 623 619 629 615 q 607 628 617 622 q 556 647 578 647 m 700 453 q 682 531 700 507 q 625 553 664 553 q 606 551 615 553 q 586 544 597 550 q 554 518 569 535 l 553 550 l 501 550 l 501 328 l 557 328 l 557 444 q 572 490 557 471 q 606 510 589 510 q 638 497 629 510 q 643 478 640 490 q 646 446 646 465 l 646 328 l 700 328 l 700 453 z "},"Ñ":{"ha":1201,"x_min":69,"x_max":1132,"o":"m 69 771 q 92 826 69 803 q 147 849 115 849 q 202 826 179 849 q 225 771 225 803 l 225 447 q 202 392 225 415 q 147 369 179 369 q 92 392 115 369 q 69 447 69 415 l 69 771 m 1132 447 q 1109 392 1132 415 q 1054 369 1086 369 q 999 392 1022 369 q 976 447 976 415 l 976 771 q 999 826 976 803 q 1054 849 1022 849 q 1109 826 1086 849 q 1132 771 1132 803 l 1132 447 m 839 1147 l 754 1147 l 446 1147 l 358 1147 l 403 1399 l 600 1386 l 794 1399 l 839 1147 m 864 1071 q 926 975 904 1028 q 949 861 949 922 l 251 861 q 274 975 251 922 q 338 1071 297 1028 l 864 1071 m 443 988 q 463 996 454 988 q 471 1015 471 1004 q 463 1038 471 1029 q 443 1046 454 1046 q 422 1038 431 1046 q 414 1015 414 1029 q 422 996 414 1004 q 443 988 431 988 m 758 988 q 779 996 771 988 q 788 1015 788 1004 q 779 1038 788 1029 q 758 1046 771 1046 q 739 1038 747 1046 q 731 1015 731 1029 q 739 996 731 1004 q 758 988 747 988 m 899 1114 q 917 1092 917 1114 q 886 1071 917 1071 l 283 1071 q 281 1076 285 1071 q 278 1092 278 1082 q 294 1114 278 1114 l 353 1114 l 844 1114 l 899 1114 m 947 833 l 947 332 q 923 274 947 299 q 864 250 899 250 l 807 250 l 807 78 q 785 23 807 46 q 731 0 763 0 q 676 23 699 0 q 653 78 653 46 l 653 250 l 549 250 l 549 78 q 526 23 549 46 q 471 0 503 0 q 417 23 439 0 q 394 78 394 46 l 394 250 l 339 250 q 279 274 303 250 q 256 332 256 299 l 256 833 l 947 833 m 556 736 q 514 664 514 736 l 557 664 q 560 689 557 681 q 567 696 563 696 q 594 683 578 696 q 644 664 622 664 q 686 733 686 664 l 643 733 q 640 711 643 715 q 633 706 639 706 q 606 717 625 706 q 556 736 578 736 m 722 639 l 664 639 l 664 428 l 536 639 l 478 639 l 478 328 l 536 328 l 536 539 l 538 539 l 664 328 l 722 328 l 722 639 z "},"Ë":{"ha":1081,"x_min":68,"x_max":1011,"o":"m 1011 418 q 989 363 1011 386 q 935 340 967 340 q 880 363 903 340 q 857 418 857 386 l 857 742 q 880 796 857 774 q 935 818 903 818 q 989 796 967 818 q 1011 742 1011 774 l 1011 418 m 801 1139 q 929 1024 881 1097 q 978 861 978 950 l 282 861 q 295 947 282 906 q 331 1024 308 988 q 387 1089 354 1060 q 460 1139 419 1118 l 407 1228 q 411 1243 399 1239 q 426 1240 418 1250 l 481 1149 q 551 1172 514 1164 q 629 1181 589 1181 q 707 1172 669 1181 q 781 1149 744 1164 l 833 1242 q 849 1246 839 1253 q 853 1231 860 1240 l 801 1139 m 451 1017 q 474 1025 465 1017 q 482 1044 482 1033 q 474 1065 482 1057 q 451 1074 465 1074 q 432 1065 440 1074 q 424 1044 424 1057 q 432 1025 424 1033 q 451 1017 440 1017 m 669 986 q 689 994 681 986 q 697 1017 697 1003 q 689 1036 697 1028 q 669 1044 681 1044 q 648 1036 657 1044 q 639 1017 639 1028 q 648 994 639 1003 q 669 986 657 986 m 933 314 q 975 322 956 314 q 949 270 972 290 q 893 250 925 250 l 838 250 l 838 78 q 815 23 838 46 q 760 0 792 0 q 705 23 728 0 q 682 78 682 46 l 682 250 l 578 250 l 578 78 q 555 23 578 46 q 500 0 532 0 q 446 23 468 0 q 424 78 424 46 l 424 250 l 367 250 q 308 274 332 250 q 283 332 283 297 l 283 631 l 146 631 q 91 653 114 631 q 68 708 68 676 q 69 714 68 713 l 69 921 l 69 978 q 92 1032 69 1010 q 146 1054 114 1054 q 201 1032 178 1054 q 224 978 224 1010 l 224 921 l 224 881 l 224 785 l 283 785 l 283 833 l 881 833 q 844 803 858 822 q 831 760 831 783 l 831 400 q 860 339 831 364 q 933 314 890 314 m 651 672 l 703 672 l 703 733 l 651 733 l 651 672 m 561 672 l 614 672 l 614 733 l 561 733 l 561 672 m 729 640 l 536 640 l 536 328 l 729 328 l 729 376 l 596 376 l 596 469 l 721 469 l 721 515 l 596 515 l 596 592 l 729 592 l 729 640 z "},"è":{"ha":1281,"x_min":63,"x_max":1211,"o":"m 1211 447 q 1188 392 1211 415 q 1133 369 1165 369 q 1078 392 1101 369 q 1056 447 1056 415 l 1056 771 q 1078 825 1056 803 q 1133 847 1101 847 q 1188 825 1165 847 q 1211 771 1211 803 l 1211 447 m 413 1074 q 424 1017 431 1047 q 392 967 418 986 l 260 879 l 258 881 l 254 878 l 304 801 q 314 742 321 774 q 279 694 307 711 q 221 684 251 678 q 174 718 190 690 l 163 735 l 161 733 l 81 860 q 69 918 63 888 q 104 965 76 949 q 121 974 110 971 l 239 1053 l 240 1051 l 306 1096 q 363 1108 332 1114 q 413 1074 394 1101 m 851 1139 q 981 1024 932 1097 q 1029 861 1029 950 l 332 861 q 332 875 332 868 q 333 889 332 882 l 410 940 q 453 1008 446 965 q 438 1088 461 1050 q 436 1089 438 1088 q 468 1115 451 1103 q 504 1136 485 1126 l 453 1229 q 457 1244 449 1239 q 466 1246 461 1247 q 474 1239 471 1244 l 525 1146 q 681 1181 597 1181 q 759 1172 721 1181 q 831 1149 797 1164 l 885 1242 q 891 1247 886 1246 q 900 1246 896 1249 q 904 1231 910 1242 l 851 1139 m 522 986 q 542 994 533 986 q 550 1015 550 1003 q 542 1037 550 1028 q 522 1046 533 1046 q 501 1037 510 1046 q 493 1015 493 1028 q 501 994 493 1003 q 522 986 510 986 m 839 986 q 859 994 850 986 q 868 1015 868 1003 q 859 1037 868 1028 q 839 1046 850 1046 q 818 1037 826 1046 q 810 1015 810 1028 q 818 994 810 1003 q 839 986 826 986 m 1026 833 l 1026 332 q 1002 274 1026 297 q 943 250 978 250 l 851 250 l 851 78 q 829 23 851 46 q 775 0 807 0 q 721 23 743 0 q 699 78 699 46 l 699 250 l 663 250 l 663 78 q 640 23 663 46 q 586 0 618 0 q 531 23 554 0 q 508 78 508 46 l 508 250 l 418 250 q 358 274 382 250 q 335 332 335 297 l 335 833 l 1026 833 m 619 654 l 685 581 l 736 581 l 690 654 l 619 654 m 783 419 q 784 430 783 425 q 785 440 785 435 q 756 525 785 496 q 681 554 728 554 q 601 524 631 554 q 572 439 572 492 q 604 356 572 388 q 685 325 635 325 q 727 328 707 325 q 767 342 747 332 l 754 381 q 692 364 722 364 q 647 379 667 364 q 628 419 629 394 l 783 419 m 681 514 q 718 500 706 514 q 732 457 732 483 l 628 457 q 643 499 628 486 q 681 514 657 514 z "},"Ò":{"ha":1479,"x_min":63,"x_max":1417,"o":"m 1401 514 q 1406 454 1417 485 q 1367 408 1396 424 q 1309 403 1339 393 q 1264 440 1279 413 l 1113 728 q 1108 786 1097 756 q 1147 833 1118 817 q 1205 838 1175 847 q 1250 800 1235 829 l 1401 514 m 229 800 q 274 838 244 829 q 332 833 304 847 q 372 786 361 817 q 367 728 382 756 l 215 440 q 170 403 200 413 q 113 408 140 393 q 73 454 83 424 q 78 514 63 485 l 229 800 m 914 1138 q 1041 1024 993 1097 q 1089 861 1089 951 q 922 883 1008 869 q 740 897 836 897 q 652 893 693 897 q 570 883 611 889 q 486 872 529 878 q 393 861 443 865 q 442 1026 393 953 q 572 1139 490 1099 l 521 1233 q 519 1241 518 1236 q 525 1249 521 1246 q 542 1243 535 1254 l 592 1150 q 740 1181 664 1181 q 893 1150 821 1181 l 946 1242 q 952 1247 947 1246 q 961 1246 957 1249 q 967 1231 972 1242 l 914 1138 m 642 1074 q 661 1083 653 1074 q 669 1103 669 1092 q 661 1124 669 1115 q 642 1133 653 1133 q 620 1124 628 1133 q 613 1103 613 1115 q 620 1083 613 1092 q 642 1074 628 1074 m 842 1074 q 862 1083 854 1074 q 869 1103 869 1092 q 862 1124 869 1115 q 842 1133 854 1133 q 821 1124 829 1133 q 813 1103 813 1115 q 821 1083 813 1092 q 842 1074 829 1074 m 756 782 q 924 794 846 783 q 1086 835 1003 804 l 1086 332 q 1063 273 1086 297 q 1006 249 1039 249 l 947 249 l 947 78 q 924 23 947 46 q 869 0 901 0 q 815 23 838 0 q 793 78 793 46 l 793 249 l 689 249 l 689 78 q 667 23 689 46 q 613 0 644 0 q 557 23 581 0 q 533 78 533 46 l 533 249 l 478 249 q 420 273 444 249 q 396 332 396 297 l 396 835 q 569 792 481 803 q 756 782 658 781 m 660 740 l 726 667 l 778 667 l 732 740 l 660 740 m 851 368 q 894 485 894 414 q 851 601 894 556 q 739 644 808 644 q 624 601 667 644 q 581 485 581 556 q 624 368 581 414 q 739 325 669 325 q 851 368 806 325 m 739 596 q 807 567 783 596 q 832 485 832 539 q 807 403 832 432 q 739 375 783 375 q 668 403 694 375 q 643 485 643 432 q 668 567 643 539 q 739 596 693 596 z "},"ò":{"ha":1479,"x_min":64,"x_max":1417,"o":"m 1401 513 q 1407 453 1417 483 q 1368 408 1397 424 q 1310 403 1340 393 q 1264 440 1279 413 l 1113 728 q 1107 787 1097 756 q 1146 833 1117 818 q 1204 838 1174 849 q 1250 799 1235 828 l 1401 513 m 229 799 q 275 838 244 828 q 333 833 306 849 q 372 787 363 818 q 367 728 382 756 l 215 440 q 169 403 200 413 q 111 408 139 393 q 73 453 82 424 q 79 513 64 483 l 229 799 m 914 1139 q 1041 1025 993 1099 q 1089 861 1089 951 q 922 883 1008 869 q 740 897 836 897 q 652 893 693 897 q 570 883 611 889 q 486 872 529 878 q 393 861 443 865 q 442 1026 393 953 q 571 1140 490 1099 l 521 1233 q 519 1241 518 1236 q 525 1249 521 1246 q 542 1243 535 1256 l 592 1150 q 740 1181 664 1181 q 893 1150 821 1181 l 946 1242 q 961 1246 951 1253 q 967 1231 972 1242 l 914 1139 m 642 1074 q 661 1082 653 1074 q 669 1103 669 1090 q 661 1124 669 1115 q 642 1133 653 1133 q 620 1124 629 1133 q 611 1103 611 1115 q 620 1082 611 1090 q 642 1074 629 1074 m 842 1074 q 862 1082 853 1074 q 871 1103 871 1090 q 862 1124 871 1115 q 842 1133 853 1133 q 821 1124 829 1133 q 813 1103 813 1115 q 821 1082 813 1090 q 842 1074 829 1074 m 738 513 q 778 494 764 513 q 793 440 793 475 q 778 386 793 404 q 738 367 763 367 q 697 386 713 367 q 682 440 682 404 q 697 494 682 475 q 738 513 711 513 m 756 782 q 924 794 846 783 q 1086 835 1003 804 l 1086 332 q 1063 273 1086 297 q 1006 249 1039 249 l 949 249 l 949 78 q 926 23 949 46 q 871 0 903 0 q 817 23 839 0 q 794 78 794 46 l 794 249 l 689 249 l 689 78 q 666 23 689 46 q 611 0 643 0 q 556 23 579 0 q 533 78 533 46 l 533 249 l 478 249 q 419 273 443 249 q 394 332 394 297 l 394 835 q 570 792 482 803 q 756 782 658 781 m 661 656 l 726 582 l 778 582 l 732 656 l 661 656 m 818 356 q 849 440 849 389 q 818 525 849 492 q 738 556 788 556 q 657 525 686 556 q 626 440 626 492 q 657 356 626 389 q 738 325 688 325 q 818 356 785 325 z "},"ô":{"ha":1144,"x_min":64,"x_max":1081,"o":"m 583 513 q 624 494 611 513 q 635 470 632 483 q 638 440 638 457 q 635 408 638 421 q 624 385 632 394 q 583 367 611 367 q 543 385 557 367 q 528 440 528 404 q 543 494 528 472 q 583 513 557 513 m 1071 819 q 1065 766 1081 792 q 1018 731 1049 740 q 958 732 986 719 q 924 772 931 744 l 913 810 l 913 332 q 888 272 913 296 q 829 249 864 249 l 774 249 l 774 76 q 751 22 774 44 q 696 0 728 0 q 641 22 664 0 q 618 76 618 44 l 618 249 l 514 249 l 514 76 q 491 22 514 44 q 436 0 468 0 q 381 22 404 0 q 358 76 358 44 l 358 249 l 303 249 q 243 272 267 249 q 219 332 219 296 l 219 771 q 183 731 210 743 q 126 731 157 719 q 79 766 94 740 q 71 819 64 792 l 157 1096 q 188 1133 165 1119 q 236 1143 210 1146 q 299 1241 258 1197 q 392 1314 339 1285 l 343 1406 q 347 1424 338 1415 q 365 1418 360 1432 l 417 1324 q 488 1347 451 1339 q 565 1356 525 1356 q 643 1347 606 1356 q 715 1324 681 1339 l 767 1417 q 785 1419 775 1425 q 792 1413 790 1418 q 790 1403 793 1407 l 739 1313 q 834 1240 793 1285 q 894 1140 875 1196 q 951 1135 925 1147 q 986 1096 978 1122 l 1071 819 m 724 1221 q 704 1212 713 1221 q 696 1190 696 1203 q 704 1171 696 1179 q 724 1163 713 1163 q 745 1171 736 1163 q 754 1190 754 1179 q 745 1212 754 1203 q 724 1221 736 1221 m 406 1221 q 386 1212 394 1221 q 378 1190 378 1203 q 386 1171 378 1179 q 406 1163 394 1163 q 428 1171 419 1163 q 436 1190 436 1179 q 428 1212 436 1203 q 406 1221 419 1221 m 664 356 q 694 440 694 389 q 664 524 694 490 q 583 556 635 556 q 501 524 533 556 q 474 440 474 494 q 501 356 474 385 q 583 324 533 324 q 664 356 635 324 m 551 581 l 582 633 l 583 633 l 615 581 l 676 581 l 621 656 l 544 656 l 490 581 l 551 581 m 904 833 l 843 1035 l 301 1035 l 239 833 l 904 833 z "},"Ô":{"ha":1144,"x_min":65,"x_max":1081,"o":"m 585 594 q 653 567 629 594 q 679 485 679 539 q 653 401 679 429 q 585 374 629 374 q 515 401 542 374 q 496 438 501 417 q 490 485 490 458 q 515 567 490 540 q 585 594 542 594 m 1072 818 q 1065 765 1081 790 q 1018 729 1049 739 q 960 732 988 719 q 924 772 932 744 l 913 808 l 913 332 q 889 272 913 296 q 829 249 865 249 l 774 249 l 774 76 q 751 22 774 44 q 696 0 728 0 q 641 22 664 0 q 618 76 618 44 l 618 249 l 515 249 l 515 76 q 492 22 515 44 q 438 0 469 0 q 383 22 406 0 q 360 76 360 44 l 360 249 l 303 249 q 244 272 268 249 q 221 332 221 296 l 221 769 q 184 731 210 743 q 128 729 158 719 q 81 765 96 739 q 72 818 65 790 l 158 1094 q 188 1131 165 1118 q 238 1142 211 1144 q 299 1240 258 1196 q 393 1313 340 1283 l 343 1404 q 349 1422 339 1417 q 367 1417 360 1429 l 418 1322 q 489 1346 451 1338 q 567 1354 526 1354 q 644 1346 607 1354 q 715 1322 681 1338 l 767 1415 q 775 1419 769 1418 q 785 1418 781 1421 q 790 1401 799 1413 l 740 1311 q 834 1239 793 1283 q 896 1139 875 1194 q 953 1133 926 1146 q 986 1094 979 1121 l 1072 818 m 725 1219 q 704 1210 713 1219 q 696 1189 696 1201 q 704 1169 696 1178 q 725 1161 713 1161 q 746 1169 738 1161 q 754 1189 754 1178 q 746 1210 754 1201 q 725 1219 738 1219 m 407 1219 q 388 1210 396 1219 q 379 1189 379 1201 q 388 1169 379 1178 q 407 1161 396 1161 q 428 1169 419 1161 q 438 1189 438 1178 q 428 1210 438 1201 q 407 1219 419 1219 m 699 367 q 740 485 740 410 q 699 601 740 557 q 585 644 653 644 q 471 601 514 644 q 429 485 429 557 q 471 367 429 410 q 585 324 513 324 q 699 367 656 324 m 553 665 l 585 718 l 617 665 l 678 665 l 624 740 l 546 740 l 492 665 l 553 665 m 904 833 l 843 1033 l 303 1033 l 240 833 l 904 833 z "},"Ö":{"ha":1361,"x_min":63,"x_max":1297,"o":"m 183 788 q 224 832 196 818 q 283 835 253 846 q 327 794 314 824 q 329 735 340 765 l 219 432 q 178 388 207 401 q 119 386 150 375 q 76 426 89 397 q 74 485 63 454 l 183 788 m 1290 469 q 1281 411 1297 438 q 1232 378 1264 385 q 1173 388 1200 371 q 1139 436 1146 404 l 1068 750 q 1077 809 1061 782 q 1125 843 1093 836 q 1184 833 1157 850 q 1218 785 1211 815 l 1290 469 m 629 1232 q 767 1234 700 1246 q 888 1189 833 1222 q 981 1103 943 1156 q 1032 988 1019 1051 l 351 853 q 356 988 338 922 q 418 1108 374 1054 l 328 1169 q 324 1186 315 1175 q 340 1189 332 1197 l 433 1126 q 581 1219 492 1189 l 558 1315 q 559 1324 556 1319 q 567 1329 563 1328 q 582 1321 576 1332 l 604 1225 q 617 1229 611 1228 q 629 1232 622 1231 m 528 1092 q 529 1100 531 1094 q 524 1108 528 1106 q 506 1106 510 1114 l 467 1035 q 472 1018 461 1026 q 490 1022 486 1013 l 528 1092 m 808 1157 q 799 1172 811 1169 l 719 1188 q 713 1185 717 1188 q 707 1175 708 1182 q 717 1160 704 1163 l 794 1146 q 808 1157 806 1143 m 681 596 q 751 568 725 596 q 776 485 776 536 q 751 404 776 433 q 681 375 724 375 q 613 404 638 375 q 586 485 586 435 q 613 568 586 535 q 681 596 636 596 m 1043 833 l 1043 333 q 1019 276 1043 300 q 961 251 994 251 l 906 251 l 906 81 q 883 26 906 49 q 828 3 860 3 q 774 26 796 3 q 751 81 751 49 l 751 251 l 653 251 q 651 243 653 246 l 615 61 q 583 13 608 31 q 525 1 557 -6 q 476 35 493 8 q 465 93 458 61 l 496 251 l 436 251 q 379 276 403 251 q 356 333 356 300 l 356 833 l 1043 833 m 700 674 l 753 674 l 753 733 l 700 733 l 700 674 m 610 674 l 663 674 l 663 733 l 610 733 l 610 674 m 796 368 q 838 485 838 411 q 796 603 838 558 q 681 646 753 646 q 568 603 610 646 q 526 485 526 558 q 568 368 526 411 q 681 326 610 326 q 796 368 751 326 z "},"ö":{"ha":1361,"x_min":63,"x_max":1297,"o":"m 183 788 q 224 832 196 818 q 283 835 253 846 q 327 794 314 824 q 329 735 340 765 l 219 432 q 178 388 207 401 q 119 386 150 375 q 76 426 89 397 q 74 485 63 454 l 183 788 m 1290 469 q 1281 411 1297 438 q 1232 378 1264 385 q 1173 388 1200 371 q 1139 436 1146 404 l 1068 750 q 1077 809 1061 782 q 1125 843 1093 836 q 1184 833 1157 850 q 1218 785 1211 815 l 1290 469 m 629 1232 q 767 1234 700 1246 q 888 1189 833 1222 q 981 1103 943 1156 q 1032 988 1019 1051 l 351 853 q 356 988 338 922 q 418 1108 374 1054 l 328 1169 q 324 1186 315 1175 q 340 1189 332 1197 l 433 1126 q 581 1219 492 1189 l 558 1315 q 559 1324 556 1319 q 567 1329 563 1328 q 582 1321 576 1332 l 604 1225 q 617 1229 611 1228 q 629 1232 622 1231 m 528 1092 q 529 1100 531 1094 q 524 1108 528 1106 q 506 1106 510 1114 l 467 1035 q 472 1018 461 1026 q 490 1022 486 1013 l 528 1092 m 808 1157 q 799 1172 811 1169 l 719 1188 q 713 1185 717 1188 q 707 1175 708 1182 q 717 1160 704 1163 l 794 1146 q 808 1157 806 1143 m 681 514 q 721 496 707 514 q 736 442 736 476 q 721 386 736 403 q 681 367 708 367 q 642 386 654 367 q 626 442 626 403 q 642 496 626 476 q 681 514 656 514 m 1043 833 l 1043 333 q 1019 276 1043 300 q 961 251 994 251 l 906 251 l 906 81 q 883 26 906 49 q 828 3 860 3 q 774 26 796 3 q 751 81 751 49 l 751 251 l 653 251 q 651 243 653 246 l 615 61 q 583 13 608 31 q 525 1 557 -6 q 476 35 493 8 q 465 93 458 61 l 496 251 l 436 251 q 379 276 403 251 q 356 333 356 300 l 356 833 l 1043 833 m 700 589 l 753 589 l 753 649 l 700 649 l 700 589 m 610 589 l 663 589 l 663 649 l 610 649 l 610 589 m 761 357 q 792 442 792 388 q 761 525 792 494 q 681 557 732 557 q 601 525 631 557 q 571 442 571 494 q 601 357 571 388 q 681 326 631 326 q 761 357 732 326 z "},"Ø":{"ha":1200,"x_min":69,"x_max":1131,"o":"m 69 771 q 92 826 69 803 q 147 849 115 849 q 202 826 179 849 q 225 771 225 803 l 225 447 q 202 392 225 415 q 147 369 179 369 q 92 392 115 369 q 69 447 69 415 l 69 771 m 1131 447 q 1108 392 1131 415 q 1053 369 1085 369 q 999 392 1021 369 q 976 447 976 415 l 976 771 q 999 826 976 803 q 1053 849 1021 849 q 1108 826 1085 849 q 1131 771 1131 803 l 1131 447 m 772 857 q 771 828 772 843 q 767 801 769 814 l 767 799 q 764 788 764 790 l 764 790 l 763 790 q 754 789 758 789 q 746 788 750 789 l 744 788 q 683 797 714 788 q 633 824 651 807 q 613 817 625 817 q 592 821 601 817 q 590 822 590 822 q 588 824 589 822 l 586 822 q 568 811 575 814 q 517 792 546 799 q 461 789 488 786 q 457 790 458 789 q 449 836 451 807 q 453 897 446 871 l 453 896 l 453 897 q 522 897 483 904 q 586 869 561 889 q 610 873 597 872 q 635 871 624 874 q 683 892 654 885 q 739 900 711 900 q 753 899 747 900 q 767 897 760 899 l 768 896 q 772 861 772 879 l 772 858 l 772 857 m 793 860 l 793 874 l 789 917 q 776 918 785 918 q 758 919 767 918 q 736 921 747 919 q 683 913 706 919 q 638 888 661 907 q 610 891 625 890 q 585 888 596 892 q 513 918 557 911 q 436 917 469 925 l 433 915 q 435 916 435 915 q 436 917 435 917 q 431 890 433 904 q 428 860 429 875 l 253 860 q 301 1024 253 950 q 428 1139 349 1097 l 376 1232 q 382 1247 371 1242 q 397 1242 392 1251 l 447 1147 q 521 1172 483 1163 q 599 1181 558 1181 q 678 1172 640 1181 q 749 1149 715 1164 l 803 1243 q 818 1249 808 1254 q 822 1233 826 1242 l 769 1140 q 899 1026 850 1100 q 947 860 947 951 l 793 860 m 442 988 q 463 996 454 988 q 471 1015 471 1004 q 463 1037 471 1028 q 442 1046 454 1046 q 421 1037 429 1046 q 413 1015 413 1028 q 421 996 413 1004 q 442 988 429 988 m 758 988 q 779 996 769 988 q 789 1015 789 1004 q 779 1037 789 1028 q 758 1046 769 1046 q 738 1037 747 1046 q 729 1015 729 1028 q 738 996 729 1004 q 758 988 747 988 m 681 608 q 692 578 689 594 q 694 543 694 563 q 669 461 694 488 q 600 432 644 432 q 557 442 575 432 l 681 608 m 946 833 l 946 332 q 922 273 946 297 q 864 249 897 249 l 807 249 l 807 78 q 785 23 807 46 q 731 0 763 0 q 676 23 699 0 q 653 78 653 46 l 653 249 l 547 249 l 547 78 q 525 23 547 46 q 471 0 503 0 q 416 23 439 0 q 393 78 393 46 l 393 249 l 336 249 q 278 273 301 249 q 254 332 254 297 l 254 833 l 426 833 q 428 831 428 833 q 433 798 429 813 q 439 769 436 783 q 449 769 439 769 q 475 768 460 768 q 508 770 490 768 q 539 778 525 772 q 554 785 542 779 q 574 794 567 792 q 585 806 585 801 q 592 801 585 803 q 610 799 600 799 q 621 799 617 797 q 633 803 625 800 q 667 784 643 792 q 717 772 692 776 q 762 767 742 768 q 785 765 782 765 l 785 764 q 788 782 786 767 q 792 800 790 797 l 792 833 l 946 833 m 714 426 q 756 543 756 468 q 717 657 756 614 l 740 688 l 699 719 l 676 686 q 641 699 660 696 q 600 703 622 703 q 486 660 529 703 q 444 543 444 615 q 483 429 444 475 l 461 397 l 501 368 l 525 399 q 560 387 542 392 q 600 382 579 382 q 714 426 672 382 m 600 654 q 644 644 626 654 l 521 478 q 506 543 506 503 q 531 625 506 596 q 600 654 557 654 z "},"ø":{"ha":1200,"x_min":69,"x_max":1131,"o":"m 69 771 q 92 826 69 803 q 146 849 114 849 q 201 826 178 849 q 224 771 224 803 l 224 446 q 201 392 224 414 q 146 369 178 369 q 92 392 114 369 q 69 446 69 414 l 69 771 m 1131 446 q 1108 392 1131 414 q 1054 369 1086 369 q 999 392 1022 369 q 976 446 976 414 l 976 771 q 999 826 976 803 q 1054 849 1022 849 q 1108 826 1086 849 q 1131 771 1131 803 l 1131 446 m 772 858 q 771 828 772 843 q 767 801 769 814 q 765 797 765 800 q 764 789 764 793 l 764 790 q 744 789 757 789 q 683 797 715 788 q 632 824 651 807 q 590 821 615 810 q 588 824 588 824 l 586 822 q 568 811 578 815 q 515 792 544 797 q 461 789 486 786 q 459 790 460 789 q 457 790 458 790 q 451 811 453 800 q 449 835 450 822 q 453 897 446 871 l 453 894 l 453 897 q 521 896 482 904 q 588 869 560 888 q 610 872 597 872 q 633 869 624 872 q 683 892 654 885 q 739 900 713 900 l 740 900 q 753 899 747 900 q 767 897 760 899 l 767 894 q 771 861 771 882 l 772 860 l 772 858 m 793 860 l 793 872 l 788 918 q 776 920 785 919 q 758 921 767 921 l 736 921 q 683 914 706 921 q 636 888 660 907 q 611 891 625 890 q 586 889 597 892 q 513 919 557 913 q 435 917 469 925 l 432 915 q 435 917 433 917 q 431 890 432 906 q 429 860 431 875 l 251 860 q 300 1024 251 950 q 428 1139 349 1099 l 376 1232 q 381 1247 372 1243 q 396 1243 392 1253 l 449 1149 q 521 1172 482 1164 q 600 1181 560 1181 q 749 1150 679 1181 l 803 1244 q 818 1249 807 1254 q 822 1233 826 1240 l 768 1140 q 899 1025 850 1099 q 949 860 949 951 l 793 860 m 442 988 q 462 996 453 988 q 471 1015 471 1004 q 462 1037 471 1028 q 442 1046 453 1046 q 420 1037 429 1046 q 411 1015 411 1028 q 420 996 411 1004 q 442 988 429 988 m 758 988 q 779 996 771 988 q 788 1015 788 1004 q 779 1037 788 1028 q 758 1046 771 1046 q 738 1037 747 1046 q 729 1015 729 1028 q 738 996 729 1004 q 758 988 747 988 m 647 536 q 654 499 654 518 q 639 443 654 463 q 599 424 624 424 q 571 432 583 424 l 647 536 m 599 571 q 626 564 615 571 l 549 460 q 544 499 544 474 q 558 553 544 533 q 599 571 574 571 m 946 833 l 946 331 q 922 272 946 296 q 863 249 897 249 l 807 249 l 807 76 q 784 22 807 44 q 729 0 761 0 q 674 22 697 0 q 651 76 651 44 l 651 249 l 549 249 l 549 76 q 526 22 549 44 q 471 0 503 0 q 415 22 439 0 q 392 76 392 44 l 392 249 l 336 249 q 278 272 303 249 q 254 331 254 296 l 254 833 l 428 833 l 428 831 q 432 798 429 813 q 439 769 435 783 q 449 769 439 769 q 475 768 460 768 q 508 770 490 768 q 539 776 525 772 q 555 785 542 779 q 572 793 568 790 q 582 801 579 797 q 586 806 585 806 q 593 801 586 803 q 610 797 600 799 q 621 798 617 797 q 632 803 625 799 q 667 784 643 792 q 717 772 692 776 q 761 767 742 768 q 783 767 781 767 l 783 764 q 787 781 785 767 q 790 800 789 796 q 791 810 790 801 q 792 833 792 819 l 946 833 m 679 414 q 708 499 708 443 q 682 579 708 549 l 699 603 l 669 624 l 654 600 q 599 614 631 614 q 518 582 547 614 q 489 499 489 553 q 517 415 489 444 l 499 393 l 528 372 l 543 394 q 599 382 568 382 q 679 414 650 382 z "},"Û":{"ha":1199,"x_min":69,"x_max":1129,"o":"m 69 771 q 92 825 69 803 q 146 847 114 847 q 201 825 178 847 q 224 771 224 803 l 224 447 q 201 392 224 415 q 146 369 178 369 q 92 392 114 369 q 69 447 69 415 l 69 771 m 1129 447 q 1106 392 1129 415 q 1051 369 1083 369 q 997 392 1019 369 q 975 447 975 415 l 975 771 q 997 825 975 803 q 1051 847 1019 847 q 1106 825 1083 847 q 1129 771 1129 803 l 1129 447 m 768 1139 q 898 1025 849 1099 q 947 860 947 951 l 251 860 q 299 1024 251 950 q 426 1138 347 1097 l 375 1231 q 379 1246 369 1240 q 393 1242 389 1250 l 446 1146 q 519 1170 481 1161 q 599 1179 557 1179 q 749 1149 676 1179 l 801 1242 q 817 1246 806 1250 q 821 1231 826 1242 l 768 1139 m 458 986 q 478 994 469 986 q 486 1015 486 1003 q 478 1035 486 1026 q 458 1044 469 1044 q 437 1035 446 1044 q 428 1015 428 1026 q 437 994 428 1003 q 458 986 446 986 m 665 963 l 533 963 l 599 913 l 665 963 m 665 969 l 599 1021 l 533 969 l 665 969 m 740 986 q 760 994 751 986 q 769 1015 769 1003 q 760 1035 769 1026 q 740 1044 751 1044 q 719 1035 728 1044 q 711 1015 711 1026 q 719 994 711 1003 q 740 986 728 986 m 944 833 l 944 332 q 920 273 944 297 q 863 249 896 249 l 806 249 l 806 78 q 783 23 806 46 q 729 0 761 0 q 674 23 697 0 q 651 78 651 46 l 651 249 l 547 249 l 547 78 q 524 23 547 46 q 469 0 501 0 q 415 23 438 0 q 392 78 392 46 l 392 249 l 336 249 q 277 273 301 249 q 253 332 253 297 l 253 833 l 944 833 m 501 667 l 561 667 l 593 719 l 594 719 l 625 667 l 686 667 l 632 740 l 556 740 l 501 667 m 714 642 l 656 642 l 656 451 q 594 375 656 375 q 533 451 533 375 l 533 642 l 472 642 l 472 456 q 503 358 472 390 q 594 325 533 325 q 683 358 651 325 q 714 456 714 390 l 714 642 z "},"û":{"ha":1200,"x_min":69,"x_max":1131,"o":"m 69 771 q 92 826 69 803 q 146 849 114 849 q 201 826 178 849 q 224 771 224 803 l 224 447 q 201 392 224 415 q 146 369 178 369 q 92 392 114 369 q 69 447 69 415 l 69 771 m 1131 447 q 1108 392 1131 415 q 1053 369 1085 369 q 999 392 1021 369 q 976 447 976 415 l 976 771 q 999 826 976 803 q 1053 849 1021 849 q 1108 826 1085 849 q 1131 771 1131 803 l 1131 447 m 768 1140 q 899 1026 850 1099 q 949 861 949 953 l 251 861 q 300 1024 251 951 q 428 1139 349 1097 l 375 1232 q 379 1247 371 1243 q 393 1243 390 1253 l 447 1147 q 519 1172 481 1163 q 600 1181 558 1181 q 749 1150 679 1181 l 801 1243 q 818 1247 806 1251 q 821 1232 826 1242 l 768 1140 m 458 986 q 478 995 469 986 q 488 1017 488 1004 q 478 1036 488 1028 q 458 1044 469 1044 q 438 1036 446 1044 q 429 1017 429 1028 q 438 995 429 1004 q 458 986 446 986 m 665 964 l 533 964 l 600 913 l 665 964 m 665 971 l 600 1022 l 533 971 l 665 971 m 742 986 q 761 995 753 986 q 769 1017 769 1004 q 761 1036 769 1028 q 742 1044 753 1044 q 719 1036 728 1044 q 711 1017 711 1028 q 719 995 711 1004 q 742 986 728 986 m 946 833 l 946 332 q 922 273 946 297 q 863 249 897 249 l 806 249 l 806 78 q 783 23 806 46 q 729 0 761 0 q 674 23 697 0 q 651 78 651 46 l 651 249 l 547 249 l 547 78 q 524 23 547 46 q 469 0 501 0 q 415 23 438 0 q 392 78 392 46 l 392 249 l 336 249 q 278 273 303 249 q 254 332 254 297 l 254 833 l 946 833 m 503 582 l 564 582 l 594 635 l 596 635 l 626 582 l 688 582 l 633 656 l 557 656 l 503 582 m 690 553 l 636 553 l 636 435 q 621 389 636 408 q 586 369 601 369 q 558 381 567 369 q 550 419 550 390 l 550 553 l 496 553 l 496 414 q 513 346 496 368 q 567 325 531 325 q 606 335 586 325 q 638 361 622 344 l 639 329 l 690 329 l 690 553 z "},"Ä":{"ha":1200,"x_min":69,"x_max":1131,"o":"m 69 771 q 92 825 69 803 q 147 847 115 847 q 201 825 179 847 q 224 771 224 803 l 224 446 q 201 391 224 414 q 147 368 179 368 q 92 391 115 368 q 69 446 69 414 l 69 771 m 1131 446 q 1108 391 1131 414 q 1053 368 1085 368 q 998 391 1021 368 q 975 446 975 414 l 975 771 q 998 825 975 803 q 1053 847 1021 847 q 1108 825 1085 847 q 1131 771 1131 803 l 1131 446 m 921 983 q 949 861 949 924 l 251 861 q 279 988 251 928 q 342 977 310 979 q 411 978 375 975 q 484 984 451 981 q 543 993 517 988 q 586 1006 567 1000 q 638 1028 606 1011 l 676 1056 q 742 1008 696 1029 q 850 979 789 986 q 884 977 865 976 q 921 983 903 978 m 458 917 q 478 926 469 917 q 488 946 488 935 q 478 967 488 958 q 458 975 469 975 q 438 967 446 975 q 429 946 429 958 q 438 926 429 935 q 458 917 446 917 m 758 919 q 780 928 771 919 q 789 947 789 936 q 780 968 789 960 q 758 976 771 976 q 739 968 747 976 q 731 947 731 960 q 739 928 731 936 q 758 919 747 919 m 914 1114 q 926 1090 919 1104 q 939 1063 932 1076 q 953 1028 946 1047 q 928 1010 943 1017 q 897 1001 914 1004 q 864 997 881 997 q 835 999 847 997 q 737 1031 776 1004 q 679 1081 697 1057 q 636 1053 653 1065 q 596 1035 619 1042 q 547 1021 572 1028 q 485 1008 521 1014 q 426 1003 460 1006 q 358 1001 392 1000 q 294 1008 324 1001 q 249 1028 264 1014 q 269 1081 258 1056 q 292 1124 279 1103 q 317 1161 304 1146 q 363 1205 339 1185 q 406 1236 388 1225 q 502 1278 450 1265 q 601 1290 554 1292 q 628 1290 621 1289 q 651 1283 636 1290 q 649 1290 650 1286 q 647 1297 649 1294 q 640 1323 642 1313 q 643 1336 639 1333 q 653 1328 647 1338 q 664 1303 658 1318 q 667 1291 667 1296 q 669 1281 668 1286 l 672 1281 q 690 1294 679 1288 q 713 1310 703 1306 q 726 1311 724 1314 q 722 1299 729 1308 q 701 1281 715 1290 q 699 1278 700 1279 q 696 1276 697 1278 q 714 1273 704 1275 q 731 1267 724 1271 q 768 1248 743 1260 q 819 1214 793 1236 q 879 1156 853 1188 q 914 1114 906 1125 m 638 447 l 554 447 l 594 586 l 638 447 m 946 833 l 946 331 q 922 273 946 297 q 864 249 897 249 l 807 249 l 807 78 q 785 23 807 46 q 731 0 763 0 q 675 23 697 0 q 653 78 653 46 l 653 249 l 547 249 l 547 78 q 525 23 547 46 q 471 0 503 0 q 416 23 439 0 q 393 78 393 46 l 393 249 l 336 249 q 278 273 303 249 q 254 331 254 297 l 254 833 l 946 833 m 615 671 l 668 671 l 668 732 l 615 732 l 615 671 m 525 671 l 578 671 l 578 732 l 525 732 l 525 671 m 738 328 l 631 639 l 564 639 l 457 328 l 518 328 l 542 401 l 651 401 l 674 328 l 738 328 z "},"ä":{"ha":1200,"x_min":69,"x_max":1131,"o":"m 69 771 q 92 826 69 803 q 147 849 115 849 q 202 826 179 849 q 225 771 225 803 l 225 447 q 202 392 225 415 q 147 369 179 369 q 92 392 115 369 q 69 447 69 415 l 69 771 m 1131 447 q 1108 392 1131 415 q 1053 369 1085 369 q 998 392 1021 369 q 975 447 975 415 l 975 771 q 998 826 975 803 q 1053 849 1021 849 q 1108 826 1085 849 q 1131 771 1131 803 l 1131 447 m 921 983 q 949 861 949 924 l 251 861 q 279 988 251 928 q 342 978 310 981 q 411 979 375 976 q 544 994 489 981 q 588 1006 568 1000 q 638 1029 607 1011 l 676 1056 q 742 1008 694 1029 q 850 979 789 986 q 884 978 865 978 q 921 983 903 979 m 460 917 q 479 926 471 917 q 488 946 488 935 q 479 967 488 958 q 460 976 471 976 q 438 967 447 976 q 429 946 429 958 q 438 926 429 935 q 460 917 447 917 m 758 919 q 780 928 771 919 q 789 947 789 936 q 780 969 789 960 q 758 978 771 978 q 739 969 747 978 q 731 947 731 960 q 739 928 731 936 q 758 919 747 919 m 914 1114 q 926 1090 919 1104 q 939 1063 932 1076 q 953 1029 946 1047 q 928 1011 943 1018 q 897 1001 914 1004 q 864 998 881 999 q 835 999 847 997 q 736 1031 776 1004 q 679 1082 696 1058 q 636 1053 653 1065 q 597 1035 619 1042 q 547 1021 574 1028 q 485 1010 521 1014 q 427 1003 461 1006 q 358 1001 393 1000 q 294 1008 324 1003 q 249 1029 264 1014 q 269 1082 258 1057 q 292 1125 279 1103 q 317 1161 304 1147 q 365 1206 340 1186 q 407 1236 389 1225 q 502 1278 450 1265 q 601 1290 554 1292 q 628 1291 621 1290 q 651 1285 635 1292 q 649 1291 650 1288 q 646 1299 647 1294 q 640 1324 642 1314 q 643 1338 639 1335 q 652 1329 646 1339 q 664 1304 658 1319 q 667 1292 667 1297 q 669 1282 668 1288 l 672 1282 q 690 1296 678 1288 q 713 1310 703 1306 q 726 1311 724 1314 q 722 1300 729 1308 q 700 1282 715 1292 q 696 1278 700 1282 q 713 1274 704 1276 q 731 1268 722 1271 q 768 1249 743 1261 q 819 1215 793 1238 q 879 1157 853 1189 q 914 1114 906 1125 m 564 422 q 615 433 579 433 l 633 433 l 633 419 q 617 379 633 396 q 575 364 599 364 q 554 372 560 364 q 546 393 546 378 q 564 422 546 413 m 946 833 l 946 332 q 922 273 946 297 q 864 249 897 249 l 807 249 l 807 78 q 785 23 807 46 q 731 0 763 0 q 675 23 697 0 q 653 78 653 46 l 653 249 l 549 249 l 549 78 q 526 23 549 46 q 471 0 503 0 q 416 23 439 0 q 393 78 393 46 l 393 249 l 336 249 q 278 273 303 249 q 254 332 254 297 l 254 833 l 946 833 m 617 586 l 668 586 l 668 647 l 617 647 l 617 586 m 526 586 l 579 586 l 579 647 l 526 647 l 526 586 m 696 328 q 690 358 692 343 q 689 388 689 372 l 689 469 q 665 535 689 515 q 593 554 643 554 q 506 535 549 554 l 514 493 q 592 513 550 513 q 625 503 615 513 q 633 472 633 492 l 633 471 l 615 471 q 525 449 556 471 q 493 389 493 425 q 513 340 493 360 q 561 324 529 324 q 606 333 586 324 q 624 344 617 338 q 638 360 631 351 l 639 360 q 641 343 640 351 q 643 328 642 335 l 696 328 z "},"Á":{"ha":957,"x_min":64,"x_max":896,"o":"m 71 1003 q 82 1060 64 1035 q 132 1093 100 1086 q 190 1081 164 1099 q 222 1031 217 1063 l 279 711 q 267 653 286 679 q 218 621 249 628 q 160 635 186 617 q 126 685 133 653 l 71 1003 m 644 979 q 657 1037 639 1011 q 707 1069 675 1063 q 765 1056 739 1075 q 797 1006 790 1038 l 854 689 q 853 658 857 672 q 842 631 850 643 q 820 609 833 618 q 792 597 807 600 q 734 610 760 592 q 701 660 708 628 l 644 979 m 749 1194 q 858 1064 821 1143 q 885 896 896 985 l 846 901 l 824 1031 q 782 1085 817 1065 q 703 1096 747 1104 q 632 1058 658 1089 q 613 993 606 1028 l 624 932 l 261 982 l 249 1054 q 240 1075 246 1065 q 228 1093 235 1085 q 303 1183 257 1144 q 408 1242 350 1222 l 367 1343 q 374 1358 361 1353 q 389 1351 383 1364 l 432 1250 q 505 1263 467 1260 q 583 1260 543 1265 q 728 1208 661 1250 l 793 1297 q 801 1301 796 1300 q 810 1297 807 1301 q 813 1281 821 1292 l 749 1194 m 385 1125 q 380 1147 388 1138 q 361 1158 372 1156 q 339 1153 349 1161 q 328 1132 329 1146 q 333 1112 326 1121 q 353 1100 340 1103 q 374 1106 364 1097 q 385 1125 383 1114 m 581 1086 q 574 1108 582 1099 q 554 1119 567 1117 q 534 1115 543 1122 q 522 1094 525 1107 q 528 1073 519 1082 q 547 1061 536 1064 q 569 1067 560 1058 q 581 1086 578 1075 m 582 449 l 499 449 l 540 586 l 582 449 m 888 833 l 888 332 q 864 272 888 296 q 807 249 840 249 l 750 249 l 750 78 q 727 23 750 46 q 672 0 704 0 q 617 23 640 0 q 594 78 594 46 l 594 249 l 490 249 l 490 78 q 467 23 490 46 q 413 0 444 0 q 358 23 381 0 q 335 78 335 46 l 335 249 l 279 249 q 222 272 246 249 q 197 332 197 296 l 197 596 q 209 596 203 596 q 221 597 215 596 q 292 635 265 606 q 311 700 318 664 l 289 833 l 640 833 l 676 638 q 717 584 682 603 q 796 574 751 565 q 867 611 840 581 q 886 676 893 642 l 858 833 l 888 833 m 501 665 l 553 665 l 618 739 l 547 739 l 501 665 m 681 328 l 574 639 l 510 639 l 403 328 l 463 328 l 486 403 l 596 403 l 618 328 l 681 328 z "},"È":{"ha":1281,"x_min":64,"x_max":1211,"o":"m 1211 447 q 1188 392 1211 415 q 1133 369 1165 369 q 1079 392 1101 369 q 1057 447 1057 415 l 1057 769 q 1079 824 1057 801 q 1133 847 1101 847 q 1188 824 1165 847 q 1211 769 1211 801 l 1211 447 m 414 1074 q 425 1015 431 1046 q 393 965 419 985 l 261 878 l 260 879 l 256 876 l 306 800 q 315 742 321 772 q 281 693 308 711 q 222 683 253 676 q 175 718 190 690 l 164 733 l 163 732 l 82 858 q 71 917 64 886 q 104 964 78 949 q 122 972 111 969 l 240 1053 l 242 1051 l 306 1094 q 365 1107 333 1113 q 414 1074 396 1101 m 853 1138 q 981 1023 932 1096 q 1029 860 1029 950 l 333 860 q 333 874 333 867 q 335 889 333 882 l 411 940 q 455 1007 447 964 q 438 1086 463 1050 q 436 1088 438 1086 q 469 1113 451 1101 q 506 1135 486 1125 l 453 1228 q 458 1243 450 1239 q 474 1239 469 1249 l 526 1146 q 600 1170 561 1161 q 681 1179 639 1179 q 759 1171 721 1179 q 832 1147 797 1163 l 885 1240 q 900 1244 890 1251 q 906 1229 911 1240 l 853 1138 m 524 985 q 543 994 535 985 q 551 1015 551 1003 q 543 1035 551 1026 q 524 1044 535 1044 q 502 1035 511 1044 q 493 1015 493 1026 q 502 994 493 1003 q 524 985 511 985 m 839 985 q 860 994 851 985 q 869 1015 869 1003 q 860 1035 869 1026 q 839 1044 851 1044 q 818 1035 826 1044 q 810 1015 810 1026 q 818 994 810 1003 q 839 985 826 985 m 1026 833 l 1026 332 q 1002 272 1026 296 q 944 249 978 249 l 853 249 l 853 78 q 831 23 853 46 q 776 0 808 0 q 722 23 744 0 q 699 78 699 46 l 699 249 l 664 249 l 664 78 q 641 23 664 46 q 586 0 618 0 q 531 23 554 0 q 508 78 508 46 l 508 249 l 418 249 q 360 272 383 249 q 336 332 336 296 l 336 833 l 1026 833 m 618 739 l 685 665 l 735 665 l 690 739 l 618 739 m 779 639 l 586 639 l 586 328 l 779 328 l 779 376 l 646 376 l 646 468 l 771 468 l 771 515 l 646 515 l 646 592 l 779 592 l 779 639 z "},"ë":{"ha":1082,"x_min":69,"x_max":1013,"o":"m 1013 418 q 990 363 1013 386 q 936 340 968 340 q 881 363 904 340 q 858 418 858 386 l 858 742 q 881 796 858 774 q 936 818 904 818 q 990 796 968 818 q 1013 742 1013 774 l 1013 418 m 803 1139 q 931 1024 882 1097 q 979 861 979 950 l 283 861 q 297 947 283 906 q 333 1024 310 988 q 388 1089 356 1060 q 461 1139 421 1118 l 408 1228 q 413 1243 400 1239 q 428 1240 419 1250 l 482 1149 q 553 1172 515 1164 q 631 1181 590 1181 q 708 1172 671 1181 q 782 1149 746 1164 l 835 1242 q 850 1246 840 1253 q 854 1231 861 1240 l 803 1139 m 453 1017 q 475 1025 467 1017 q 483 1044 483 1033 q 475 1065 483 1057 q 453 1074 467 1074 q 433 1065 442 1074 q 425 1044 425 1057 q 433 1025 425 1033 q 453 1017 442 1017 m 671 986 q 690 994 682 986 q 699 1017 699 1003 q 690 1036 699 1028 q 671 1044 682 1044 q 649 1036 658 1044 q 640 1017 640 1028 q 649 994 640 1003 q 671 986 658 986 m 632 514 q 669 500 657 514 q 683 457 683 483 l 581 457 q 594 499 581 486 q 632 514 608 514 m 935 314 q 976 322 957 314 q 950 270 974 290 q 894 250 926 250 l 839 250 l 839 78 q 816 23 839 46 q 761 0 793 0 q 706 23 729 0 q 683 78 683 46 l 683 250 l 579 250 l 579 78 q 556 23 579 46 q 501 0 533 0 q 447 23 469 0 q 425 78 425 46 l 425 250 l 368 250 q 309 274 333 250 q 285 332 285 297 l 285 631 l 147 631 q 92 653 115 631 q 69 708 69 676 q 71 714 69 713 l 71 921 l 71 978 q 93 1032 71 1010 q 147 1054 115 1054 q 202 1032 179 1054 q 225 978 225 1010 l 225 921 l 225 881 l 225 785 l 285 785 l 285 833 l 882 833 q 846 803 860 822 q 832 760 832 783 l 832 400 q 862 339 832 364 q 935 314 892 314 m 654 588 l 707 588 l 707 647 l 654 647 l 654 588 m 564 588 l 617 588 l 617 647 l 564 647 l 564 588 m 735 419 q 735 430 735 425 q 736 440 736 435 q 708 525 736 497 q 632 554 681 554 q 553 524 582 554 q 525 439 525 494 q 556 356 525 386 q 638 325 586 325 q 678 328 658 325 q 718 342 699 332 l 706 381 q 643 364 674 364 q 600 379 618 364 q 581 419 582 393 l 735 419 z "},"Ð":{"ha":899,"x_min":67,"x_max":832,"o":"m 763 889 q 813 858 794 883 q 828 801 832 833 q 799 750 824 769 q 742 736 774 731 l 475 772 l 269 742 q 212 757 238 738 q 181 808 186 776 q 195 865 175 840 q 247 896 215 890 l 381 915 q 442 933 406 936 l 475 928 l 567 940 q 611 934 590 944 q 644 904 632 924 l 763 889 m 586 1139 q 700 1044 654 1103 q 760 913 746 986 l 665 925 q 629 958 651 947 q 583 967 607 969 l 476 951 l 429 957 q 365 935 394 961 l 226 915 q 187 897 204 913 q 163 860 169 882 l 67 860 q 116 1026 67 951 q 247 1140 165 1100 l 193 1233 q 197 1249 190 1244 q 213 1244 210 1256 l 268 1149 q 338 1172 301 1164 q 415 1181 375 1181 q 493 1172 456 1181 q 565 1149 531 1164 l 618 1242 q 635 1246 624 1251 q 638 1231 643 1240 l 586 1139 m 431 1021 q 451 1029 442 1021 q 460 1050 460 1038 q 451 1071 460 1063 q 431 1079 442 1079 q 410 1071 418 1079 q 401 1050 401 1063 q 410 1029 401 1038 q 431 1021 418 1021 m 603 1021 q 624 1029 614 1021 q 633 1050 633 1038 q 624 1071 633 1063 q 603 1079 614 1079 q 583 1071 592 1079 q 574 1050 574 1063 q 583 1029 574 1038 q 603 1021 592 1021 m 401 599 q 504 492 504 599 q 479 403 504 428 q 401 375 453 375 q 386 375 393 375 q 372 376 379 375 l 372 468 l 438 468 l 438 514 l 372 514 l 372 596 q 386 598 379 597 q 401 599 393 599 m 761 710 l 761 332 q 738 273 761 297 q 678 249 714 249 l 622 249 l 622 78 q 599 23 622 46 q 544 0 576 0 q 490 23 513 0 q 468 78 468 46 l 468 249 l 364 249 l 364 78 q 341 23 364 46 q 286 0 318 0 q 232 23 254 0 q 210 78 210 46 l 210 249 l 153 249 q 94 273 118 249 q 71 332 71 297 l 71 833 l 153 833 l 153 804 q 189 737 160 763 q 253 717 218 711 l 478 749 l 756 710 l 761 710 m 519 368 q 561 492 561 410 q 519 607 561 565 q 399 646 476 646 q 353 644 375 646 q 313 640 332 643 l 313 514 l 267 514 l 267 468 l 313 468 l 313 333 q 353 328 332 329 q 399 326 375 326 q 519 368 478 326 z "},"ð":{"ha":903,"x_min":69,"x_max":836,"o":"m 765 890 q 817 860 797 885 q 832 803 836 835 q 801 751 826 771 q 746 736 776 732 l 478 774 l 272 743 q 215 758 240 738 q 183 810 189 778 q 199 867 179 842 q 250 896 218 892 l 383 915 q 444 933 408 938 l 478 929 l 569 942 q 615 935 594 946 q 647 906 635 925 l 765 890 m 589 1140 q 704 1045 658 1104 q 764 913 750 986 l 668 926 q 633 959 654 947 q 588 968 611 971 l 479 951 l 432 958 q 399 954 415 961 q 368 935 382 947 l 229 915 q 165 861 183 908 l 69 861 q 119 1027 69 953 q 250 1142 168 1101 l 197 1235 q 200 1250 192 1244 q 217 1246 211 1257 l 271 1150 q 341 1174 304 1165 q 418 1182 378 1182 q 497 1174 458 1182 q 569 1150 535 1165 l 622 1243 q 638 1247 628 1251 q 642 1232 647 1243 l 589 1140 m 433 1022 q 454 1031 446 1022 q 463 1051 463 1039 q 454 1072 463 1064 q 433 1081 446 1081 q 413 1072 421 1081 q 404 1051 404 1064 q 413 1031 404 1039 q 433 1022 421 1022 m 607 1022 q 627 1031 618 1022 q 636 1051 636 1039 q 627 1072 636 1064 q 607 1081 618 1081 q 585 1072 594 1081 q 576 1051 576 1064 q 585 1031 576 1039 q 607 1022 594 1022 m 422 514 q 461 496 447 514 q 475 442 475 478 q 461 388 475 406 q 422 368 446 368 q 383 388 399 368 q 369 442 369 406 q 383 496 369 478 q 422 514 397 514 m 765 711 l 765 332 q 741 273 765 297 q 682 249 717 249 l 626 249 l 626 78 q 603 23 626 46 q 549 0 581 0 q 494 23 517 0 q 471 78 471 46 l 471 249 l 367 249 l 367 78 q 344 23 367 46 q 289 0 321 0 q 235 23 257 0 q 213 78 213 46 l 213 249 l 156 249 q 97 273 121 249 q 74 332 74 297 l 74 833 l 157 833 q 157 806 154 819 q 192 738 164 764 q 256 717 221 713 l 481 750 l 760 711 l 765 711 m 501 358 q 531 442 531 389 q 475 597 531 539 l 522 617 l 510 647 l 444 621 q 360 647 408 643 l 343 607 q 367 603 356 606 q 389 597 378 600 l 338 578 l 350 544 l 428 578 q 443 562 436 569 q 454 543 450 554 q 422 551 439 551 q 343 521 372 551 q 314 442 314 492 q 343 358 314 389 q 422 326 372 326 q 501 358 469 326 z "},"Ã":{"ha":1169,"x_min":68,"x_max":1106,"o":"m 1035 775 q 1001 726 1028 743 q 944 714 975 708 q 894 748 913 721 q 883 807 876 775 l 946 1124 q 980 1173 953 1156 q 1039 1185 1007 1190 q 1088 1151 1069 1178 q 1099 1093 1106 1125 l 1035 775 m 199 861 l 168 861 q 187 962 168 914 q 238 1050 206 1010 l 199 861 m 92 368 q 69 422 68 390 q 92 476 69 454 q 147 499 115 499 q 201 476 178 499 l 332 344 q 355 290 356 321 q 332 236 354 258 q 277 213 308 213 q 222 236 246 213 l 92 368 m 375 1201 q 424 1168 406 1194 q 435 1111 442 1142 l 371 793 q 338 743 364 761 q 279 732 311 725 q 231 765 249 739 q 219 824 213 792 l 283 1140 q 318 1192 290 1174 l 297 1231 q 300 1246 292 1243 q 309 1247 304 1249 q 317 1243 314 1246 l 339 1200 q 375 1201 356 1206 m 465 1122 q 456 1175 471 1149 q 486 1179 471 1178 q 518 1181 501 1181 q 667 1150 597 1181 l 719 1244 q 736 1247 728 1253 q 739 1232 746 1244 l 686 1139 q 817 1024 767 1099 q 867 861 867 950 l 413 861 l 465 1122 m 676 1103 q 656 1094 664 1103 q 647 1075 647 1086 q 656 1053 647 1061 q 676 1044 664 1044 q 697 1053 689 1044 q 706 1075 706 1061 q 697 1094 706 1086 q 676 1103 689 1103 m 518 1075 q 497 1066 506 1075 q 489 1044 489 1057 q 497 1025 489 1033 q 518 1017 506 1017 q 538 1025 529 1017 q 546 1044 546 1033 q 538 1066 546 1057 q 518 1075 529 1075 m 515 599 l 557 460 l 474 460 l 514 599 l 515 599 m 864 833 l 864 332 q 840 273 864 297 q 781 249 815 249 l 724 249 l 724 78 q 701 23 724 46 q 647 0 679 0 q 592 23 615 0 q 569 78 569 46 l 569 249 l 379 249 q 387 303 390 276 q 364 350 383 331 l 213 503 q 172 524 194 521 l 172 833 l 193 833 l 189 811 q 207 745 182 776 q 275 707 232 714 q 352 716 317 697 q 394 769 388 735 l 407 833 l 864 833 m 469 750 q 429 676 429 750 l 471 676 q 474 701 471 693 q 483 708 476 708 q 508 696 492 708 q 563 676 540 676 q 603 746 603 676 l 561 746 q 560 731 561 736 q 558 724 560 726 q 549 718 554 718 q 522 731 540 718 q 469 750 492 750 m 657 339 l 547 651 l 485 651 l 375 339 l 438 339 l 461 414 l 569 414 l 592 339 l 657 339 z "},"ã":{"ha":1169,"x_min":68,"x_max":1106,"o":"m 1035 775 q 1001 726 1028 743 q 943 714 975 708 q 894 747 911 721 q 883 806 876 774 l 946 1124 q 979 1173 953 1156 q 1038 1185 1006 1190 q 1088 1151 1069 1178 q 1099 1092 1106 1124 l 1035 775 m 199 861 l 168 861 q 187 962 168 914 q 238 1050 206 1010 l 199 861 m 92 368 q 69 422 68 390 q 92 476 69 453 q 147 499 115 499 q 201 476 178 499 l 332 344 q 355 290 356 321 q 332 236 354 258 q 277 213 308 213 q 222 236 246 213 l 92 368 m 374 1201 q 424 1168 406 1194 q 435 1110 442 1142 l 371 793 q 338 743 364 761 q 279 732 311 725 q 231 765 249 739 q 219 824 213 792 l 283 1140 q 318 1192 290 1174 l 297 1231 q 300 1246 293 1242 q 309 1247 304 1249 q 317 1242 314 1246 l 339 1200 q 374 1201 356 1206 m 465 1122 q 456 1175 471 1149 q 486 1179 471 1178 q 518 1181 501 1181 q 595 1172 558 1181 q 667 1149 632 1164 l 719 1243 q 735 1247 728 1254 q 739 1232 744 1242 l 686 1139 q 817 1024 767 1099 q 867 861 867 950 l 413 861 l 465 1122 m 676 1103 q 656 1094 664 1103 q 647 1074 647 1086 q 656 1053 647 1061 q 676 1044 664 1044 q 697 1053 689 1044 q 706 1074 706 1061 q 697 1094 706 1086 q 676 1103 689 1103 m 518 1074 q 497 1065 506 1074 q 488 1044 488 1057 q 497 1024 488 1033 q 518 1015 506 1015 q 538 1024 529 1015 q 546 1044 546 1033 q 538 1065 546 1057 q 518 1074 529 1074 m 864 833 l 864 332 q 840 273 864 297 q 781 249 815 249 l 724 249 l 724 78 q 701 23 724 46 q 647 0 679 0 q 592 23 615 0 q 569 78 569 46 l 569 249 l 379 249 q 387 303 390 276 q 364 350 383 331 l 213 503 q 172 524 196 518 l 172 833 l 193 833 l 189 811 q 207 745 182 776 q 275 707 232 714 q 351 716 317 697 q 393 769 386 735 l 407 833 l 864 833 m 469 660 q 429 586 429 660 l 471 586 q 474 613 471 601 q 482 618 475 618 q 508 606 492 618 q 561 586 539 586 q 601 654 601 586 l 560 654 q 557 635 560 640 q 549 628 554 628 q 522 640 542 628 q 469 660 493 660 m 613 339 q 606 399 606 371 l 606 482 q 601 519 606 504 q 583 546 596 535 q 511 565 564 565 q 422 546 461 565 l 431 504 q 510 524 465 524 q 542 515 533 524 q 550 483 550 504 l 532 483 q 442 460 476 483 q 411 400 411 439 q 429 351 411 369 q 479 335 447 335 q 524 344 504 335 q 556 371 543 354 l 557 371 q 561 339 557 353 l 613 339 m 481 433 q 532 446 497 446 l 550 446 l 550 431 q 533 390 550 407 q 493 375 518 375 q 471 383 479 375 q 463 406 463 392 q 481 433 463 422 z "},"A":{"ha":1421,"x_min":64,"x_max":1357,"o":"m 1219 650 q 1178 608 1207 619 q 1119 608 1149 596 q 1078 649 1090 619 q 1078 708 1065 679 l 1201 1008 q 1244 1049 1215 1038 q 1304 1049 1274 1061 q 1345 1007 1333 1036 q 1346 949 1357 978 l 1219 650 m 75 949 q 76 1007 64 978 q 117 1049 88 1036 q 176 1049 147 1061 q 219 1008 206 1038 l 343 708 q 343 649 356 679 q 301 608 331 619 q 242 608 271 596 q 201 650 213 619 l 75 949 m 710 675 l 765 490 l 654 490 l 708 675 l 710 675 m 1058 833 l 1058 331 q 1034 274 1058 297 q 975 250 1010 250 l 918 250 l 918 78 q 896 23 918 46 q 842 0 874 0 q 788 23 810 0 q 765 78 765 46 l 765 250 l 660 250 l 660 78 q 637 23 660 46 q 582 0 614 0 q 527 23 550 0 q 504 78 504 46 l 504 250 l 449 250 q 391 274 415 250 q 367 331 367 297 l 367 833 l 1058 833 m 899 331 l 753 744 l 668 744 l 522 331 l 606 331 l 636 429 l 783 429 l 813 331 l 899 331 m 882 1140 q 1012 1025 963 1099 q 1061 860 1061 951 l 364 860 q 413 1025 364 951 q 542 1140 463 1099 l 489 1229 q 493 1246 482 1239 q 508 1242 501 1250 l 563 1150 q 711 1179 631 1179 q 861 1149 796 1179 l 915 1243 q 932 1247 921 1254 q 936 1232 939 1243 l 882 1140 m 554 988 q 574 996 565 988 q 582 1015 582 1004 q 574 1037 582 1028 q 554 1046 565 1046 q 533 1037 542 1046 q 524 1015 524 1028 q 533 996 524 1004 q 554 988 542 988 m 871 988 q 890 996 882 988 q 899 1015 899 1004 q 890 1037 899 1028 q 871 1046 882 1046 q 850 1037 858 1046 q 842 1015 842 1028 q 850 996 842 1004 q 871 988 858 988 z "},"a":{"ha":1421,"x_min":64,"x_max":1357,"o":"m 1221 650 q 1178 608 1208 619 q 1119 608 1149 596 q 1078 649 1090 619 q 1078 710 1065 679 l 1203 1008 q 1244 1050 1215 1038 q 1304 1050 1274 1063 q 1345 1008 1333 1038 q 1346 949 1357 978 l 1221 650 m 75 949 q 76 1008 64 978 q 117 1050 88 1038 q 176 1050 147 1063 q 219 1008 206 1038 l 343 710 q 343 649 356 679 q 301 608 331 619 q 242 608 271 596 q 201 650 213 619 l 75 949 m 665 457 q 733 472 692 472 l 758 472 l 758 453 q 736 400 758 418 q 682 378 714 378 q 653 389 664 378 q 642 417 642 400 q 665 457 642 440 m 1058 833 l 1058 332 q 1034 274 1058 297 q 976 250 1010 250 l 919 250 l 919 78 q 897 23 919 46 q 842 0 874 0 q 788 23 810 0 q 765 78 765 46 l 765 250 l 660 250 l 660 78 q 637 23 660 46 q 582 0 614 0 q 528 23 550 0 q 506 78 506 46 l 506 250 l 449 250 q 391 274 415 250 q 367 332 367 297 l 367 833 l 1058 833 m 842 331 q 833 410 833 368 l 833 519 q 804 606 833 578 q 706 632 771 632 q 588 606 640 632 l 600 551 q 704 576 647 576 q 747 564 735 576 q 758 522 758 553 l 758 521 l 733 521 q 614 490 654 521 q 572 411 572 461 q 597 347 572 369 q 663 325 621 325 q 722 338 694 325 q 765 374 747 349 l 767 374 q 771 331 768 351 l 842 331 m 883 1140 q 1012 1025 963 1099 q 1061 861 1061 951 l 364 861 q 413 1026 364 951 q 543 1140 463 1100 l 489 1229 q 493 1246 485 1240 q 508 1242 504 1251 l 563 1150 q 713 1181 635 1181 q 863 1149 792 1181 l 915 1243 q 932 1247 922 1253 q 936 1232 940 1243 l 883 1140 m 554 988 q 574 996 565 988 q 582 1015 582 1004 q 574 1038 582 1029 q 554 1046 565 1046 q 533 1038 542 1046 q 524 1015 524 1029 q 533 996 524 1004 q 554 988 542 988 m 871 988 q 891 996 882 988 q 900 1015 900 1004 q 891 1038 900 1029 q 871 1046 882 1046 q 850 1038 858 1046 q 842 1015 842 1029 q 850 996 842 1004 q 871 988 858 988 z "},"B":{"ha":1199,"x_min":69,"x_max":1129,"o":"m 69 771 q 92 826 69 803 q 147 849 115 849 q 201 826 179 849 q 224 771 224 803 l 224 447 q 201 392 224 415 q 147 369 179 369 q 92 392 115 369 q 69 447 69 415 l 69 771 m 1129 447 q 1107 392 1129 415 q 1053 369 1085 369 q 998 392 1021 369 q 975 447 975 415 l 975 771 q 998 826 975 803 q 1053 849 1021 849 q 1107 826 1085 849 q 1129 771 1129 803 l 1129 447 m 771 1139 q 899 1025 850 1099 q 947 860 947 951 l 251 860 q 301 1026 251 951 q 431 1140 350 1100 l 378 1228 q 382 1243 372 1239 q 390 1244 385 1246 q 397 1239 394 1243 l 451 1149 q 600 1181 519 1181 q 678 1172 640 1181 q 750 1149 717 1164 l 801 1239 q 818 1243 807 1249 q 821 1229 825 1238 l 771 1139 m 440 986 q 462 995 453 986 q 471 1017 471 1004 q 462 1036 471 1028 q 440 1044 453 1044 q 421 1036 429 1044 q 413 1017 413 1028 q 421 995 413 1004 q 440 986 429 986 m 758 986 q 779 995 771 986 q 788 1017 788 1004 q 779 1036 788 1028 q 758 1044 771 1044 q 738 1036 747 1044 q 729 1017 729 1028 q 738 995 729 1004 q 758 986 747 986 m 654 589 q 624 578 642 582 q 578 575 606 575 l 557 575 l 557 682 q 596 686 574 686 q 633 683 618 686 q 658 674 649 679 q 678 632 678 660 q 654 589 678 604 m 665 500 q 690 454 690 488 q 668 401 690 418 q 640 388 657 392 q 600 385 624 385 q 577 385 588 385 q 557 388 567 385 l 557 515 l 582 515 q 665 500 642 515 m 944 833 l 944 332 q 921 273 944 297 q 863 249 897 249 l 807 249 l 807 81 q 784 24 807 47 q 729 0 761 0 q 675 24 697 0 q 653 81 653 47 l 653 249 l 547 249 l 547 81 q 525 24 547 47 q 471 0 503 0 q 416 24 439 0 q 393 81 393 47 l 393 249 l 336 249 q 278 273 303 249 q 254 332 254 297 l 254 833 l 944 833 m 726 353 q 765 446 765 383 q 739 514 765 488 q 667 550 714 543 q 728 583 703 558 q 751 643 751 610 q 592 749 751 749 q 534 746 563 749 q 478 739 506 743 l 478 331 q 599 322 533 322 q 726 353 683 322 z "},"b":{"ha":1197,"x_min":69,"x_max":1128,"o":"m 69 772 q 92 826 69 804 q 147 849 115 849 q 201 826 179 849 q 224 772 224 804 l 224 449 q 201 393 224 415 q 147 371 179 371 q 92 393 115 371 q 69 449 69 415 l 69 772 m 1128 449 q 1106 393 1128 415 q 1051 371 1083 371 q 997 393 1019 371 q 974 449 974 415 l 974 772 q 997 826 974 804 q 1051 849 1019 849 q 1106 826 1083 849 q 1128 772 1128 804 l 1128 449 m 771 1139 q 899 1025 850 1099 q 947 861 947 951 l 251 861 q 301 1026 251 953 q 431 1140 350 1100 l 378 1228 q 381 1243 372 1238 q 397 1239 392 1249 l 451 1149 q 599 1181 519 1181 q 677 1172 639 1181 q 750 1149 715 1164 l 801 1239 q 817 1243 806 1249 q 821 1229 825 1239 l 771 1139 m 440 988 q 461 996 453 988 q 469 1017 469 1004 q 461 1036 469 1028 q 440 1044 453 1044 q 421 1036 429 1044 q 413 1017 413 1028 q 421 996 413 1004 q 440 988 429 988 m 757 988 q 778 996 769 988 q 788 1017 788 1004 q 778 1036 788 1028 q 757 1044 769 1044 q 738 1036 746 1044 q 729 1017 729 1028 q 738 996 729 1004 q 757 988 746 988 m 944 833 l 944 332 q 921 274 944 299 q 861 250 897 250 l 807 250 l 807 82 q 784 25 807 49 q 729 1 761 1 q 674 25 696 1 q 651 82 651 49 l 651 250 l 547 250 l 547 82 q 524 25 547 49 q 469 1 501 1 q 415 25 438 1 q 393 82 393 49 l 393 250 l 336 250 q 278 274 303 250 q 254 332 254 299 l 254 833 l 944 833 m 725 364 q 749 411 742 383 q 757 475 757 439 q 726 590 757 551 q 640 629 692 629 q 553 585 585 629 l 551 585 l 551 754 l 478 754 l 478 329 l 547 329 l 549 369 l 550 369 q 640 324 583 324 q 725 364 693 324 m 618 571 q 668 547 651 571 q 686 475 686 525 q 682 435 686 453 q 667 406 678 417 q 618 382 649 382 q 571 404 588 382 q 551 472 551 431 l 551 479 q 571 546 551 519 q 618 571 588 571 z "},"C":{"ha":1199,"x_min":69,"x_max":1129,"o":"m 69 769 q 92 824 69 801 q 146 847 114 847 q 201 824 178 847 q 224 769 224 801 l 224 446 q 201 392 224 414 q 146 369 178 369 q 92 392 114 369 q 69 446 69 414 l 69 769 m 1129 782 q 1107 727 1129 750 q 1053 704 1085 704 q 998 727 1021 704 q 975 782 975 750 l 975 1106 q 998 1160 975 1138 q 1053 1183 1021 1183 q 1107 1160 1085 1183 q 1129 1106 1129 1138 l 1129 782 m 769 1138 q 842 1088 808 1117 q 899 1023 875 1058 q 935 946 922 988 q 949 860 949 904 l 250 860 q 263 946 250 904 q 300 1024 276 988 q 356 1089 324 1060 q 429 1139 389 1118 l 376 1228 q 381 1243 368 1239 q 396 1240 388 1250 l 450 1149 q 599 1179 522 1179 q 749 1147 681 1179 l 801 1242 q 818 1246 810 1253 q 822 1231 828 1242 l 769 1138 m 440 986 q 461 994 453 986 q 469 1014 469 1003 q 461 1036 469 1028 q 440 1044 453 1044 q 419 1036 428 1044 q 411 1014 411 1028 q 419 994 411 1003 q 440 986 428 986 m 758 986 q 778 994 769 986 q 788 1014 788 1003 q 778 1036 788 1028 q 758 1044 769 1044 q 737 1036 746 1044 q 728 1014 728 1028 q 737 994 728 1003 q 758 986 746 986 m 946 833 l 946 332 q 922 272 946 296 q 863 249 897 249 l 806 249 l 806 76 q 783 22 806 44 q 729 0 761 0 q 674 22 697 0 q 651 76 651 44 l 651 249 l 547 249 l 547 76 q 524 22 547 44 q 469 0 501 0 q 415 22 438 0 q 393 76 393 44 l 393 249 l 336 249 q 277 272 301 249 q 253 332 253 296 l 253 833 l 946 833 m 550 426 q 510 536 510 467 q 549 644 510 604 q 650 685 585 685 q 751 653 703 685 l 776 711 q 643 749 718 749 q 486 692 546 749 q 429 536 429 635 q 488 379 429 438 q 643 322 547 322 q 776 358 721 322 l 751 418 q 650 386 706 386 q 550 426 588 386 z "},"c":{"ha":1199,"x_min":69,"x_max":1129,"o":"m 69 769 q 92 824 69 801 q 146 847 114 847 q 201 824 178 847 q 224 769 224 801 l 224 446 q 201 392 224 414 q 146 369 178 369 q 92 392 114 369 q 69 446 69 414 l 69 769 m 1129 782 q 1107 727 1129 750 q 1053 704 1085 704 q 998 727 1021 704 q 975 782 975 750 l 975 1106 q 998 1160 975 1138 q 1053 1183 1021 1183 q 1107 1160 1085 1183 q 1129 1106 1129 1138 l 1129 782 m 769 1138 q 842 1088 808 1117 q 899 1023 875 1058 q 935 946 922 988 q 949 860 949 904 l 250 860 q 263 946 250 904 q 300 1024 276 988 q 356 1089 324 1060 q 429 1139 389 1118 l 376 1228 q 381 1243 368 1239 q 396 1240 388 1250 l 450 1149 q 599 1179 522 1179 q 749 1147 681 1179 l 801 1242 q 818 1246 810 1253 q 822 1231 828 1242 l 769 1138 m 440 986 q 461 994 453 986 q 469 1014 469 1003 q 461 1036 469 1028 q 440 1044 453 1044 q 419 1036 428 1044 q 411 1014 411 1028 q 419 994 411 1003 q 440 986 428 986 m 758 986 q 778 994 769 986 q 788 1014 788 1003 q 778 1036 788 1028 q 758 1044 769 1044 q 737 1036 746 1044 q 728 1014 728 1028 q 737 994 728 1003 q 758 986 746 986 m 946 833 l 946 332 q 922 272 946 296 q 863 249 897 249 l 806 249 l 806 76 q 783 22 806 44 q 729 0 761 0 q 674 22 697 0 q 651 76 651 44 l 651 249 l 547 249 l 547 76 q 524 22 547 44 q 469 0 501 0 q 415 22 438 0 q 393 76 393 44 l 393 249 l 336 249 q 277 272 301 249 q 253 332 253 296 l 253 833 l 946 833 m 574 404 q 551 475 551 428 q 572 547 551 522 q 636 572 597 572 q 713 551 676 572 l 729 608 q 632 629 683 629 q 517 589 560 629 q 476 475 476 549 q 518 364 476 403 q 632 322 560 322 q 729 343 683 322 l 713 399 q 636 378 676 378 q 574 404 599 378 z "},"D":{"ha":1113,"x_min":63,"x_max":1046,"o":"m 547 929 q 498 986 532 967 q 431 993 464 1006 l 124 876 q 138 957 125 918 q 174 1029 151 996 q 228 1090 197 1063 q 296 1138 260 1118 l 246 1228 q 253 1243 242 1239 q 267 1240 260 1247 l 317 1146 q 391 1170 353 1161 q 469 1179 429 1179 q 547 1171 510 1179 q 618 1147 583 1163 l 669 1240 q 685 1246 678 1251 q 692 1240 692 1243 q 692 1229 693 1236 l 636 1139 q 735 1067 694 1111 q 797 967 776 1022 l 699 861 l 551 861 q 547 929 565 892 m 628 1044 q 608 1036 617 1044 q 599 1014 599 1028 q 608 994 599 1001 q 628 986 617 986 q 647 994 639 986 q 656 1014 656 1001 q 647 1036 656 1028 q 628 1044 639 1044 m 313 986 q 340 1014 340 986 q 313 1044 340 1044 q 291 1036 300 1044 q 282 1014 282 1028 q 291 994 282 1001 q 313 986 300 986 m 697 701 q 758 668 725 675 q 815 676 792 661 l 815 332 q 792 274 815 299 q 733 250 768 250 l 676 250 l 676 81 q 653 24 676 47 q 599 1 631 1 q 547 24 569 1 q 524 81 524 47 l 524 250 l 418 250 l 418 81 q 397 24 418 47 q 342 1 375 1 q 287 24 310 1 q 264 81 264 47 l 264 250 l 208 250 q 151 274 175 250 q 126 332 126 299 l 126 669 q 164 674 146 668 l 317 732 l 317 333 q 372 328 344 331 q 431 325 400 325 q 593 382 536 325 q 650 544 650 439 q 593 697 650 643 q 431 751 535 751 q 397 751 414 751 q 364 749 381 751 l 504 803 q 526 814 517 806 q 542 833 535 822 l 675 833 l 675 832 q 658 770 651 808 q 697 701 665 732 m 174 706 q 114 708 144 694 q 72 749 83 721 q 76 810 63 781 q 119 850 89 839 l 422 964 q 480 962 451 975 q 522 919 508 949 q 519 861 532 890 q 475 821 506 832 l 174 706 m 1015 1044 q 1043 990 1040 1021 q 1026 938 1046 960 l 822 718 q 772 698 803 697 q 715 721 742 699 q 688 774 692 742 q 706 825 685 806 l 908 1046 q 960 1066 929 1067 q 1015 1044 992 1065 m 540 426 q 435 389 503 389 q 415 390 424 389 q 396 392 406 390 l 396 686 q 415 688 406 688 q 435 689 424 689 q 574 544 574 689 q 540 426 574 468 z "},"d":{"ha":1114,"x_min":63,"x_max":1046,"o":"m 174 704 q 115 706 144 693 q 72 749 85 719 q 76 810 63 781 q 119 850 89 839 l 422 964 q 481 962 451 975 q 522 918 510 949 q 519 860 532 889 q 475 819 506 831 l 174 704 m 549 929 q 528 963 542 947 q 499 986 515 978 q 466 997 483 994 q 432 992 449 999 l 124 875 q 174 1028 126 960 q 297 1138 222 1097 l 246 1228 q 253 1243 242 1239 q 267 1240 260 1247 l 318 1144 q 392 1169 354 1160 q 471 1179 429 1179 q 547 1171 511 1179 q 618 1147 583 1163 l 669 1240 q 685 1246 679 1251 q 692 1240 692 1243 q 692 1229 693 1236 l 638 1139 q 735 1067 694 1111 q 799 967 776 1022 l 700 860 l 551 860 q 549 929 564 890 m 628 1044 q 608 1035 617 1044 q 599 1013 599 1026 q 608 994 599 1001 q 628 986 617 986 q 649 994 640 986 q 657 1013 657 1001 q 649 1035 657 1026 q 628 1044 640 1044 m 313 986 q 340 1013 340 986 q 333 1035 340 1026 q 313 1044 325 1044 q 291 1035 300 1044 q 282 1013 282 1026 q 291 994 282 1001 q 313 986 300 986 m 1015 1044 q 1044 990 1042 1021 q 1028 936 1046 960 l 822 718 q 772 697 803 696 q 717 721 742 697 q 690 774 693 742 q 706 825 686 806 l 910 1046 q 960 1066 929 1067 q 1015 1044 992 1065 m 461 574 q 510 549 493 574 q 528 481 528 525 l 528 475 q 510 407 528 431 q 461 382 489 382 q 411 407 432 382 q 393 478 393 431 q 411 550 393 528 q 461 574 426 574 m 699 701 q 759 667 726 674 q 817 676 792 661 l 817 332 q 793 273 817 297 q 735 249 769 249 l 678 249 l 678 79 q 655 23 678 46 q 600 0 632 0 q 547 23 569 0 q 524 79 524 46 l 524 249 l 418 249 l 418 79 q 397 23 418 46 q 342 0 375 0 q 287 23 310 0 q 264 79 264 46 l 264 249 l 208 249 q 151 273 175 249 q 126 332 126 297 l 126 668 q 164 672 146 667 l 504 801 q 542 833 526 808 l 675 833 l 675 832 q 659 769 651 807 q 699 701 667 731 m 603 758 l 528 758 l 528 588 q 439 632 493 632 q 353 593 383 632 q 321 478 321 553 q 354 364 321 406 q 439 324 388 324 q 531 372 497 324 l 532 331 l 603 331 l 603 758 z "},"E":{"ha":1468,"x_min":64,"x_max":1400,"o":"m 165 779 q 203 826 175 811 q 261 832 231 842 q 308 794 293 822 q 314 736 322 767 l 221 426 q 185 379 213 394 q 125 372 157 364 q 79 410 94 383 q 74 469 64 438 l 165 779 m 1379 567 q 1398 510 1400 543 q 1372 457 1396 478 q 1316 438 1349 436 q 1263 464 1283 440 l 1050 708 q 1031 765 1029 732 q 1057 818 1033 797 q 1113 837 1081 839 q 1167 810 1146 835 l 1379 567 m 849 1136 q 976 1022 928 1096 q 1024 861 1024 949 l 326 861 q 375 1024 326 950 q 504 1138 424 1097 l 451 1226 q 456 1243 446 1236 q 471 1239 467 1249 l 525 1149 q 675 1179 597 1179 q 828 1147 756 1179 l 881 1240 q 896 1246 885 1249 q 900 1228 906 1238 l 849 1136 m 517 986 q 538 994 529 986 q 546 1015 546 1003 q 538 1035 546 1026 q 517 1044 529 1044 q 497 1035 506 1044 q 488 1015 488 1026 q 497 994 488 1003 q 517 986 506 986 m 835 986 q 854 994 846 986 q 863 1015 863 1003 q 854 1035 863 1026 q 835 1044 846 1044 q 813 1035 821 1044 q 804 1015 804 1026 q 813 994 804 1003 q 835 986 821 986 m 1147 515 q 1165 458 1168 490 q 1139 406 1163 426 l 1014 299 q 983 263 1003 276 q 939 249 964 249 l 622 249 l 622 78 q 600 23 622 46 q 546 0 578 0 q 492 23 514 0 q 469 78 469 46 l 469 249 l 413 249 q 353 273 378 249 q 329 332 329 297 l 329 833 l 1021 833 l 1021 508 l 1038 522 q 1094 542 1063 544 q 1147 515 1126 539 m 807 743 l 550 743 l 550 329 l 807 329 l 807 393 l 629 393 l 629 518 l 796 518 l 796 578 l 629 578 l 629 679 l 807 679 l 807 743 z "},"e":{"ha":1467,"x_min":63,"x_max":1399,"o":"m 164 779 q 201 826 174 811 q 260 832 229 842 q 306 794 292 822 q 313 736 321 767 l 219 426 q 183 379 211 394 q 124 372 156 364 q 78 410 93 383 q 72 469 63 438 l 164 779 m 1378 567 q 1397 510 1399 543 q 1371 457 1394 478 q 1315 438 1347 436 q 1261 464 1282 440 l 1049 708 q 1030 765 1028 732 q 1056 818 1032 797 q 1112 837 1079 839 q 1165 810 1144 835 l 1378 567 m 847 1136 q 974 1022 926 1096 q 1022 861 1022 949 l 325 861 q 374 1024 325 950 q 503 1138 422 1097 l 450 1226 q 454 1243 444 1236 q 469 1239 465 1249 l 524 1149 q 674 1179 596 1179 q 826 1147 754 1179 l 879 1240 q 894 1246 883 1249 q 899 1228 904 1238 l 847 1136 m 515 986 q 536 994 528 986 q 544 1015 544 1003 q 536 1035 544 1026 q 515 1044 528 1044 q 495 1035 504 1044 q 486 1015 486 1026 q 495 994 486 1003 q 515 986 504 986 m 833 986 q 853 994 844 986 q 861 1015 861 1003 q 853 1035 861 1026 q 833 1044 844 1044 q 811 1035 819 1044 q 803 1015 803 1026 q 811 994 803 1003 q 833 986 819 986 m 1146 515 q 1164 458 1167 490 q 1138 406 1161 426 l 1013 299 q 982 263 1001 276 q 938 249 963 249 l 621 249 l 621 78 q 599 23 621 46 q 544 0 576 0 q 490 23 513 0 q 468 78 468 46 l 468 249 l 411 249 q 352 273 376 249 q 328 332 328 297 l 328 833 l 1019 833 l 1019 508 l 1036 522 q 1093 542 1061 544 q 1146 515 1125 539 m 813 450 q 814 464 814 457 q 814 479 814 471 q 778 592 814 551 q 675 629 740 629 q 571 589 607 629 q 532 476 532 549 q 574 365 532 404 q 683 324 614 324 q 790 346 742 324 l 774 399 q 731 382 751 388 q 689 376 711 376 q 632 397 654 376 q 606 450 610 414 l 813 450 m 675 576 q 725 557 710 576 q 743 500 743 538 l 606 500 q 626 556 607 536 q 675 576 642 576 z "},"F":{"ha":1357,"x_min":65,"x_max":1292,"o":"m 1256 782 q 1226 722 1253 746 q 1163 701 1199 699 q 1104 731 1128 704 q 1083 794 1081 758 l 1110 1156 q 1140 1215 1113 1192 q 1201 1236 1167 1239 q 1261 1206 1238 1233 q 1282 1143 1285 1179 l 1256 782 m 1144 35 q 1087 0 1122 6 q 1022 17 1051 -6 q 990 74 994 39 q 1007 139 985 110 l 1131 303 q 1189 337 1154 332 q 1253 321 1224 342 q 1286 263 1281 299 q 1269 199 1292 228 l 1144 35 m 88 199 q 71 263 65 228 q 104 321 76 299 q 168 337 133 342 q 225 303 203 332 l 350 139 q 367 74 372 110 q 333 17 361 39 q 269 0 304 -6 q 213 35 235 6 l 88 199 m 71 1147 q 91 1210 68 1183 q 149 1239 114 1236 q 213 1219 185 1242 q 243 1160 240 1196 l 268 799 q 248 735 271 763 q 189 706 225 708 q 126 726 153 703 q 96 785 99 749 l 71 1147 m 868 1174 q 1010 1045 956 1128 q 1065 863 1065 963 l 288 863 q 342 1047 288 964 q 489 1176 397 1131 l 433 1272 q 438 1286 428 1281 q 453 1283 444 1293 l 511 1186 q 590 1210 549 1201 q 676 1219 632 1219 q 846 1185 768 1219 l 901 1281 q 917 1285 908 1289 q 921 1269 928 1279 l 868 1174 m 500 1004 q 522 1014 513 1004 q 532 1036 532 1024 q 522 1060 532 1051 q 500 1069 513 1069 q 476 1060 485 1069 q 467 1036 467 1051 q 476 1014 467 1024 q 500 1004 485 1004 m 854 1004 q 877 1014 868 1004 q 886 1036 886 1024 q 877 1060 886 1051 q 854 1069 868 1069 q 831 1060 840 1069 q 821 1036 821 1051 q 831 1014 821 1024 q 854 1004 840 1004 m 1063 833 l 1063 271 q 1035 206 1063 233 q 971 179 1008 179 l 382 179 q 317 206 343 179 q 290 271 290 233 l 290 833 l 1063 833 m 813 765 l 551 765 l 551 335 l 633 335 l 633 521 l 800 521 l 800 585 l 633 585 l 633 697 l 813 697 l 813 765 z "},"f":{"ha":1358,"x_min":65,"x_max":1293,"o":"m 1257 783 q 1227 724 1254 747 q 1164 703 1200 700 q 1106 733 1129 706 q 1083 794 1082 760 l 1111 1157 q 1141 1216 1114 1193 q 1203 1236 1168 1239 q 1263 1207 1239 1233 q 1283 1144 1286 1181 l 1257 783 m 1146 35 q 1088 0 1124 6 q 1024 17 1053 -6 q 990 74 996 39 q 1008 139 985 110 l 1132 304 q 1190 337 1154 332 q 1254 321 1225 342 q 1288 263 1282 299 q 1269 199 1293 228 l 1146 35 m 88 199 q 71 263 65 228 q 104 321 76 299 q 168 337 133 342 q 226 304 203 332 l 350 139 q 367 74 372 110 q 335 17 363 39 q 270 0 306 -6 q 213 35 235 6 l 88 199 m 71 1149 q 91 1211 68 1185 q 150 1240 114 1238 q 213 1220 186 1243 q 243 1161 240 1197 l 268 799 q 248 736 271 763 q 189 707 225 710 q 126 727 153 704 q 96 786 99 750 l 71 1149 m 868 1175 q 1012 1047 957 1129 q 1067 863 1067 964 l 288 863 q 343 1049 288 965 q 489 1178 399 1132 l 433 1274 q 438 1288 428 1282 q 453 1285 447 1294 l 511 1188 q 590 1212 549 1203 q 676 1221 632 1221 q 847 1186 767 1221 l 901 1282 q 918 1286 908 1292 q 922 1271 929 1281 l 868 1175 m 500 1006 q 523 1015 514 1006 q 532 1038 532 1024 q 523 1061 532 1051 q 500 1071 514 1071 q 476 1061 486 1071 q 467 1038 467 1051 q 476 1015 467 1024 q 500 1006 486 1006 m 856 1006 q 878 1015 868 1006 q 888 1038 888 1024 q 878 1061 888 1051 q 856 1071 868 1071 q 831 1061 840 1071 q 822 1038 822 1051 q 831 1015 822 1024 q 856 1006 840 1006 m 1064 833 l 1064 271 q 1037 206 1064 233 q 971 179 1010 179 l 382 179 q 317 206 344 179 q 290 271 290 233 l 290 833 l 1064 833 m 700 631 l 700 656 q 710 700 700 685 q 747 713 719 713 q 788 704 768 713 l 801 763 q 735 771 769 771 q 650 742 679 771 q 622 656 622 711 l 622 631 l 549 631 l 549 572 l 622 572 l 622 336 l 700 336 l 700 572 l 794 572 l 794 631 l 700 631 z "},"G":{"ha":1200,"x_min":69,"x_max":1131,"o":"m 69 1089 q 92 1144 69 1121 q 146 1167 114 1167 q 202 1144 179 1167 q 225 1089 225 1121 l 225 764 q 202 710 225 732 q 146 688 179 688 q 92 710 114 688 q 69 764 69 732 l 69 1089 m 1131 447 q 1108 392 1131 415 q 1053 369 1085 369 q 999 392 1021 369 q 976 447 976 415 l 976 771 q 999 825 976 803 q 1053 847 1021 847 q 1108 825 1085 847 q 1131 771 1131 803 l 1131 447 m 771 1138 q 900 1024 851 1097 q 949 861 949 951 l 256 861 q 305 1026 256 953 q 435 1140 354 1100 l 385 1224 q 389 1238 381 1233 q 403 1235 394 1243 l 454 1149 q 524 1171 488 1163 q 601 1179 561 1179 q 680 1171 642 1179 q 753 1147 718 1163 l 801 1233 q 817 1236 807 1242 q 819 1222 824 1231 l 771 1138 m 444 986 q 465 994 456 986 q 474 1015 474 1003 q 465 1036 474 1028 q 444 1044 456 1044 q 423 1036 432 1044 q 414 1015 414 1028 q 423 994 414 1003 q 444 986 432 986 m 760 986 q 781 994 772 986 q 789 1015 789 1003 q 781 1036 789 1028 q 760 1044 772 1044 q 740 1036 749 1044 q 731 1015 731 1028 q 740 994 731 1003 q 760 986 749 986 m 946 833 l 946 332 q 922 273 946 297 q 864 249 897 249 l 807 249 l 807 78 q 785 23 807 46 q 731 0 763 0 q 674 23 697 0 q 651 78 651 46 l 651 249 l 547 249 l 547 78 q 525 23 547 46 q 471 0 503 0 q 416 23 439 0 q 393 78 393 46 l 393 249 l 336 249 q 278 273 303 249 q 254 332 254 297 l 254 833 l 946 833 m 775 575 l 585 575 l 585 514 l 700 514 l 700 394 q 638 383 671 383 q 528 425 569 383 q 486 533 486 463 q 526 642 486 601 q 633 682 564 682 q 735 651 686 682 l 760 708 q 698 736 731 726 q 628 746 665 746 q 465 688 524 746 q 407 533 407 629 q 467 378 407 438 q 632 322 528 322 q 706 329 669 322 q 775 351 743 336 l 775 575 z "},"g":{"ha":1200,"x_min":69,"x_max":1131,"o":"m 69 1089 q 92 1144 69 1121 q 146 1167 114 1167 q 202 1144 179 1167 q 225 1089 225 1121 l 225 764 q 202 710 225 732 q 146 688 179 688 q 92 710 114 688 q 69 764 69 732 l 69 1089 m 1131 447 q 1108 392 1131 415 q 1053 369 1085 369 q 999 392 1021 369 q 976 447 976 415 l 976 771 q 999 825 976 803 q 1053 847 1021 847 q 1108 825 1085 847 q 1131 771 1131 803 l 1131 447 m 771 1138 q 900 1024 851 1097 q 949 861 949 951 l 256 861 q 305 1026 256 953 q 435 1140 354 1100 l 385 1224 q 389 1238 381 1233 q 403 1235 394 1243 l 454 1149 q 524 1171 488 1163 q 601 1179 561 1179 q 680 1171 642 1179 q 753 1147 718 1163 l 801 1233 q 817 1236 807 1242 q 819 1222 824 1231 l 771 1138 m 444 986 q 465 994 456 986 q 474 1015 474 1003 q 465 1036 474 1028 q 444 1044 456 1044 q 423 1036 432 1044 q 414 1015 414 1028 q 423 994 414 1003 q 444 986 432 986 m 760 986 q 781 994 772 986 q 789 1015 789 1003 q 781 1036 789 1028 q 760 1044 772 1044 q 740 1036 749 1044 q 731 1015 731 1028 q 740 994 731 1003 q 760 986 749 986 m 589 676 q 638 653 621 676 q 657 589 657 629 l 657 583 q 638 518 657 542 q 589 494 621 494 q 540 519 561 494 q 522 586 522 546 q 540 653 522 628 q 589 676 557 676 m 946 833 l 946 332 q 922 273 946 297 q 864 249 897 249 l 807 249 l 807 78 q 785 23 807 46 q 731 0 763 0 q 674 23 697 0 q 651 78 651 46 l 651 249 l 547 249 l 547 78 q 525 23 547 46 q 471 0 503 0 q 416 23 439 0 q 393 78 393 46 l 393 249 l 336 249 q 278 273 303 249 q 254 332 254 297 l 254 833 l 946 833 m 731 728 l 663 728 l 660 686 q 567 732 622 732 q 482 696 514 732 q 451 586 451 654 q 485 478 451 522 q 567 439 519 439 q 657 482 622 439 l 658 482 l 658 461 q 638 382 658 404 q 575 360 619 360 q 533 363 554 360 q 493 376 513 367 l 481 321 q 576 304 526 304 q 731 463 731 304 l 731 728 z "},"H":{"ha":1075,"x_min":67,"x_max":1008,"o":"m 988 788 q 1006 731 1008 763 q 978 679 1003 699 q 922 661 954 658 q 869 689 889 664 l 663 939 q 646 994 643 963 q 674 1047 649 1026 q 731 1065 699 1067 q 783 1036 763 1063 l 988 788 m 293 1036 q 346 1065 314 1063 q 401 1047 378 1067 q 429 994 426 1026 q 413 939 432 963 l 207 689 q 154 661 186 664 q 99 679 122 658 q 70 731 74 699 q 88 788 67 763 l 293 1036 m 708 1138 q 797 1071 758 1111 q 858 981 836 1031 l 789 1065 q 728 1093 767 1093 q 657 1067 690 1093 q 618 1001 625 1039 q 635 938 611 964 l 697 860 l 379 860 l 442 938 q 458 1001 465 964 q 417 1067 450 1039 q 347 1093 385 1093 q 286 1065 308 1093 l 215 979 q 276 1071 238 1031 q 368 1139 315 1111 l 317 1225 q 321 1240 313 1233 q 335 1236 329 1246 l 388 1147 q 460 1171 422 1163 q 538 1179 497 1179 q 615 1171 578 1179 q 688 1147 653 1163 l 739 1238 q 754 1242 746 1247 q 758 1228 763 1238 l 708 1138 m 860 663 q 883 644 868 651 l 883 332 q 859 272 883 296 q 801 249 835 249 l 744 249 l 744 78 q 722 23 744 46 q 667 0 699 0 q 612 23 635 0 q 589 78 589 46 l 589 249 l 486 249 l 486 78 q 463 23 486 46 q 408 0 440 0 q 353 23 376 0 q 331 78 331 46 l 331 249 l 275 249 q 217 272 240 249 q 193 332 193 296 l 193 644 q 204 651 199 647 q 215 663 210 656 l 356 833 l 719 833 l 860 663 m 704 742 l 624 742 l 624 576 l 454 576 l 454 742 l 376 742 l 376 326 l 454 326 l 454 515 l 624 515 l 624 326 l 704 326 l 704 742 z "},"h":{"ha":1075,"x_min":67,"x_max":1008,"o":"m 988 788 q 1006 731 1008 763 q 978 679 1003 699 q 922 661 954 658 q 869 689 889 664 l 663 939 q 646 994 643 963 q 674 1047 649 1026 q 731 1065 699 1067 q 783 1036 763 1063 l 988 788 m 293 1036 q 346 1065 314 1063 q 401 1047 378 1067 q 429 994 426 1026 q 413 939 432 963 l 207 689 q 154 661 186 664 q 99 679 122 658 q 70 731 74 699 q 88 788 67 763 l 293 1036 m 708 1138 q 797 1071 758 1111 q 858 981 836 1031 l 789 1065 q 728 1093 767 1093 q 657 1067 690 1093 q 618 1001 625 1039 q 635 938 611 964 l 697 860 l 379 860 l 442 938 q 458 1001 465 964 q 417 1067 450 1039 q 347 1093 385 1093 q 286 1065 308 1093 l 215 979 q 276 1071 238 1031 q 368 1139 315 1111 l 317 1225 q 321 1240 313 1233 q 335 1236 329 1246 l 388 1147 q 460 1171 422 1163 q 538 1179 497 1179 q 615 1171 578 1179 q 688 1147 653 1163 l 739 1238 q 754 1242 746 1247 q 758 1228 763 1238 l 708 1138 m 860 663 q 883 644 868 651 l 883 332 q 859 272 883 296 q 801 249 835 249 l 744 249 l 744 78 q 722 23 744 46 q 667 0 699 0 q 612 23 635 0 q 589 78 589 46 l 589 249 l 486 249 l 486 78 q 463 23 486 46 q 408 0 440 0 q 353 23 376 0 q 331 78 331 46 l 331 249 l 275 249 q 217 272 240 249 q 193 332 193 296 l 193 644 q 204 651 199 647 q 215 663 210 656 l 356 833 l 719 833 l 860 663 m 674 493 q 650 596 674 567 q 575 628 626 628 q 485 583 519 628 l 483 583 l 483 753 l 410 753 l 410 326 l 483 326 l 483 485 q 503 542 483 515 q 549 569 522 569 q 590 551 576 569 q 601 486 601 536 l 601 326 l 674 326 l 674 493 z "},"I":{"ha":1256,"x_min":63,"x_max":1192,"o":"m 1176 879 q 1183 821 1192 851 q 1146 775 1174 790 q 1087 769 1118 760 q 1042 806 1056 778 l 961 956 q 976 860 976 907 l 282 860 q 307 981 282 924 l 214 808 q 168 770 199 779 q 110 776 138 761 q 72 822 82 792 q 78 881 63 853 l 231 1165 q 277 1203 246 1193 q 336 1199 308 1214 q 373 1152 364 1183 q 367 1093 382 1121 l 328 1019 q 460 1139 374 1093 l 407 1225 q 410 1240 403 1233 q 426 1236 422 1244 l 479 1147 q 551 1171 514 1163 q 628 1179 588 1179 q 707 1171 668 1179 q 779 1147 746 1163 l 831 1238 q 846 1243 839 1249 q 850 1228 856 1236 l 800 1138 q 915 1042 868 1101 l 888 1092 q 882 1151 872 1119 q 919 1197 892 1182 q 978 1202 947 1213 q 1024 1164 1008 1192 l 1176 879 m 471 985 q 491 994 482 985 q 500 1015 500 1003 q 491 1035 500 1026 q 471 1043 482 1043 q 450 1035 458 1043 q 442 1015 442 1026 q 450 994 442 1003 q 471 985 458 985 m 788 985 q 808 994 800 985 q 817 1015 817 1003 q 808 1035 817 1026 q 788 1043 800 1043 q 767 1035 775 1043 q 758 1015 758 1026 q 767 994 758 1003 q 788 985 775 985 m 974 833 l 974 332 q 950 273 974 297 q 892 249 926 249 l 836 249 l 836 78 q 813 23 836 46 q 758 0 790 0 q 703 23 726 0 q 681 78 681 46 l 681 249 l 576 249 l 576 78 q 554 23 576 46 q 500 0 532 0 q 445 23 468 0 q 422 78 422 46 l 422 249 l 367 249 q 307 273 331 249 q 283 332 283 297 l 283 833 l 974 833 m 671 742 l 585 742 l 585 328 l 671 328 l 671 742 z "},"i":{"ha":1256,"x_min":63,"x_max":1192,"o":"m 1176 879 q 1183 821 1192 851 q 1146 775 1174 790 q 1088 769 1118 760 q 1042 806 1057 778 l 961 956 q 976 860 976 907 l 282 860 q 307 981 282 924 l 214 808 q 168 770 199 779 q 110 776 138 761 q 72 822 82 792 q 78 881 63 853 l 231 1167 q 250 1190 238 1181 q 277 1203 263 1199 q 307 1207 292 1208 q 336 1199 322 1206 q 373 1152 364 1183 q 367 1093 382 1121 l 328 1019 q 460 1139 375 1096 l 407 1225 q 411 1240 401 1236 q 426 1238 421 1246 l 479 1149 q 551 1171 514 1163 q 628 1179 588 1179 q 707 1171 668 1179 q 779 1149 746 1163 l 831 1239 q 846 1243 839 1247 q 850 1228 856 1236 l 800 1138 q 915 1042 868 1101 l 888 1093 q 882 1151 872 1121 q 919 1197 892 1182 q 978 1203 947 1213 q 1025 1165 1010 1193 l 1176 879 m 471 985 q 491 994 482 985 q 500 1015 500 1003 q 491 1035 500 1026 q 471 1043 482 1043 q 450 1035 458 1043 q 442 1015 442 1026 q 450 994 442 1003 q 471 985 458 985 m 788 985 q 808 994 800 985 q 817 1015 817 1003 q 808 1035 817 1026 q 788 1043 800 1043 q 767 1035 776 1043 q 758 1015 758 1026 q 767 994 758 1003 q 788 985 776 985 m 974 833 l 974 332 q 950 273 974 297 q 892 249 926 249 l 836 249 l 836 78 q 813 23 836 46 q 758 0 790 0 q 704 23 726 0 q 682 78 682 46 l 682 249 l 576 249 l 576 78 q 554 23 576 46 q 500 0 532 0 q 445 23 468 0 q 422 78 422 46 l 422 249 l 367 249 q 308 273 332 249 q 285 332 285 297 l 285 833 l 974 833 m 665 624 l 589 624 l 589 328 l 665 328 l 665 624 m 665 753 l 589 753 l 589 685 l 665 685 l 665 753 z "},"J":{"ha":1232,"x_min":69,"x_max":1163,"o":"m 1163 447 q 1141 392 1163 415 q 1088 369 1119 369 q 1033 392 1056 369 q 1010 447 1010 415 l 1010 769 q 1033 824 1010 801 q 1088 847 1056 847 q 1141 824 1119 847 q 1163 769 1163 801 l 1163 447 m 803 1138 q 933 1024 883 1097 q 982 860 982 950 l 286 860 q 334 1022 286 949 q 461 1136 382 1094 l 407 1226 q 410 1240 401 1238 q 426 1239 418 1247 l 481 1146 q 554 1170 515 1161 q 633 1179 593 1179 q 712 1171 674 1179 q 783 1147 750 1163 l 836 1242 q 844 1247 839 1246 q 851 1246 849 1249 q 856 1231 860 1239 l 803 1138 m 660 971 q 681 979 672 971 q 689 1000 689 988 q 681 1021 689 1013 q 660 1029 672 1029 q 640 1021 649 1029 q 631 1000 631 1013 q 640 979 631 988 q 660 971 649 971 m 832 1006 q 854 1015 846 1006 q 863 1035 863 1024 q 854 1056 863 1047 q 832 1064 846 1064 q 813 1056 821 1064 q 804 1035 804 1047 q 813 1015 804 1024 q 832 1006 821 1006 m 979 833 l 979 331 q 955 272 979 296 q 897 249 931 249 l 840 249 l 840 78 q 818 23 840 46 q 764 0 796 0 q 709 23 732 0 q 686 78 686 46 l 686 249 l 582 249 l 582 78 q 559 23 582 46 q 504 0 536 0 q 450 23 472 0 q 428 78 428 46 l 428 249 l 372 249 q 313 272 338 249 q 289 331 289 296 l 289 657 l 147 657 q 94 678 115 657 q 71 731 72 699 l 69 731 l 69 914 q 92 978 69 951 q 147 1006 115 1006 q 202 978 179 1006 q 225 914 225 951 l 225 813 l 289 813 l 289 833 l 979 833 m 738 743 l 654 743 l 654 500 q 635 413 654 440 q 571 388 614 388 q 486 414 535 388 l 469 349 q 574 324 517 324 q 699 361 658 324 q 738 488 738 400 l 738 743 z "},"j":{"ha":1233,"x_min":69,"x_max":1164,"o":"m 1164 447 q 1142 392 1164 415 q 1088 369 1119 369 q 1033 392 1056 369 q 1011 447 1011 415 l 1011 771 q 1033 826 1011 803 q 1088 849 1056 849 q 1142 826 1119 849 q 1164 771 1164 803 l 1164 447 m 804 1139 q 934 1024 885 1099 q 983 861 983 950 l 286 861 q 334 1023 286 950 q 461 1138 382 1096 l 407 1228 q 411 1242 401 1239 q 426 1240 418 1249 l 481 1147 q 555 1172 515 1163 q 635 1181 594 1181 q 713 1172 675 1181 q 785 1149 750 1164 l 838 1243 q 853 1247 842 1253 q 857 1232 861 1240 l 804 1139 m 660 972 q 681 981 672 972 q 690 1000 690 989 q 681 1022 690 1013 q 660 1031 672 1031 q 640 1022 649 1031 q 632 1000 632 1013 q 640 981 632 989 q 660 972 649 972 m 833 1007 q 854 1015 846 1007 q 863 1036 863 1024 q 854 1057 863 1049 q 833 1065 846 1065 q 814 1057 822 1065 q 806 1036 806 1049 q 814 1015 806 1024 q 833 1007 822 1007 m 981 833 l 981 331 q 956 274 981 297 q 899 250 932 250 l 842 250 l 842 78 q 819 23 842 46 q 765 0 797 0 q 710 23 732 0 q 688 78 688 46 l 688 250 l 582 250 l 582 78 q 560 23 582 46 q 506 0 538 0 q 451 23 474 0 q 428 78 428 46 l 428 250 l 372 250 q 313 274 338 250 q 289 331 289 297 l 289 658 l 147 658 q 94 679 115 658 q 71 732 72 700 l 69 732 l 69 915 q 92 980 69 953 q 147 1007 115 1007 q 202 980 179 1007 q 225 915 225 953 l 225 813 l 289 813 l 289 833 l 981 833 m 679 690 l 601 690 l 601 404 q 582 338 601 351 q 503 322 567 322 l 507 264 q 643 294 608 264 q 679 410 679 324 l 679 690 m 679 821 l 601 821 l 601 753 l 679 753 l 679 821 z "},"K":{"ha":1354,"x_min":63,"x_max":1290,"o":"m 1281 364 q 1275 303 1290 332 q 1229 267 1260 275 q 1169 273 1197 257 q 1132 321 1142 289 l 1044 633 q 1051 694 1035 665 q 1096 732 1067 722 q 1155 724 1128 739 q 1192 678 1182 708 l 1281 364 m 896 140 q 928 89 924 121 q 914 32 933 57 q 863 -1 894 4 q 804 13 832 -7 l 653 122 q 623 172 628 140 q 638 231 618 204 q 687 262 656 257 q 746 249 718 267 l 896 140 m 161 678 q 198 724 171 708 q 257 732 225 739 q 304 694 289 722 q 310 633 319 665 l 221 321 q 184 273 213 289 q 124 267 156 257 q 78 303 94 275 q 72 364 63 332 l 161 678 m 582 140 q 613 89 608 121 q 599 33 618 57 q 549 0 581 6 q 492 14 518 -6 l 339 124 q 306 174 311 142 q 321 231 301 206 q 372 263 340 258 q 429 250 403 268 l 582 140 m 850 1033 q 979 919 931 993 q 1028 753 1028 844 l 325 753 q 375 921 325 846 q 508 1036 425 996 l 453 1128 q 457 1143 447 1139 q 474 1140 467 1147 l 531 1044 q 678 1075 600 1075 q 828 1043 760 1075 l 883 1142 q 890 1146 886 1144 q 899 1144 894 1147 q 904 1139 903 1143 q 903 1131 906 1135 l 850 1033 m 517 882 q 547 908 547 882 q 539 929 547 921 q 517 938 531 938 q 497 929 504 938 q 489 908 489 921 q 517 882 489 882 m 838 882 q 857 889 849 882 q 865 908 865 896 q 857 929 865 921 q 838 938 849 938 q 816 929 825 938 q 807 908 807 921 q 816 889 807 896 q 838 882 825 882 m 1025 725 l 1025 219 q 1001 160 1025 185 q 943 136 976 136 l 935 136 q 919 150 931 142 l 792 242 l 857 242 l 685 463 l 853 665 l 756 665 l 608 481 l 607 481 l 607 665 l 528 665 l 528 242 l 607 242 l 607 443 l 608 443 l 731 283 q 669 286 701 297 q 615 247 636 275 q 597 201 600 225 q 599 154 593 176 l 431 275 q 380 291 407 292 q 328 272 353 290 l 328 725 l 1025 725 z "},"k":{"ha":1350,"x_min":64,"x_max":1288,"o":"m 1278 363 q 1272 303 1288 331 q 1226 265 1257 275 q 1166 273 1194 257 q 1129 319 1138 289 l 1040 632 q 1047 692 1032 664 q 1093 729 1063 719 q 1153 721 1125 736 q 1189 675 1181 706 l 1278 363 m 894 140 q 926 90 921 121 q 913 31 932 58 q 862 -1 893 4 q 804 13 831 -7 l 653 121 q 622 172 626 140 q 636 231 617 203 q 687 261 656 256 q 743 247 718 267 l 894 140 m 163 675 q 199 721 171 706 q 258 729 226 736 q 304 692 289 719 q 310 632 319 664 l 222 319 q 185 273 214 289 q 125 265 157 257 q 79 303 94 275 q 72 363 64 331 l 163 675 m 581 140 q 613 90 607 121 q 599 32 618 58 q 548 0 579 6 q 490 14 517 -6 l 339 122 q 307 173 313 142 q 321 231 301 204 q 372 263 340 257 q 429 249 403 268 l 581 140 m 847 1029 q 976 915 926 989 q 1025 750 1025 840 l 326 750 q 376 916 326 842 q 508 1032 426 990 l 453 1124 q 457 1139 449 1132 q 474 1135 467 1144 l 529 1040 q 676 1069 596 1069 q 826 1039 760 1069 l 882 1136 q 897 1140 888 1147 q 900 1126 906 1135 l 847 1029 m 517 876 q 538 885 529 876 q 546 906 546 893 q 538 926 546 917 q 517 935 529 935 q 496 926 504 935 q 488 906 488 917 q 496 885 488 893 q 517 876 504 876 m 835 876 q 856 885 847 876 q 864 906 864 893 q 856 926 864 917 q 835 935 847 935 q 815 926 824 935 q 806 906 806 917 q 815 885 806 893 q 835 876 824 876 m 694 289 q 654 280 674 289 q 619 253 635 271 l 619 374 l 621 374 l 694 289 m 1022 722 l 1022 218 q 999 160 1022 185 q 940 136 975 136 l 932 136 l 918 150 l 790 240 l 828 240 l 682 399 l 825 542 l 735 542 l 621 424 l 619 424 l 619 674 l 544 674 l 544 240 l 611 240 q 594 197 597 219 q 599 154 592 175 l 431 275 q 381 290 408 290 q 329 272 353 289 l 329 722 l 1022 722 z "},"L":{"ha":1475,"x_min":63,"x_max":1413,"o":"m 1397 540 q 1402 482 1413 513 q 1364 436 1392 451 q 1304 431 1335 421 q 1258 469 1274 440 l 1113 758 q 1107 817 1097 786 q 1146 863 1117 847 q 1204 867 1174 878 q 1250 829 1235 857 l 1397 540 m 225 829 q 271 867 240 857 q 331 863 301 878 q 369 817 358 847 q 364 758 379 786 l 217 469 q 171 431 201 440 q 111 436 140 421 q 73 482 83 451 q 78 540 63 513 l 225 829 m 908 1136 q 1037 1021 988 1094 q 1086 856 1086 947 l 390 856 q 440 1022 390 947 q 571 1136 489 1096 l 515 1229 q 514 1237 513 1232 q 519 1244 515 1242 q 535 1240 531 1253 l 592 1146 q 738 1176 661 1176 q 815 1168 778 1176 q 886 1144 851 1160 l 942 1243 q 957 1247 947 1254 q 964 1240 963 1244 q 963 1232 965 1235 l 908 1136 m 579 986 q 600 995 592 986 q 608 1015 608 1004 q 600 1036 608 1028 q 579 1044 592 1044 q 559 1036 568 1044 q 550 1015 550 1028 q 559 995 550 1004 q 579 986 568 986 m 896 986 q 917 995 908 986 q 926 1015 926 1004 q 917 1036 926 1028 q 896 1044 908 1044 q 876 1036 885 1044 q 868 1015 868 1028 q 876 995 868 1004 q 896 986 885 986 m 1083 833 l 1083 332 q 1059 273 1083 297 q 1001 249 1035 249 l 946 249 l 946 78 q 923 23 946 46 q 868 0 900 0 q 813 23 836 0 q 790 78 790 46 l 790 249 l 685 249 l 685 78 q 663 23 685 46 q 608 0 640 0 q 553 23 576 0 q 531 78 531 46 l 531 249 l 475 249 q 417 273 440 249 q 393 332 393 297 l 393 833 l 1083 833 m 879 394 l 697 394 l 697 744 l 614 744 l 614 329 l 879 329 l 879 394 z "},"l":{"ha":1475,"x_min":63,"x_max":1413,"o":"m 1397 540 q 1402 482 1413 513 q 1364 436 1392 451 q 1304 431 1335 421 q 1258 469 1274 440 l 1113 758 q 1107 817 1097 786 q 1146 863 1117 847 q 1204 867 1174 878 q 1250 829 1235 857 l 1397 540 m 225 829 q 271 867 240 857 q 331 863 301 878 q 369 817 358 847 q 364 758 379 786 l 217 469 q 171 431 201 440 q 111 436 140 421 q 73 482 83 451 q 78 540 63 513 l 225 829 m 908 1136 q 1037 1021 988 1094 q 1086 856 1086 947 l 390 856 q 440 1022 390 947 q 571 1136 489 1096 l 515 1229 q 514 1237 513 1232 q 519 1244 515 1242 q 535 1240 531 1253 l 592 1146 q 738 1176 661 1176 q 815 1168 778 1176 q 886 1144 851 1160 l 942 1243 q 957 1247 947 1254 q 964 1240 963 1244 q 963 1232 965 1235 l 908 1136 m 579 986 q 600 995 592 986 q 608 1015 608 1004 q 600 1036 608 1028 q 579 1044 592 1044 q 559 1036 568 1044 q 550 1015 550 1028 q 559 995 550 1004 q 579 986 568 986 m 896 986 q 917 995 908 986 q 926 1015 926 1004 q 917 1036 926 1028 q 896 1044 908 1044 q 876 1036 885 1044 q 868 1015 868 1028 q 876 995 868 1004 q 896 986 885 986 m 1083 833 l 1083 332 q 1059 273 1083 297 q 1001 249 1035 249 l 946 249 l 946 78 q 923 23 946 46 q 868 0 900 0 q 813 23 836 0 q 790 78 790 46 l 790 249 l 685 249 l 685 78 q 663 23 685 46 q 608 0 640 0 q 553 23 576 0 q 531 78 531 46 l 531 249 l 475 249 q 417 273 440 249 q 393 332 393 297 l 393 833 l 1083 833 m 776 756 l 699 756 l 699 329 l 776 329 l 776 756 z "},"M":{"ha":1124,"x_min":69,"x_max":1058,"o":"m 69 771 q 92 826 69 803 q 147 849 115 849 q 202 826 179 849 q 225 771 225 803 l 225 447 q 202 392 225 415 q 147 369 179 369 q 92 392 115 369 q 69 447 69 415 l 69 771 m 1039 779 q 1054 720 1058 751 q 1024 669 1050 689 q 967 654 999 650 q 915 685 935 658 l 719 943 q 704 999 700 968 q 735 1050 708 1031 q 792 1065 761 1069 q 843 1036 824 1061 l 1039 779 m 768 1140 q 867 1067 825 1113 q 929 963 908 1021 l 851 1067 q 792 1097 831 1094 q 719 1074 753 1099 q 678 1010 686 1049 q 692 944 669 972 l 754 860 l 251 860 q 301 1026 251 951 q 433 1142 351 1101 l 379 1232 q 383 1247 375 1240 q 391 1249 386 1250 q 399 1243 396 1247 l 454 1150 q 599 1181 524 1181 q 676 1172 639 1181 q 749 1149 714 1164 l 803 1244 q 817 1249 807 1253 q 821 1233 826 1242 l 768 1140 m 442 988 q 463 996 454 988 q 471 1015 471 1004 q 463 1037 471 1028 q 442 1046 454 1046 q 421 1037 429 1046 q 413 1015 413 1028 q 421 996 413 1004 q 442 988 429 988 m 908 656 q 946 628 924 636 l 946 332 q 922 273 946 297 q 864 249 897 249 l 807 249 l 807 78 q 784 23 807 46 q 729 0 761 0 q 675 23 697 0 q 653 78 653 46 l 653 249 l 547 249 l 547 78 q 525 23 547 46 q 471 0 503 0 q 416 23 439 0 q 393 78 393 46 l 393 249 l 336 249 q 278 273 301 249 q 254 332 254 297 l 254 833 l 772 833 l 908 656 m 807 744 l 724 744 l 600 500 l 599 500 l 475 744 l 396 744 l 396 329 l 471 329 l 471 610 l 472 610 l 564 433 l 636 433 l 726 610 l 728 610 l 728 329 l 807 329 l 807 744 z "},"m":{"ha":1124,"x_min":69,"x_max":1057,"o":"m 69 771 q 92 826 69 803 q 147 849 115 849 q 202 826 179 849 q 225 771 225 803 l 225 447 q 202 393 225 415 q 147 371 179 371 q 92 393 115 371 q 69 447 69 415 l 69 771 m 1038 779 q 1053 722 1057 753 q 1024 671 1049 690 q 965 656 997 651 q 914 686 933 660 l 719 943 q 704 1000 700 968 q 735 1051 708 1032 q 791 1067 760 1071 q 842 1036 822 1063 l 1038 779 m 767 1140 q 865 1067 824 1113 q 929 963 907 1021 l 851 1067 q 790 1097 829 1094 q 719 1074 751 1100 q 677 1010 685 1049 q 690 944 669 972 l 754 861 l 250 861 q 301 1027 250 953 q 433 1142 351 1101 l 379 1232 q 382 1247 375 1240 q 399 1243 393 1253 l 454 1150 q 599 1181 522 1181 q 676 1172 639 1181 q 747 1149 714 1164 l 801 1244 q 817 1249 806 1254 q 819 1233 825 1240 l 767 1140 m 440 988 q 463 996 454 988 q 471 1015 471 1004 q 440 1046 471 1046 q 421 1038 429 1046 q 413 1015 413 1029 q 421 996 413 1004 q 440 988 429 988 m 908 656 q 924 640 915 646 q 944 629 933 633 l 944 333 q 921 274 944 299 q 863 250 897 250 l 806 250 l 806 79 q 783 24 806 47 q 728 1 760 1 q 674 24 696 1 q 651 79 651 47 l 651 250 l 547 250 l 547 79 q 525 24 547 47 q 471 1 503 1 q 416 24 439 1 q 393 79 393 47 l 393 250 l 336 250 q 278 274 301 250 q 254 333 254 299 l 254 833 l 772 833 l 908 656 m 803 517 q 781 606 803 579 q 711 632 757 632 q 625 583 660 632 l 624 583 q 609 606 617 596 q 590 619 601 615 q 546 632 574 632 q 469 586 503 632 l 468 586 l 467 626 l 399 626 l 399 331 l 472 331 l 472 500 q 488 553 472 533 q 522 575 501 575 q 556 560 547 575 q 565 500 565 544 l 565 331 l 638 331 l 638 500 q 653 553 638 531 q 688 575 668 575 q 722 560 711 575 q 731 500 731 543 l 731 331 l 803 331 l 803 517 z "},"N":{"ha":1204,"x_min":69,"x_max":1135,"o":"m 69 774 q 92 828 69 806 q 147 851 115 851 q 202 828 179 851 q 225 774 225 806 l 225 449 q 202 394 225 417 q 147 371 179 371 q 92 394 115 371 q 69 449 69 417 l 69 774 m 1135 449 q 1112 394 1135 417 q 1057 371 1089 371 q 1002 394 1025 371 q 979 449 979 417 l 979 774 q 1002 828 979 806 q 1057 851 1025 851 q 1112 828 1089 851 q 1135 774 1135 806 l 1135 449 m 776 1143 q 903 1028 856 1101 q 951 864 951 954 l 943 864 q 781 939 871 914 q 598 964 692 964 q 415 940 504 964 q 253 865 325 915 q 301 1028 253 956 q 429 1143 350 1101 l 375 1235 q 379 1251 369 1244 q 397 1247 390 1257 l 453 1154 q 601 1185 525 1185 q 753 1153 682 1185 l 807 1249 q 824 1254 814 1260 q 829 1238 835 1247 l 776 1143 m 443 990 q 463 999 454 990 q 472 1019 472 1008 q 463 1040 472 1032 q 443 1049 454 1049 q 422 1040 431 1049 q 414 1019 414 1032 q 422 999 414 1008 q 443 990 431 990 m 761 990 q 782 999 774 990 q 790 1019 790 1008 q 782 1040 790 1032 q 761 1049 774 1049 q 740 1040 749 1049 q 732 1019 732 1032 q 740 999 732 1008 q 761 990 749 990 m 256 836 q 418 761 328 786 q 602 735 508 736 q 786 759 696 735 q 950 833 876 783 l 950 332 q 926 274 950 299 q 867 250 901 250 l 810 250 l 810 79 q 787 24 810 47 q 732 0 764 0 q 678 24 700 0 q 656 79 656 47 l 656 250 l 550 250 l 550 79 q 527 24 550 47 q 472 0 504 0 q 417 24 440 0 q 394 79 394 47 l 394 250 l 339 250 q 279 274 303 250 q 256 332 256 299 l 256 836 m 767 728 l 689 728 l 689 444 l 688 444 l 515 728 l 438 728 l 438 310 l 515 310 l 515 594 l 517 594 l 689 310 l 767 310 l 767 728 z "},"n":{"ha":1204,"x_min":69,"x_max":1135,"o":"m 69 774 q 92 829 69 806 q 147 853 115 853 q 202 829 179 853 q 225 774 225 806 l 225 450 q 202 395 225 418 q 147 372 179 372 q 92 395 115 372 q 69 450 69 418 l 69 774 m 1135 450 q 1112 395 1135 418 q 1057 372 1089 372 q 1003 395 1025 372 q 981 450 981 418 l 981 774 q 1003 829 981 806 q 1057 853 1025 853 q 1112 829 1089 853 q 1135 774 1135 806 l 1135 450 m 776 1143 q 903 1028 856 1101 q 951 864 951 954 l 944 864 q 781 939 871 914 q 598 964 692 964 q 415 940 504 964 q 253 865 325 915 q 301 1029 253 956 q 429 1143 350 1103 l 375 1236 q 374 1244 372 1239 q 381 1253 375 1250 q 389 1254 383 1256 q 397 1247 394 1253 l 453 1156 q 601 1185 521 1185 q 753 1154 686 1185 l 807 1250 q 824 1256 814 1258 q 829 1238 835 1249 l 776 1143 m 443 992 q 464 1000 456 992 q 472 1019 472 1008 q 464 1041 472 1032 q 443 1050 456 1050 q 422 1041 431 1050 q 414 1019 414 1032 q 422 1000 414 1008 q 443 992 431 992 m 763 992 q 782 1000 774 992 q 790 1019 790 1008 q 782 1041 790 1032 q 763 1050 774 1050 q 740 1041 749 1050 q 732 1019 732 1032 q 740 1000 732 1008 q 763 992 749 992 m 256 836 q 418 761 328 786 q 602 735 508 736 q 786 760 696 735 q 950 835 876 785 l 950 332 q 926 275 950 299 q 867 251 901 251 l 810 251 l 810 79 q 787 24 810 47 q 732 0 764 0 q 678 24 700 0 q 656 79 656 47 l 656 251 l 550 251 l 550 79 q 527 24 550 47 q 472 0 504 0 q 417 24 440 0 q 394 79 394 47 l 394 251 l 339 251 q 279 275 303 251 q 256 332 256 299 l 256 836 m 736 493 q 711 596 736 564 q 636 628 688 628 q 583 615 610 628 q 542 581 560 604 l 540 581 l 539 622 l 469 622 l 469 325 l 543 325 l 543 483 q 564 543 543 518 q 610 569 588 569 q 651 551 638 569 q 663 485 663 536 l 663 325 l 736 325 l 736 493 z "},"O":{"ha":1404,"x_min":63,"x_max":1340,"o":"m 1322 839 q 1332 778 1340 810 q 1296 728 1324 746 q 1233 717 1267 710 q 1183 754 1200 725 l 1007 1046 q 997 1107 989 1075 q 1035 1157 1006 1139 q 1096 1167 1063 1175 q 1147 1131 1129 1160 l 1322 839 m 396 839 q 406 778 414 810 q 369 728 397 746 q 308 717 340 710 q 257 754 275 725 l 81 1046 q 71 1107 63 1075 q 108 1157 79 1139 q 169 1167 136 1175 q 219 1131 203 1160 l 396 839 m 1090 861 l 417 861 q 469 1033 417 956 q 606 1154 521 1110 l 550 1246 q 549 1255 547 1250 q 554 1263 550 1260 q 569 1258 563 1267 l 625 1164 q 783 1197 697 1197 q 867 1188 828 1197 q 943 1164 907 1179 l 999 1261 q 1014 1264 1004 1269 q 1019 1258 1018 1263 q 1018 1249 1021 1253 l 964 1153 q 981 1143 975 1149 q 965 1094 967 1119 q 976 1049 963 1069 l 1090 861 m 617 994 q 639 1003 631 994 q 647 1024 647 1011 q 639 1046 647 1036 q 617 1056 631 1056 q 595 1046 604 1056 q 586 1024 586 1036 q 595 1003 586 1011 q 617 994 604 994 m 950 994 q 972 1003 963 994 q 981 1024 981 1011 q 972 1046 981 1036 q 950 1056 963 1056 q 928 1046 938 1056 q 919 1024 919 1036 q 928 1003 919 1011 q 950 994 938 994 m 786 681 q 878 642 843 681 q 911 533 911 604 q 878 424 911 461 q 786 385 843 385 q 692 424 726 385 q 658 533 658 464 q 692 642 658 601 q 786 681 726 681 m 1142 121 q 1151 60 1160 93 q 1115 10 1143 26 q 1053 -1 1086 -10 q 1003 35 1021 7 l 900 201 q 896 209 897 204 q 892 218 894 214 l 771 218 l 831 124 q 841 62 849 94 q 804 11 833 29 q 743 1 776 -7 q 692 38 710 8 l 589 203 q 582 218 583 210 l 507 218 q 446 243 471 218 q 421 304 421 268 l 421 832 l 1147 832 l 1147 304 q 1128 250 1147 272 q 1079 221 1108 228 l 1142 121 m 936 376 q 993 533 993 433 q 936 689 993 632 q 786 747 879 747 q 635 689 690 747 q 578 533 578 629 q 635 376 578 436 q 786 319 692 319 q 936 376 879 319 z "},"o":{"ha":1406,"x_min":64,"x_max":1342,"o":"m 1324 840 q 1333 778 1342 811 q 1296 729 1324 746 q 1234 719 1267 711 q 1183 756 1201 726 l 1008 1047 q 999 1108 990 1076 q 1036 1158 1007 1140 q 1097 1168 1064 1176 q 1147 1131 1129 1160 l 1324 840 m 397 840 q 407 778 415 811 q 369 729 399 746 q 309 719 342 711 q 258 756 276 726 l 82 1047 q 72 1108 64 1076 q 110 1158 81 1140 q 171 1168 138 1176 q 221 1131 204 1160 l 397 840 m 1092 863 l 418 863 q 470 1034 418 957 q 607 1156 522 1111 l 551 1247 q 556 1263 544 1257 q 571 1258 563 1269 l 626 1164 q 785 1199 700 1199 q 868 1189 828 1199 q 944 1164 908 1179 l 1000 1261 q 1015 1265 1004 1271 q 1019 1250 1026 1260 l 965 1154 q 974 1149 971 1151 q 982 1144 978 1147 q 966 1096 968 1121 q 978 1050 964 1071 l 1092 863 m 618 994 q 640 1003 631 994 q 649 1025 649 1013 q 640 1047 649 1038 q 618 1056 631 1056 q 597 1047 606 1056 q 588 1025 588 1038 q 597 1003 588 1013 q 618 994 606 994 m 951 994 q 973 1003 964 994 q 982 1025 982 1013 q 973 1047 982 1038 q 951 1056 964 1056 q 930 1047 939 1056 q 921 1025 921 1038 q 930 1003 921 1013 q 951 994 939 994 m 785 572 q 838 547 815 572 q 857 474 857 521 q 838 401 857 428 q 785 376 815 376 q 729 401 751 376 q 710 474 710 428 q 729 547 710 521 q 785 572 751 572 m 1142 122 q 1152 61 1160 94 q 1117 11 1144 28 q 1055 0 1088 -8 q 1004 36 1022 8 l 901 203 q 897 210 899 206 q 893 219 896 215 l 772 219 l 832 125 q 842 63 850 96 q 804 13 833 31 q 744 2 776 -6 q 693 39 711 10 l 590 204 q 583 219 585 211 l 508 219 q 447 244 472 219 q 422 306 422 269 l 422 833 l 1149 833 l 1149 306 q 1129 251 1149 274 q 1081 222 1110 229 l 1142 122 m 892 363 q 931 474 931 406 q 892 586 931 544 q 785 628 851 628 q 676 586 714 628 q 636 474 636 546 q 676 363 636 406 q 785 321 715 321 q 892 363 850 321 z "},"P":{"ha":947,"x_min":67,"x_max":878,"o":"m 800 910 q 855 888 832 910 q 878 833 878 865 q 855 778 878 801 q 800 756 832 756 l 782 756 l 782 693 q 759 638 782 661 q 704 615 736 615 q 650 638 672 615 q 628 693 628 661 l 628 756 l 479 756 q 424 778 447 756 q 401 833 401 801 q 424 888 401 865 q 479 910 447 910 l 628 910 l 628 1017 q 650 1072 628 1049 q 704 1094 672 1094 q 759 1072 736 1094 q 782 1017 782 1049 l 782 910 l 800 910 m 583 1139 q 644 1099 618 1119 q 614 1069 625 1088 q 603 1029 603 1051 l 603 938 l 460 938 q 408 915 432 938 q 378 860 385 893 l 67 860 q 116 1025 67 951 q 247 1140 165 1099 l 192 1232 q 196 1247 186 1243 q 211 1244 206 1253 l 267 1150 q 336 1172 300 1164 q 413 1179 372 1179 q 563 1147 494 1179 l 618 1244 q 633 1249 624 1256 q 636 1235 642 1243 l 583 1139 m 256 986 q 276 995 268 986 q 285 1015 285 1004 q 276 1035 285 1026 q 256 1044 268 1044 q 235 1035 243 1044 q 226 1015 226 1026 q 235 995 226 1004 q 256 986 243 986 m 571 986 q 591 995 582 986 q 600 1015 600 1004 q 591 1035 600 1026 q 571 1044 582 1044 q 551 1035 560 1044 q 542 1015 542 1026 q 551 995 542 1004 q 571 986 560 986 m 704 588 q 757 600 733 588 l 757 331 q 733 273 757 297 q 675 249 710 249 l 619 249 l 619 78 q 597 23 619 46 q 542 0 574 0 q 488 23 510 0 q 465 78 465 46 l 465 249 l 361 249 l 361 78 q 339 23 361 46 q 285 0 317 0 q 231 23 253 0 q 208 78 208 46 l 208 249 l 151 249 q 94 273 118 249 q 69 331 69 297 l 69 833 l 375 833 q 385 787 375 808 q 411 753 396 765 l 401 753 q 339 750 369 753 q 281 744 308 747 l 281 329 l 357 329 l 357 478 q 381 476 368 476 q 410 475 393 475 q 526 511 486 475 q 567 621 567 549 q 525 718 567 685 q 499 735 514 729 l 601 735 l 601 672 q 631 613 601 638 q 704 588 661 588 m 357 686 q 401 690 378 690 q 493 614 493 690 q 469 556 493 576 q 401 536 446 536 q 357 540 378 536 l 357 686 z "},"p":{"ha":975,"x_min":68,"x_max":906,"o":"m 825 910 q 882 888 858 910 q 906 833 906 865 q 882 778 906 801 q 825 756 858 756 l 806 756 l 806 693 q 782 638 806 661 q 726 615 758 615 q 670 638 693 615 q 647 693 647 661 l 647 756 l 494 756 q 438 778 461 756 q 414 833 414 801 q 438 888 414 865 q 494 910 461 910 l 647 910 l 647 1017 q 670 1072 647 1049 q 726 1094 693 1094 q 782 1072 758 1094 q 806 1017 806 1049 l 806 910 l 825 910 m 601 1139 q 633 1119 618 1129 q 664 1099 649 1110 q 633 1069 644 1088 q 622 1029 622 1051 l 622 938 l 475 938 q 421 915 444 938 q 389 860 397 893 l 68 860 q 119 1025 68 951 q 254 1140 171 1099 l 197 1232 q 201 1247 193 1240 q 218 1243 211 1253 l 275 1150 q 347 1172 310 1164 q 425 1179 385 1179 q 581 1147 508 1179 l 638 1244 q 653 1249 643 1256 q 657 1235 661 1244 l 601 1139 m 263 986 q 284 995 275 986 q 293 1015 293 1004 q 284 1035 293 1026 q 263 1044 275 1044 q 242 1035 250 1044 q 233 1015 233 1026 q 242 995 233 1004 q 263 986 250 986 m 588 986 q 610 995 601 986 q 619 1015 619 1004 q 610 1035 619 1026 q 588 1044 601 1044 q 567 1035 576 1044 q 558 1015 558 1026 q 567 995 558 1004 q 588 986 576 986 m 726 586 q 781 600 756 586 l 781 331 q 756 273 781 297 q 696 249 732 249 l 639 249 l 639 78 q 615 23 639 46 q 558 0 592 0 q 502 23 525 0 q 479 78 479 46 l 479 249 l 372 249 l 372 78 q 349 23 372 46 q 293 0 325 0 q 237 23 260 0 q 214 78 214 46 l 214 249 l 156 249 q 96 273 121 249 q 71 331 71 297 l 71 833 l 386 833 q 413 764 388 793 q 475 735 439 735 l 621 735 l 621 672 q 651 612 621 638 q 726 586 682 586 m 540 429 q 574 543 574 468 q 542 658 574 621 q 456 697 511 697 q 365 650 399 697 l 364 650 l 363 692 l 294 692 l 294 268 l 368 268 l 368 431 q 456 389 401 389 q 540 429 508 389 m 435 639 q 485 615 468 639 q 503 543 503 590 q 483 472 503 496 q 435 447 464 447 q 386 471 406 447 q 368 540 368 494 l 368 547 q 386 614 368 590 q 435 639 404 639 z "},"Q":{"ha":1103,"x_min":69,"x_max":1033,"o":"m 69 739 q 90 790 69 769 q 140 811 111 811 q 190 790 169 811 q 210 739 210 769 l 210 428 q 190 376 210 397 q 140 354 169 354 q 90 376 111 354 q 69 428 69 397 l 69 739 m 1033 428 q 1013 376 1033 397 q 963 354 992 354 q 913 376 933 354 q 893 428 893 397 l 893 739 q 913 790 893 769 q 963 811 933 811 q 1013 790 992 811 q 1033 739 1033 769 l 1033 428 m 868 865 l 867 865 q 797 815 846 835 q 685 785 747 794 q 551 775 622 775 q 418 785 481 775 q 306 815 356 794 q 236 865 257 835 l 236 867 q 281 1002 236 942 q 399 1097 325 1063 l 351 1181 q 349 1188 349 1183 q 353 1194 350 1192 q 368 1192 361 1199 l 417 1104 q 481 1123 447 1117 q 551 1129 515 1129 q 690 1103 628 1129 l 739 1193 q 751 1196 744 1203 q 756 1182 761 1193 l 708 1094 q 824 1001 781 1061 q 868 867 867 940 l 868 865 m 408 944 q 427 953 419 944 q 435 972 435 961 q 427 992 435 983 q 408 1000 419 1000 q 389 992 397 1000 q 381 972 381 983 q 389 953 381 961 q 408 944 397 944 m 696 944 q 715 953 707 944 q 724 972 724 961 q 715 992 724 983 q 696 1000 707 1000 q 677 992 685 1000 q 669 972 669 983 q 677 953 669 961 q 696 944 685 944 m 635 633 q 665 529 665 597 q 635 425 665 460 q 549 388 601 388 q 461 425 494 388 q 429 529 429 461 q 461 633 429 594 q 549 669 493 669 q 635 633 603 669 m 867 836 q 798 787 846 807 q 687 757 750 767 q 554 747 624 747 q 422 757 485 747 q 310 787 358 767 q 240 836 261 807 l 238 836 l 238 322 q 259 263 238 288 q 313 239 281 239 l 364 239 l 364 75 q 385 22 364 43 q 435 0 406 0 q 484 22 464 0 q 504 75 504 43 l 504 239 l 599 239 l 599 75 q 619 22 599 43 q 669 0 640 0 q 719 22 699 0 q 740 75 740 43 l 740 239 l 790 239 q 844 263 822 239 q 867 322 867 288 l 867 836 m 683 247 q 629 310 656 296 q 549 324 606 324 q 407 379 460 324 q 353 529 353 433 q 407 678 353 624 q 549 733 458 733 q 689 678 638 733 q 729 613 717 650 q 742 529 742 575 q 718 426 742 474 q 650 356 696 383 q 717 310 688 336 q 744 281 732 296 q 767 247 756 265 l 683 247 z "},"q":{"ha":1108,"x_min":69,"x_max":1040,"o":"m 69 706 q 90 756 69 736 q 140 776 110 776 q 191 756 169 776 q 213 706 213 736 l 213 410 q 191 360 213 381 q 140 340 169 340 q 90 360 110 340 q 69 410 69 381 l 69 706 m 1040 410 q 1020 360 1040 381 q 971 340 1000 340 q 920 360 942 340 q 899 410 899 381 l 899 706 q 920 756 899 736 q 971 776 942 776 q 1020 756 1000 776 q 1040 706 1040 736 l 1040 410 m 876 826 l 875 826 q 804 778 854 797 q 690 750 754 760 q 556 740 626 740 q 421 750 485 740 q 307 778 357 760 q 236 826 257 797 l 236 828 l 235 828 l 236 828 q 282 958 236 899 q 401 1049 328 1017 l 351 1128 q 356 1142 351 1139 q 371 1139 363 1147 l 418 1057 q 485 1074 450 1068 q 556 1081 519 1081 q 628 1074 592 1081 q 696 1056 664 1067 l 742 1139 q 758 1144 749 1149 q 761 1131 764 1136 l 714 1047 q 831 956 786 1014 q 876 828 875 899 l 876 826 m 410 904 q 428 911 421 904 q 436 929 436 918 q 428 949 436 940 q 410 958 421 958 q 391 949 399 958 q 383 929 383 940 q 391 911 383 918 q 410 904 399 904 m 701 904 q 719 911 713 904 q 726 929 726 918 q 719 949 726 940 q 701 958 713 958 q 681 949 689 958 q 674 929 674 940 q 681 911 674 918 q 701 904 689 904 m 546 596 q 590 574 578 596 q 605 547 601 561 q 608 513 608 532 l 608 506 q 605 469 608 485 q 590 443 601 454 q 546 419 574 419 q 503 443 519 419 q 488 471 492 454 q 485 508 485 488 q 501 574 485 556 q 546 596 514 596 m 874 801 q 804 753 853 772 q 692 726 756 735 q 558 717 629 717 q 424 726 488 717 q 312 755 361 736 q 242 801 263 774 l 239 801 l 239 308 q 261 251 239 274 q 313 228 283 228 l 367 228 l 367 71 q 387 20 367 40 q 436 0 407 0 q 486 20 465 0 q 507 71 507 40 l 507 228 l 604 228 l 604 71 q 624 20 604 40 q 674 0 644 0 q 724 20 704 0 q 744 71 744 40 l 744 228 l 797 228 q 851 251 828 228 q 874 308 874 274 l 874 801 m 676 258 l 608 258 l 608 406 l 607 406 q 526 368 578 368 q 449 404 476 368 q 418 508 418 443 q 449 614 418 579 q 526 651 479 651 q 574 640 554 651 q 611 607 594 628 l 614 646 l 676 646 l 676 258 z "},"R":{"ha":1197,"x_min":69,"x_max":1128,"o":"m 69 771 q 92 826 69 803 q 147 849 115 849 q 201 826 179 849 q 224 771 224 803 l 224 447 q 201 393 224 415 q 147 371 179 371 q 92 393 115 371 q 69 447 69 415 l 69 771 m 1128 447 q 1106 393 1128 415 q 1050 371 1083 371 q 997 393 1018 371 q 975 447 975 415 l 975 771 q 997 826 975 803 q 1050 849 1018 849 q 1106 826 1083 849 q 1128 771 1128 803 l 1128 447 m 813 1164 q 923 1028 886 1110 q 944 857 960 947 l 258 972 q 334 1125 274 1061 q 479 1217 394 1189 l 442 1315 q 449 1331 438 1326 q 457 1331 453 1333 q 463 1325 461 1328 l 501 1224 q 654 1231 575 1243 q 793 1178 732 1215 l 864 1263 q 879 1264 869 1271 q 881 1247 889 1256 l 813 1164 m 500 1090 q 496 1111 503 1101 q 475 1124 489 1121 q 454 1119 464 1126 q 442 1099 444 1111 q 447 1078 439 1088 q 467 1065 456 1068 q 488 1070 478 1063 q 500 1090 497 1078 m 813 1036 q 808 1058 815 1049 q 789 1071 800 1068 q 767 1065 776 1072 q 756 1047 758 1058 q 760 1026 753 1035 q 779 1014 767 1017 q 801 1018 792 1011 q 813 1036 810 1025 m 943 833 l 943 333 q 919 274 943 297 q 861 250 896 250 l 806 250 l 806 79 q 783 24 806 47 q 728 1 760 1 q 674 24 696 1 q 651 79 651 47 l 651 250 l 546 250 l 546 79 q 524 24 546 47 q 469 1 501 1 q 415 24 438 1 q 392 79 392 47 l 392 250 l 336 250 q 278 274 301 250 q 254 333 254 297 l 254 833 l 943 833 m 763 329 l 718 447 q 672 515 699 501 l 672 517 q 729 560 710 529 q 751 631 751 590 q 710 718 751 689 q 586 749 671 749 q 461 740 519 749 l 461 329 l 539 329 l 539 490 l 571 490 q 615 482 603 490 q 638 446 629 472 l 682 329 l 763 329 m 581 688 q 674 622 674 688 q 572 550 674 550 l 539 550 l 539 683 q 581 688 557 688 z "},"r":{"ha":1200,"x_min":69,"x_max":1131,"o":"m 69 771 q 92 826 69 803 q 147 849 115 849 q 202 826 179 849 q 225 771 225 803 l 225 447 q 202 392 225 415 q 147 369 179 369 q 92 392 115 369 q 69 447 69 415 l 69 771 m 1131 447 q 1108 392 1131 415 q 1053 369 1086 369 q 999 392 1021 369 q 976 447 976 415 l 976 771 q 999 826 976 803 q 1053 849 1021 849 q 1108 826 1086 849 q 1131 771 1131 803 l 1131 447 m 814 1165 q 879 1103 851 1138 q 925 1028 907 1068 q 949 946 943 989 q 947 858 954 903 l 260 974 q 335 1126 275 1063 q 481 1218 394 1190 l 443 1317 q 450 1332 439 1328 q 458 1332 453 1335 q 464 1325 463 1329 l 503 1225 q 656 1232 576 1244 q 794 1178 735 1217 l 865 1264 q 881 1265 872 1274 q 882 1249 892 1257 l 814 1165 m 501 1090 q 497 1112 504 1101 q 476 1124 489 1122 q 456 1119 465 1126 q 443 1100 446 1113 q 448 1078 440 1089 q 468 1065 456 1068 q 489 1072 479 1064 q 501 1090 499 1079 m 814 1038 q 809 1058 817 1049 q 790 1071 801 1068 q 769 1067 778 1074 q 757 1047 760 1060 q 762 1026 754 1035 q 781 1014 769 1017 q 802 1019 793 1011 q 814 1038 811 1026 m 946 833 l 946 332 q 922 274 946 297 q 863 250 899 250 l 807 250 l 807 78 q 784 23 807 46 q 729 0 761 0 q 675 23 697 0 q 653 78 653 46 l 653 250 l 547 250 l 547 78 q 524 23 547 46 q 469 0 501 0 q 415 23 438 0 q 393 78 393 46 l 393 250 l 338 250 q 278 274 301 250 q 254 332 254 297 l 254 833 l 946 833 m 713 629 q 578 567 628 629 l 576 567 l 575 624 l 504 624 l 504 328 l 579 328 l 579 457 q 615 539 579 507 q 713 569 647 569 l 713 629 z "},"S":{"ha":1351,"x_min":69,"x_max":1282,"o":"m 1282 447 q 1259 392 1282 415 q 1204 369 1236 369 q 1150 392 1172 369 q 1128 447 1128 415 l 1128 769 q 1150 824 1128 801 q 1204 847 1172 847 q 1259 824 1236 847 q 1282 769 1282 801 l 1282 447 m 383 536 q 373 477 390 504 q 324 444 356 450 q 265 455 292 438 q 233 504 239 472 l 168 821 q 178 878 163 851 q 224 911 194 904 l 69 911 q 119 1076 69 1003 q 250 1190 168 1150 l 197 1281 q 201 1296 189 1292 q 209 1297 204 1299 q 217 1292 214 1296 l 271 1201 q 417 1231 338 1231 q 567 1200 494 1231 l 622 1296 q 638 1300 628 1307 q 642 1285 647 1296 l 588 1189 q 715 1074 667 1147 q 764 911 764 1001 l 265 911 q 300 890 285 906 q 321 853 315 875 l 383 536 m 575 1096 q 556 1087 564 1096 q 547 1065 547 1078 q 556 1046 547 1054 q 575 1038 564 1038 q 597 1046 588 1038 q 606 1065 606 1054 q 597 1087 606 1078 q 575 1096 588 1096 m 258 1096 q 239 1087 247 1096 q 231 1065 231 1078 q 239 1046 231 1054 q 258 1038 247 1038 q 280 1046 271 1038 q 289 1065 289 1054 q 280 1087 289 1078 q 258 1096 271 1096 m 1097 833 l 1097 331 q 1074 273 1097 297 q 1014 249 1050 249 l 958 249 l 958 78 q 936 23 958 46 q 882 0 914 0 q 826 23 849 0 q 804 78 804 46 l 804 249 l 700 249 l 700 78 q 678 23 700 46 q 624 0 656 0 q 568 23 590 0 q 546 78 546 46 l 546 249 l 489 249 q 431 273 456 249 q 407 331 407 297 l 407 833 l 1097 833 m 854 353 q 893 442 893 383 q 861 524 893 492 q 749 578 828 554 q 690 635 690 594 q 707 671 690 656 q 756 685 725 685 q 867 658 815 685 l 883 719 q 754 747 824 747 q 649 715 688 747 q 611 635 611 683 q 643 557 611 589 q 749 504 678 525 q 799 479 783 493 q 813 440 813 465 q 796 399 813 415 q 746 385 775 385 q 629 422 683 385 l 610 360 q 743 322 668 322 q 854 353 818 322 z "},"s":{"ha":1353,"x_min":69,"x_max":1283,"o":"m 1283 447 q 1260 392 1283 415 q 1206 369 1238 369 q 1151 392 1174 369 q 1129 447 1129 415 l 1129 771 q 1151 826 1129 803 q 1206 849 1174 849 q 1260 826 1238 849 q 1283 771 1283 803 l 1283 447 m 383 536 q 373 478 390 504 q 324 444 356 451 q 265 456 292 438 q 233 506 239 474 l 168 822 q 179 879 163 853 q 224 913 196 906 l 69 913 q 119 1078 69 1004 q 250 1192 168 1151 l 197 1282 q 195 1291 194 1286 q 201 1297 196 1296 q 209 1299 204 1300 q 217 1294 214 1297 l 272 1203 q 418 1232 336 1232 q 567 1201 497 1232 l 622 1297 q 638 1301 629 1307 q 643 1286 649 1297 l 589 1190 q 717 1076 668 1149 q 765 913 765 1003 l 265 913 q 321 853 310 899 l 383 536 m 576 1097 q 556 1088 565 1097 q 547 1067 547 1079 q 556 1047 547 1056 q 576 1039 565 1039 q 597 1047 589 1039 q 606 1067 606 1056 q 597 1088 606 1079 q 576 1097 589 1097 m 258 1097 q 239 1088 247 1097 q 231 1067 231 1079 q 239 1047 231 1056 q 258 1039 247 1039 q 280 1047 271 1039 q 289 1067 289 1056 q 280 1088 289 1079 q 258 1097 271 1097 m 1097 833 l 1097 331 q 1074 273 1097 297 q 1015 249 1050 249 l 960 249 l 960 78 q 937 23 960 46 q 882 0 914 0 q 828 23 850 0 q 806 78 806 46 l 806 249 l 701 249 l 701 78 q 678 23 701 46 q 624 0 656 0 q 568 23 590 0 q 546 78 546 46 l 546 249 l 489 249 q 431 273 456 249 q 407 331 407 297 l 407 833 l 1097 833 m 842 346 q 872 410 872 368 q 846 475 872 450 q 810 495 832 488 q 756 508 788 503 q 717 519 725 511 q 704 543 704 528 q 757 572 704 572 q 849 551 803 572 l 864 607 q 810 624 838 618 q 753 629 783 629 q 663 606 694 629 q 632 544 632 583 q 658 481 632 503 q 749 447 686 457 q 788 435 776 442 q 797 411 797 426 q 749 379 797 379 q 646 406 693 379 l 632 350 q 753 322 682 322 q 842 346 810 322 z "},"T":{"ha":1363,"x_min":69,"x_max":1293,"o":"m 850 1140 q 978 1025 929 1099 q 1026 861 1026 951 l 335 861 q 383 1024 335 950 q 510 1139 431 1099 l 456 1232 q 460 1247 449 1239 q 475 1243 469 1254 l 532 1149 q 681 1179 599 1179 q 829 1150 760 1179 l 882 1244 q 899 1250 888 1253 q 903 1233 908 1243 l 850 1140 m 524 988 q 544 996 536 988 q 553 1015 553 1004 q 544 1037 553 1028 q 524 1046 536 1046 q 503 1037 511 1046 q 494 1015 494 1028 q 503 996 494 1004 q 524 988 511 988 m 839 988 q 858 996 850 988 q 867 1015 867 1004 q 858 1037 867 1028 q 839 1046 850 1046 q 818 1037 826 1046 q 810 1015 810 1028 q 818 996 810 1004 q 839 988 826 988 m 1217 1008 q 1271 990 1249 1008 q 1293 943 1293 971 l 1293 676 q 1281 641 1293 657 q 1247 618 1268 625 q 1215 610 1232 610 l 1024 610 l 1024 332 q 1000 274 1024 297 q 942 250 976 250 l 886 250 l 886 78 q 864 23 886 46 q 810 0 842 0 q 755 23 778 0 q 732 78 732 46 l 732 250 l 629 250 l 629 78 q 607 23 629 46 q 553 0 585 0 q 498 23 521 0 q 475 78 475 46 l 475 250 l 419 250 q 362 274 386 250 q 338 332 338 297 l 338 610 l 149 610 q 115 618 129 610 q 83 641 96 625 q 69 676 69 657 l 69 943 q 92 990 69 971 q 146 1008 114 1008 q 201 990 178 1008 q 224 943 224 971 l 224 765 l 338 765 l 338 833 l 1024 833 l 1024 765 l 1140 765 l 1140 943 q 1163 990 1140 971 q 1217 1008 1185 1008 m 840 743 l 522 743 l 522 676 l 640 676 l 640 328 l 722 328 l 722 676 l 840 676 l 840 743 z "},"Œ":{"ha":1157,"x_min":0,"x_max":0,"o":""},"t":{"ha":1364,"x_min":69,"x_max":1294,"o":"m 851 1140 q 979 1026 931 1099 q 1028 861 1028 953 l 335 861 q 383 1025 335 951 q 511 1140 432 1099 l 456 1233 q 460 1249 451 1240 q 469 1250 464 1251 q 475 1244 474 1249 l 532 1150 q 682 1181 599 1181 q 831 1151 761 1181 l 883 1246 q 900 1251 888 1254 q 904 1235 910 1244 l 851 1140 m 524 989 q 544 997 536 989 q 553 1017 553 1006 q 544 1038 553 1029 q 524 1046 536 1046 q 503 1038 513 1046 q 494 1017 494 1029 q 503 997 494 1006 q 524 989 513 989 m 839 989 q 859 997 850 989 q 868 1017 868 1006 q 859 1038 868 1029 q 839 1046 850 1046 q 819 1038 828 1046 q 811 1017 811 1029 q 819 997 811 1006 q 839 989 828 989 m 1218 1008 q 1272 990 1250 1008 q 1294 944 1294 972 l 1294 676 q 1282 641 1294 657 q 1249 618 1269 625 q 1217 611 1236 611 l 1025 611 l 1025 332 q 1001 274 1025 297 q 943 250 978 250 l 888 250 l 888 78 q 865 23 888 46 q 811 0 843 0 q 756 23 779 0 q 733 78 733 46 l 733 250 l 629 250 l 629 78 q 607 23 629 46 q 553 0 585 0 q 498 23 521 0 q 475 78 475 46 l 475 250 l 419 250 q 362 274 386 250 q 338 332 338 297 l 338 611 l 149 611 q 117 618 126 611 q 83 641 96 625 q 69 676 69 657 l 69 944 q 92 990 69 972 q 146 1008 114 1008 q 201 990 178 1008 q 224 944 224 972 l 224 765 l 338 765 l 338 835 l 1025 835 l 1025 765 l 1142 765 l 1142 944 q 1164 990 1142 972 q 1218 1008 1186 1008 m 794 613 l 693 613 l 693 722 l 617 722 l 617 613 l 556 613 l 556 557 l 617 557 l 617 424 q 642 347 617 369 q 717 324 664 324 q 756 326 738 324 q 793 333 775 329 l 783 389 q 732 381 760 381 q 701 392 710 381 q 693 438 693 404 l 693 557 l 794 557 l 794 613 z "},"U":{"ha":1346,"x_min":65,"x_max":1281,"o":"m 1203 689 q 1168 643 1196 660 q 1108 633 1140 626 q 1059 666 1076 640 q 1049 722 1042 692 l 1119 1022 q 1154 1069 1126 1053 q 1214 1079 1182 1086 q 1263 1047 1246 1072 q 1274 992 1281 1021 l 1203 689 m 965 206 q 923 167 953 178 q 863 167 893 156 q 820 206 832 178 q 821 263 808 235 l 892 425 q 935 466 904 454 q 996 467 965 478 q 1039 426 1026 454 q 1039 369 1051 397 l 965 206 m 72 992 q 83 1047 65 1021 q 132 1079 100 1072 q 192 1069 164 1086 q 226 1022 219 1053 l 297 722 q 287 666 304 692 q 238 633 269 640 q 178 643 206 626 q 143 689 150 660 l 72 992 m 850 1085 q 981 974 932 1044 q 1031 819 1031 904 l 321 819 q 371 976 321 906 q 504 1086 421 1046 l 450 1171 q 449 1178 447 1174 q 454 1185 450 1182 q 469 1182 463 1189 l 525 1094 q 597 1116 560 1108 q 675 1124 635 1124 q 829 1093 757 1124 l 886 1183 q 901 1186 889 1193 q 906 1174 908 1183 l 850 1085 m 515 940 q 535 948 526 940 q 544 967 544 956 q 535 988 544 979 q 515 996 526 996 q 494 988 503 996 q 485 967 485 979 q 494 948 485 956 q 515 940 503 940 m 838 940 q 858 948 850 940 q 867 967 867 956 q 858 988 867 979 q 838 996 850 996 q 817 988 825 996 q 808 967 808 979 q 817 948 808 956 q 838 940 825 940 m 1028 793 l 1028 475 q 1018 481 1024 478 q 1006 486 1013 483 q 927 490 965 501 q 875 447 889 479 l 793 264 q 790 251 790 257 q 789 238 789 244 l 622 238 l 622 74 q 599 22 622 43 q 543 0 576 0 q 488 22 511 0 q 465 74 465 43 l 465 238 l 407 238 q 348 260 372 238 q 324 315 324 283 l 324 793 l 1028 793 m 844 713 l 767 713 l 767 472 q 683 374 767 374 q 601 472 601 374 l 601 713 l 521 713 l 521 478 q 563 353 521 394 q 682 311 604 311 q 803 353 758 311 q 844 478 844 397 l 844 713 z "},"u":{"ha":1347,"x_min":65,"x_max":1282,"o":"m 1204 725 q 1169 676 1197 693 q 1110 667 1142 660 q 1060 701 1078 674 q 1050 758 1043 728 l 1121 1075 q 1156 1124 1128 1107 q 1215 1135 1183 1142 q 1265 1101 1247 1128 q 1275 1043 1282 1075 l 1204 725 m 967 217 q 924 176 954 188 q 863 175 893 164 q 820 217 832 188 q 821 276 808 247 l 893 447 q 936 490 906 478 q 997 490 967 501 q 1040 448 1028 478 q 1039 389 1053 418 l 967 217 m 72 1043 q 83 1101 65 1075 q 132 1135 100 1128 q 192 1124 164 1142 q 226 1075 219 1107 l 297 758 q 287 701 304 728 q 238 667 269 674 q 178 676 206 660 q 143 725 150 693 l 72 1043 m 851 1140 q 983 1025 933 1099 q 1032 861 1032 951 l 321 861 q 372 1026 321 951 q 506 1142 422 1101 l 450 1232 q 454 1247 444 1240 q 469 1243 465 1253 l 526 1151 q 676 1182 596 1182 q 831 1150 758 1182 l 886 1244 q 901 1249 890 1254 q 906 1233 911 1244 l 851 1140 m 515 989 q 536 997 526 989 q 546 1017 546 1006 q 536 1039 546 1031 q 515 1047 526 1047 q 494 1039 503 1047 q 486 1017 486 1031 q 494 997 486 1006 q 515 989 503 989 m 839 989 q 860 997 851 989 q 868 1017 868 1006 q 860 1039 868 1031 q 839 1047 851 1047 q 808 1017 808 1047 q 817 997 808 1006 q 839 989 825 989 m 1029 835 l 1029 500 q 1019 506 1024 503 q 1007 511 1014 508 q 928 516 967 528 q 876 471 890 504 l 794 278 q 789 249 789 265 l 624 249 l 624 78 q 600 23 624 46 q 544 0 576 0 q 490 23 513 0 q 467 78 467 46 l 467 249 l 407 249 q 348 273 372 249 q 324 332 324 297 l 324 835 l 1029 835 m 813 629 l 738 629 l 738 471 q 717 411 738 436 q 671 386 696 386 q 635 400 644 386 q 625 453 625 414 l 625 629 l 551 629 l 551 444 q 574 354 551 382 q 644 326 597 326 q 697 340 674 326 q 720 354 710 346 q 740 374 731 363 l 742 374 l 743 332 l 813 332 l 813 629 z "},"V":{"ha":1388,"x_min":67,"x_max":1322,"o":"m 104 772 q 132 824 107 804 q 189 842 157 844 q 241 813 221 839 q 258 756 261 788 l 224 435 q 196 383 221 403 q 139 365 171 363 q 87 394 107 368 q 71 451 67 419 l 104 772 m 1303 547 q 1317 488 1322 519 q 1285 438 1311 457 q 1228 424 1260 419 q 1178 456 1197 429 l 988 718 q 974 776 969 744 q 1006 826 979 807 q 1063 841 1032 846 q 1114 808 1094 836 l 1303 547 m 828 238 q 866 192 856 222 q 863 135 876 163 q 817 95 847 106 q 758 100 788 85 l 593 183 q 553 229 564 199 q 557 288 543 260 q 603 326 572 315 q 663 322 633 338 l 828 238 m 788 1140 q 860 1090 826 1119 q 916 1025 893 1061 q 952 947 939 989 q 965 861 965 906 l 268 861 q 317 1026 268 951 q 447 1142 367 1100 l 393 1231 q 397 1247 388 1240 q 414 1243 407 1251 l 468 1150 q 617 1181 540 1181 q 767 1150 697 1181 l 819 1244 q 836 1249 828 1256 q 842 1241 840 1246 q 840 1233 843 1236 l 788 1140 m 458 988 q 479 996 471 988 q 488 1017 488 1004 q 479 1037 488 1028 q 458 1046 471 1046 q 438 1037 447 1046 q 429 1017 429 1028 q 438 996 429 1004 q 458 988 447 988 m 776 988 q 797 996 788 988 q 806 1017 806 1004 q 797 1037 806 1028 q 776 1046 788 1046 q 755 1037 764 1046 q 746 1017 746 1028 q 755 996 746 1004 q 776 988 764 988 m 964 833 l 964 332 q 940 274 964 297 q 881 250 915 250 l 856 250 q 853 251 854 250 q 850 251 853 251 l 667 344 l 806 744 l 724 744 l 619 408 l 618 408 l 517 744 l 432 744 l 574 339 q 538 297 550 324 q 526 225 518 261 q 565 169 535 189 l 565 78 q 542 23 565 46 q 488 0 519 0 q 433 23 456 0 q 410 78 410 46 l 410 250 l 353 250 q 295 274 319 250 q 271 332 271 297 l 271 833 l 964 833 z "},"v":{"ha":1386,"x_min":67,"x_max":1321,"o":"m 104 774 q 132 826 107 806 q 189 842 157 846 q 241 814 221 839 q 257 757 261 789 l 224 435 q 196 383 221 403 q 139 367 171 363 q 87 394 107 369 q 71 451 67 419 l 104 774 m 1301 547 q 1315 490 1321 521 q 1283 439 1310 458 q 1227 425 1258 419 q 1176 457 1196 431 l 988 719 q 973 776 968 746 q 1006 826 978 807 q 1062 841 1031 846 q 1113 810 1093 836 l 1301 547 m 826 239 q 865 194 854 224 q 861 136 875 164 q 816 97 846 107 q 757 101 786 86 l 592 185 q 553 230 563 200 q 557 288 543 260 q 602 327 572 317 q 661 322 632 338 l 826 239 m 788 1140 q 860 1090 826 1119 q 916 1025 893 1061 q 952 947 939 989 q 965 861 965 906 l 268 861 q 317 1026 268 951 q 447 1142 367 1100 l 393 1231 q 397 1247 388 1240 q 414 1243 407 1253 l 468 1150 q 617 1181 538 1181 q 767 1150 694 1181 l 819 1244 q 835 1249 826 1254 q 841 1241 840 1246 q 840 1233 842 1236 l 788 1140 m 458 988 q 479 996 471 988 q 488 1017 488 1004 q 479 1038 488 1029 q 458 1046 471 1046 q 438 1038 446 1046 q 429 1017 429 1029 q 438 996 429 1004 q 458 988 446 988 m 775 988 q 796 996 786 988 q 806 1017 806 1004 q 796 1038 806 1029 q 775 1046 786 1046 q 754 1038 763 1046 q 746 1017 746 1029 q 754 996 746 1004 q 775 988 763 988 m 963 833 l 963 333 q 938 274 963 297 q 879 250 914 250 l 856 250 q 849 253 850 253 l 660 349 q 631 357 647 357 l 667 357 l 764 651 l 685 651 l 617 400 l 615 400 l 547 651 l 467 651 l 564 357 l 619 357 q 572 340 594 356 q 536 299 549 325 q 526 226 518 263 q 565 171 535 189 l 565 79 q 542 24 565 47 q 488 1 519 1 q 433 24 456 1 q 410 79 410 47 l 410 250 l 353 250 q 295 274 319 250 q 271 333 271 297 l 271 833 l 963 833 z "},"W":{"ha":1221,"x_min":69,"x_max":1151,"o":"m 69 788 q 93 843 69 819 q 149 867 117 867 q 204 843 181 867 q 228 788 228 819 l 228 457 q 204 401 228 425 q 149 378 181 378 q 93 401 117 378 q 69 457 69 425 l 69 788 m 1151 457 q 1128 401 1151 425 q 1072 378 1104 378 q 1017 401 1040 378 q 993 457 993 425 l 993 788 q 1017 843 993 819 q 1072 867 1040 867 q 1128 843 1104 867 q 1151 788 1151 819 l 1151 457 m 783 1163 q 915 1040 865 1118 q 965 867 965 963 l 957 867 q 801 931 893 910 q 610 951 708 951 q 420 931 513 951 q 264 867 328 910 l 256 867 q 306 1040 256 963 q 439 1163 357 1118 l 383 1254 q 388 1271 381 1264 q 404 1267 399 1274 l 460 1172 q 610 1204 531 1204 q 761 1171 692 1204 l 817 1268 q 833 1272 821 1276 q 838 1257 840 1268 l 783 1163 m 449 1007 q 470 1016 461 1007 q 479 1038 479 1025 q 470 1058 479 1049 q 449 1067 461 1067 q 428 1058 438 1067 q 419 1038 419 1049 q 428 1016 419 1025 q 449 1007 438 1007 m 772 1007 q 792 1016 783 1007 q 801 1038 801 1025 q 792 1058 801 1049 q 772 1067 783 1067 q 751 1058 760 1067 q 742 1038 742 1049 q 751 1016 742 1025 q 772 1007 760 1007 m 963 332 q 938 273 963 297 q 879 249 914 249 l 821 249 l 821 81 q 798 25 821 49 q 742 1 775 1 q 686 25 710 1 q 663 81 663 49 l 663 249 l 558 249 l 558 81 q 535 25 558 49 q 479 1 511 1 q 423 25 446 1 q 400 81 400 49 l 400 249 l 342 249 q 283 273 307 249 q 258 332 258 297 l 258 833 q 358 883 301 863 q 479 913 415 903 q 610 922 543 922 q 742 913 678 922 q 863 883 806 903 q 963 833 919 863 l 963 332 m 869 758 l 789 758 l 726 421 l 725 421 l 663 758 l 561 758 l 500 421 l 435 758 l 353 758 l 450 336 l 547 336 l 610 674 l 611 674 l 676 336 l 772 336 l 869 758 z "},"w":{"ha":1222,"x_min":69,"x_max":1153,"o":"m 69 788 q 93 843 69 819 q 149 867 117 867 q 204 843 181 867 q 228 788 228 819 l 228 456 q 204 401 228 424 q 149 378 181 378 q 93 401 117 378 q 69 456 69 424 l 69 788 m 1153 456 q 1130 401 1153 424 q 1074 378 1107 378 q 1018 401 1042 378 q 994 456 994 424 l 994 788 q 1018 843 994 819 q 1074 867 1042 867 q 1130 843 1107 867 q 1153 788 1153 819 l 1153 456 m 785 1163 q 917 1041 867 1119 q 968 867 968 963 l 958 867 q 801 931 893 910 q 612 951 710 951 q 422 931 514 951 q 265 867 329 910 l 256 867 q 307 1041 256 963 q 440 1163 358 1119 l 385 1256 q 389 1271 381 1264 q 404 1267 397 1275 l 461 1174 q 533 1197 494 1189 q 611 1206 571 1206 q 690 1197 651 1206 q 763 1172 728 1188 l 818 1268 q 835 1274 822 1279 q 838 1258 842 1267 l 785 1163 m 449 1007 q 471 1016 463 1007 q 479 1038 479 1025 q 471 1058 479 1050 q 449 1067 463 1067 q 429 1058 438 1067 q 421 1038 421 1050 q 429 1016 421 1025 q 449 1007 438 1007 m 774 1007 q 794 1016 785 1007 q 803 1038 803 1025 q 794 1058 803 1050 q 774 1067 785 1067 q 752 1058 761 1067 q 743 1038 743 1050 q 752 1016 743 1025 q 774 1007 761 1007 m 965 833 l 965 331 q 940 272 965 296 q 881 247 915 247 l 822 247 l 822 79 q 799 24 822 47 q 743 0 775 0 q 688 24 711 0 q 664 79 664 47 l 664 247 l 558 247 l 558 79 q 535 24 558 47 q 479 0 513 0 q 424 24 447 0 q 400 79 400 47 l 400 247 l 343 247 q 283 272 307 247 q 258 331 258 296 l 258 833 l 260 833 q 417 900 324 878 q 611 922 511 922 q 806 900 711 922 q 964 833 900 878 l 965 833 m 832 638 l 754 638 l 707 399 l 661 638 l 567 638 l 521 399 l 519 399 l 474 638 l 394 638 l 472 335 l 567 335 l 613 567 l 614 567 l 658 335 l 754 335 l 832 638 z "},"X":{"ha":1189,"x_min":69,"x_max":1119,"o":"m 69 771 q 92 825 69 803 q 147 847 115 847 q 201 825 179 847 q 224 771 224 803 l 224 446 q 201 392 224 414 q 147 369 179 369 q 92 392 115 369 q 69 446 69 414 l 69 771 m 1119 446 q 1097 392 1119 414 q 1042 369 1074 369 q 989 392 1011 369 q 967 446 967 414 l 967 771 q 989 825 967 803 q 1042 847 1011 847 q 1097 825 1074 847 q 1119 771 1119 803 l 1119 446 m 600 918 q 692 898 646 901 q 780 901 738 894 q 859 924 822 907 q 925 967 896 942 q 940 916 936 943 q 944 860 944 889 l 250 860 q 274 971 250 917 q 419 903 331 918 q 600 921 507 888 l 600 918 m 601 993 q 673 1062 629 1032 q 767 1104 717 1092 q 869 1108 817 1117 q 967 1061 921 1099 q 913 985 950 1017 q 826 936 876 953 q 718 919 776 919 q 601 938 660 919 l 600 939 q 483 922 542 921 q 376 939 425 922 q 290 987 326 956 q 236 1063 253 1018 q 333 1110 282 1101 q 435 1106 385 1118 q 528 1063 485 1093 q 601 994 572 1033 l 601 993 m 533 981 q 521 1004 536 992 q 482 1024 506 1017 q 440 1026 458 1031 q 418 1011 421 1022 q 431 988 415 1000 q 469 969 446 975 q 512 966 493 963 q 533 981 531 969 m 736 969 q 774 988 760 975 q 786 1011 789 1000 q 764 1026 783 1022 q 721 1024 744 1031 q 683 1004 697 1017 q 671 981 668 992 q 693 966 674 969 q 736 969 713 963 m 943 833 l 943 332 q 919 274 943 299 q 861 250 896 250 l 804 250 l 804 79 q 781 24 804 47 q 726 1 758 1 q 672 24 694 1 q 649 79 649 47 l 649 250 l 544 250 l 544 79 q 522 24 544 47 q 468 1 500 1 q 413 24 436 1 q 390 79 390 47 l 390 250 l 336 250 q 277 274 301 250 q 253 332 253 299 l 253 833 l 943 833 m 753 346 l 644 538 l 750 724 l 672 724 l 599 582 l 525 724 l 444 724 l 549 538 l 442 346 l 522 346 l 596 492 l 597 492 l 671 346 l 753 346 m 818 1246 q 822 1231 828 1239 l 769 1136 q 777 1132 774 1133 q 785 1128 781 1131 q 682 1091 731 1119 q 601 1024 633 1063 q 519 1093 568 1064 q 414 1131 469 1122 q 422 1134 418 1133 q 431 1138 426 1135 l 379 1229 q 377 1236 376 1232 q 381 1243 378 1240 q 396 1239 392 1249 l 450 1149 q 521 1170 485 1163 q 597 1178 557 1178 q 749 1146 678 1178 l 803 1242 q 818 1246 810 1250 z "},"x":{"ha":1193,"x_min":69,"x_max":1124,"o":"m 69 771 q 92 825 69 803 q 147 847 115 847 q 202 825 179 847 q 225 771 225 803 l 225 447 q 202 392 225 415 q 147 369 179 369 q 92 392 115 369 q 69 447 69 415 l 69 771 m 1124 447 q 1101 392 1124 415 q 1046 369 1079 369 q 992 392 1014 369 q 969 447 969 415 l 969 771 q 992 825 969 803 q 1046 847 1014 847 q 1101 825 1079 847 q 1124 771 1124 803 l 1124 447 m 603 918 q 781 900 694 886 q 926 967 868 914 q 942 915 938 942 q 947 860 947 888 l 251 860 q 274 974 251 918 q 420 903 332 919 q 603 921 508 888 l 603 918 m 603 994 q 676 1062 632 1032 q 769 1104 719 1092 q 872 1108 819 1117 q 969 1061 924 1100 q 915 985 953 1017 q 828 938 878 954 q 721 920 779 921 q 603 939 663 919 l 603 942 q 485 923 543 922 q 376 940 426 924 q 290 988 326 957 q 236 1064 253 1019 q 334 1111 282 1103 q 436 1107 386 1119 q 530 1065 486 1094 q 603 996 574 1035 l 603 994 m 536 983 q 524 1006 539 994 q 485 1025 508 1018 q 442 1028 461 1032 q 421 1013 424 1024 q 432 990 417 1001 q 471 971 447 978 q 514 967 494 964 q 536 983 533 971 m 738 971 q 776 990 761 978 q 788 1013 790 1001 q 766 1028 785 1024 q 722 1025 747 1032 q 684 1006 699 1018 q 672 983 669 994 q 694 967 675 971 q 738 971 714 964 m 821 1247 q 825 1232 829 1240 l 771 1138 q 780 1133 776 1135 q 788 1129 783 1132 q 685 1092 733 1121 q 604 1025 638 1064 q 521 1094 569 1065 q 417 1131 472 1124 q 425 1135 421 1133 q 432 1140 429 1138 l 379 1229 q 383 1244 372 1239 q 399 1240 392 1250 l 453 1149 q 599 1179 522 1179 q 677 1171 639 1179 q 751 1149 715 1163 l 806 1243 q 821 1247 810 1251 m 944 833 l 944 332 q 921 272 944 296 q 863 249 897 249 l 807 249 l 807 78 q 784 23 807 46 q 729 0 761 0 q 674 23 697 0 q 651 78 651 46 l 651 249 l 547 249 l 547 78 q 524 23 547 46 q 469 0 501 0 q 415 23 438 0 q 392 78 392 46 l 392 249 l 336 249 q 278 272 303 249 q 254 332 254 296 l 254 833 l 944 833 m 740 328 l 646 479 l 738 624 l 656 624 l 600 521 l 599 521 l 542 624 l 461 624 l 553 479 l 457 328 l 538 328 l 596 436 l 597 436 l 657 328 l 740 328 z "},"Y":{"ha":901,"x_min":69,"x_max":835,"o":"m 765 888 q 816 857 797 882 q 831 800 835 832 q 800 749 825 768 q 743 733 775 729 l 489 769 l 269 740 q 213 758 238 738 q 183 810 189 778 q 199 866 179 840 q 250 894 218 892 l 379 911 q 409 930 392 925 q 446 932 426 935 l 489 926 l 571 936 q 613 931 593 939 q 644 904 633 922 l 765 888 m 588 1140 q 701 1044 656 1104 q 763 911 747 985 l 668 925 q 633 956 654 946 q 588 964 611 967 l 485 951 l 435 958 q 368 936 399 963 l 229 918 q 188 899 206 914 q 164 860 171 883 l 69 860 q 119 1024 69 950 q 249 1140 168 1099 l 196 1229 q 194 1237 193 1232 q 200 1244 196 1242 q 215 1242 208 1249 l 268 1149 q 341 1172 304 1164 q 418 1181 378 1181 q 496 1172 458 1181 q 568 1149 533 1164 l 619 1242 q 636 1244 628 1249 q 642 1237 640 1242 q 640 1229 643 1232 l 588 1140 m 431 1021 q 451 1028 443 1021 q 460 1047 460 1036 q 451 1069 460 1060 q 431 1078 443 1078 q 410 1069 418 1078 q 401 1047 401 1060 q 410 1028 401 1036 q 431 1021 418 1021 m 601 1021 q 623 1028 614 1021 q 632 1047 632 1036 q 623 1069 632 1060 q 601 1078 614 1078 q 582 1069 590 1078 q 574 1047 574 1060 q 582 1028 574 1036 q 601 1021 590 1021 m 764 708 l 764 332 q 740 274 764 297 q 681 250 715 250 l 625 250 l 625 78 q 603 23 625 46 q 549 0 581 0 q 493 23 515 0 q 471 78 471 46 l 471 250 l 365 250 l 365 78 q 343 23 365 46 q 289 0 321 0 q 234 23 257 0 q 211 78 211 46 l 211 250 l 154 250 q 97 274 121 250 q 72 332 72 297 l 72 833 l 156 833 q 156 806 153 818 q 191 737 163 764 q 254 714 219 710 l 489 744 l 756 708 l 764 708 m 610 703 l 519 703 l 428 517 l 426 517 l 333 703 l 240 703 l 382 454 l 382 289 l 465 289 l 465 454 l 610 703 z "},"y":{"ha":897,"x_min":67,"x_max":831,"o":"m 760 886 q 811 856 792 882 q 826 799 831 831 q 796 749 821 767 q 739 733 771 731 l 485 769 l 268 742 q 210 757 236 738 q 181 808 185 776 q 196 865 176 840 q 247 894 215 890 l 376 911 q 442 932 401 939 l 486 925 l 567 938 q 610 931 590 940 q 640 904 629 921 l 760 886 m 583 1138 q 698 1044 651 1103 q 758 911 744 985 l 664 924 q 629 956 650 946 q 583 964 608 967 l 481 951 l 431 957 q 365 936 394 964 l 226 917 q 185 899 203 914 q 161 860 168 883 l 67 860 q 116 1024 67 950 q 246 1139 165 1097 l 193 1228 q 197 1243 188 1236 q 213 1239 206 1249 l 267 1149 q 337 1171 300 1163 q 414 1179 374 1179 q 492 1171 454 1179 q 565 1147 529 1163 l 617 1239 q 632 1243 621 1249 q 636 1228 640 1238 l 583 1138 m 426 1019 q 448 1028 439 1019 q 457 1047 457 1036 q 448 1069 457 1060 q 426 1078 439 1078 q 406 1069 414 1078 q 397 1047 397 1060 q 406 1028 397 1036 q 426 1019 414 1019 m 599 1019 q 619 1028 611 1019 q 628 1047 628 1036 q 619 1069 628 1060 q 599 1078 611 1078 q 578 1069 588 1078 q 569 1047 569 1060 q 578 1028 569 1036 q 599 1019 588 1019 m 751 708 q 756 708 754 708 q 758 707 757 707 l 758 332 q 735 274 758 299 q 676 250 713 250 l 621 250 l 621 79 q 599 24 621 47 q 544 1 576 1 q 489 24 511 1 q 467 79 467 47 l 467 250 l 363 250 l 363 79 q 340 24 363 47 q 286 1 318 1 q 231 24 254 1 q 208 79 208 47 l 208 250 l 151 250 q 94 274 118 250 q 69 332 69 299 l 69 833 l 153 833 q 153 804 150 818 q 188 736 160 763 q 251 714 215 710 l 485 746 l 751 708 m 574 704 l 496 704 l 422 486 l 421 486 l 356 704 l 275 704 l 385 410 l 331 285 l 408 285 l 574 704 z "},"Z":{"ha":1157,"x_min":-1,"x_max":1251,"o":"m 1139 721 q 1100 677 1128 692 q 1040 672 1072 663 q 995 712 1010 683 q 992 771 981 740 l 1094 1078 q 1133 1123 1104 1108 q 1193 1128 1161 1138 q 1238 1088 1224 1117 q 1240 1029 1251 1060 l 1139 721 m 240 560 q 267 507 264 539 q 247 451 269 475 q 194 425 226 428 q 139 443 163 422 l 71 501 l 36 533 q 13 553 19 538 q 1 582 3 567 q -1 610 -1 597 q 3 638 -1 625 l 56 725 l 132 817 q 185 844 153 842 q 242 826 217 846 q 269 774 267 806 q 251 718 272 742 l 169 621 l 240 560 m 794 1140 q 923 1026 874 1100 q 972 861 972 951 l 276 861 q 326 1026 276 953 q 454 1142 375 1100 l 400 1232 q 404 1247 394 1243 q 421 1244 414 1254 l 476 1151 q 547 1174 510 1165 q 624 1182 583 1182 q 701 1174 664 1182 q 774 1151 739 1165 l 828 1246 q 835 1251 831 1250 q 843 1250 840 1253 q 847 1235 854 1244 l 794 1140 m 686 992 q 706 1000 697 992 q 714 1021 714 1008 q 706 1042 714 1033 q 686 1050 697 1050 q 665 1042 674 1050 q 656 1021 656 1033 q 665 1000 656 1008 q 686 992 674 992 m 831 1018 q 851 1026 842 1018 q 860 1046 860 1035 q 851 1067 860 1058 q 831 1076 842 1076 q 810 1067 818 1076 q 801 1046 801 1058 q 810 1026 801 1035 q 831 1018 818 1018 m 971 833 l 971 332 q 947 274 971 297 q 888 250 924 250 l 832 250 l 832 78 q 809 23 832 46 q 754 0 786 0 q 699 23 722 0 q 676 78 676 46 l 676 250 l 572 250 l 572 78 q 549 23 572 46 q 494 0 526 0 q 440 23 463 0 q 417 78 417 46 l 417 250 l 361 250 q 303 274 326 250 q 279 332 279 297 l 279 833 l 971 833 m 768 743 l 476 743 l 476 681 l 675 681 l 675 679 l 476 393 l 476 328 l 768 328 l 768 393 l 569 393 l 569 394 l 768 681 l 768 743 z "},"z":{"ha":1157,"x_min":0,"x_max":1251,"o":"m 1139 721 q 1100 676 1129 690 q 1040 671 1071 663 q 996 711 1010 682 q 993 769 982 740 l 1094 1078 q 1133 1122 1104 1107 q 1193 1126 1161 1138 q 1237 1087 1222 1115 q 1240 1028 1251 1058 l 1139 721 m 240 560 q 268 506 265 538 q 249 451 271 475 q 196 424 228 426 q 140 443 164 421 l 72 501 l 36 532 q 14 553 22 539 q 2 582 4 567 q 0 610 0 597 q 4 638 0 625 l 56 726 l 57 725 l 133 815 q 186 843 154 840 q 243 825 218 846 q 270 773 268 806 q 253 717 272 740 l 171 619 l 240 560 m 794 1140 q 924 1025 875 1099 q 974 861 974 951 l 278 861 q 326 1025 278 951 q 454 1140 375 1099 l 401 1231 q 404 1246 396 1240 q 422 1242 415 1253 l 478 1149 q 547 1172 510 1164 q 625 1181 585 1181 q 703 1172 665 1181 q 775 1149 740 1164 l 829 1244 q 835 1250 831 1249 q 844 1249 840 1251 q 849 1233 856 1243 l 794 1140 m 686 990 q 707 999 699 990 q 715 1019 715 1008 q 707 1040 715 1032 q 686 1049 699 1049 q 665 1040 674 1049 q 656 1019 656 1032 q 665 999 656 1008 q 686 990 674 990 m 831 1015 q 851 1024 843 1015 q 860 1044 860 1033 q 851 1067 860 1058 q 831 1075 843 1075 q 810 1067 818 1075 q 801 1044 801 1058 q 810 1024 801 1033 q 831 1015 818 1015 m 971 833 l 971 332 q 947 273 971 297 q 888 249 922 249 l 832 249 l 832 78 q 809 23 832 46 q 754 0 786 0 q 700 23 722 0 q 678 78 678 46 l 678 249 l 574 249 l 574 78 q 551 23 574 46 q 496 0 528 0 q 441 23 464 0 q 418 78 418 46 l 418 249 l 363 249 q 303 273 326 249 q 279 332 279 297 l 279 833 l 971 833 m 744 624 l 500 624 l 500 568 l 651 568 l 651 567 l 500 383 l 500 328 l 744 328 l 744 383 l 592 383 l 592 385 l 744 568 l 744 624 z "},"!":{"ha":1199,"x_min":69,"x_max":1129,"o":"m 944 833 l 944 333 q 920 274 944 297 q 863 250 896 250 l 806 250 l 806 79 q 783 24 806 47 q 729 1 761 1 q 674 24 697 1 q 651 79 651 47 l 651 250 l 547 250 l 547 79 q 525 24 547 47 q 471 1 503 1 q 416 24 439 1 q 393 79 393 47 l 393 250 l 338 250 q 278 274 303 250 q 254 333 254 297 l 254 833 l 944 833 m 536 250 l 406 250 l 406 88 q 424 34 406 56 q 471 13 443 13 q 517 34 499 13 q 536 88 536 56 l 536 250 m 794 250 l 664 250 l 664 88 q 683 34 664 56 q 729 13 701 13 q 776 34 757 13 q 794 88 794 56 l 794 250 m 933 821 l 265 821 l 265 342 q 288 287 265 310 q 344 264 311 264 l 854 264 q 910 287 886 264 q 933 342 933 310 l 933 821 m 1051 849 q 1106 826 1083 849 q 1129 771 1129 803 l 1129 447 q 1106 393 1129 415 q 1051 371 1083 371 q 997 393 1019 371 q 975 447 975 415 l 975 771 q 997 826 975 803 q 1051 849 1019 849 m 1118 764 q 1099 817 1118 794 q 1051 839 1079 839 q 1004 817 1024 839 q 985 764 985 794 l 985 456 q 1004 402 985 424 q 1051 381 1024 381 q 1099 402 1079 381 q 1118 456 1118 424 l 1118 764 m 147 849 q 202 826 179 849 q 225 771 225 803 l 225 447 q 202 393 225 415 q 147 371 179 371 q 92 393 115 371 q 69 447 69 415 l 69 771 q 92 826 69 803 q 147 849 115 849 m 214 764 q 194 817 214 794 q 147 839 175 839 q 100 817 119 839 q 81 764 81 794 l 81 456 q 100 402 81 424 q 147 381 119 381 q 194 402 175 381 q 214 456 214 424 l 214 764 m 769 1139 q 898 1024 849 1097 q 947 860 947 950 l 251 860 q 300 1024 251 950 q 428 1138 349 1097 l 375 1226 q 379 1242 371 1235 q 394 1238 388 1246 l 447 1149 q 520 1172 482 1164 q 599 1181 558 1181 q 677 1172 639 1181 q 751 1149 715 1164 l 801 1238 q 817 1242 806 1247 q 821 1226 825 1233 l 769 1139 m 599 1167 q 471 1144 531 1167 q 366 1081 411 1121 q 295 987 321 1040 q 269 874 269 933 l 928 874 q 902 987 928 933 q 831 1081 876 1040 q 726 1144 786 1121 q 599 1167 667 1167 m 440 1046 q 463 1037 454 1046 q 471 1015 471 1028 q 463 995 471 1004 q 440 986 454 986 q 421 995 429 986 q 413 1015 413 1004 q 421 1037 413 1028 q 440 1046 429 1046 m 758 1046 q 778 1037 769 1046 q 786 1015 786 1028 q 778 995 786 1004 q 758 986 769 986 q 738 995 746 986 q 729 1015 729 1004 q 738 1037 729 1028 q 758 1046 746 1046 m 563 715 l 639 715 l 631 485 l 572 485 l 563 715 m 568 386 l 568 449 l 633 449 l 633 386 l 568 386 z "},"\"":{"ha":1199,"x_min":69,"x_max":1129,"o":"m 946 833 l 946 333 q 922 274 946 299 q 864 250 897 250 l 807 250 l 807 79 q 784 24 807 47 q 729 1 761 1 q 675 24 697 1 q 653 79 653 47 l 653 250 l 549 250 l 549 79 q 526 24 549 47 q 471 1 503 1 q 416 24 439 1 q 393 79 393 47 l 393 250 l 338 250 q 278 274 303 250 q 254 333 254 299 l 254 833 l 946 833 m 536 250 l 406 250 l 406 88 q 424 34 406 56 q 471 13 443 13 q 517 34 499 13 q 536 88 536 56 l 536 250 m 796 250 l 664 250 l 664 88 q 683 34 664 56 q 729 13 701 13 q 776 34 757 13 q 796 88 796 56 l 796 250 m 935 821 l 265 821 l 265 343 q 288 287 265 310 q 344 264 311 264 l 854 264 q 911 287 888 264 q 935 343 935 310 l 935 821 m 1053 850 q 1107 827 1085 850 q 1129 772 1129 804 l 1129 449 q 1107 394 1129 417 q 1053 371 1085 371 q 998 394 1021 371 q 975 449 975 417 l 975 772 q 998 827 975 804 q 1053 850 1021 850 m 1119 764 q 1100 817 1119 796 q 1053 839 1081 839 q 1006 817 1025 839 q 986 764 986 796 l 986 456 q 1006 402 986 424 q 1053 381 1025 381 q 1100 402 1081 381 q 1119 456 1119 424 l 1119 764 m 147 850 q 202 827 179 850 q 225 772 225 804 l 225 449 q 202 394 225 417 q 147 371 179 371 q 92 394 115 371 q 69 449 69 417 l 69 772 q 92 827 69 804 q 147 850 115 850 m 214 764 q 194 817 214 796 q 147 839 175 839 q 100 817 119 839 q 81 764 81 796 l 81 456 q 100 402 81 424 q 147 381 119 381 q 194 402 175 381 q 214 456 214 424 l 214 764 m 771 1140 q 899 1025 850 1099 q 949 861 949 951 l 253 861 q 301 1025 253 951 q 429 1139 350 1099 l 376 1228 q 379 1243 372 1236 q 394 1239 390 1249 l 447 1150 q 522 1174 483 1165 q 600 1182 560 1182 q 678 1174 640 1182 q 751 1150 717 1165 l 801 1239 q 817 1243 808 1249 q 821 1228 826 1236 l 771 1140 m 600 1168 q 471 1145 531 1168 q 367 1082 411 1122 q 297 988 322 1042 q 271 874 271 935 l 929 874 q 903 988 929 935 q 832 1082 876 1042 q 728 1145 788 1122 q 600 1168 668 1168 m 442 1046 q 463 1038 454 1046 q 471 1017 471 1029 q 463 997 471 1006 q 442 988 454 988 q 422 997 431 988 q 413 1017 413 1006 q 422 1038 413 1029 q 442 1046 431 1046 m 760 1046 q 779 1038 771 1046 q 788 1017 788 1029 q 779 997 788 1006 q 760 988 771 988 q 738 997 747 988 q 729 1017 729 1006 q 738 1038 729 1029 q 760 1046 747 1046 m 564 624 l 496 624 l 546 750 l 594 750 l 564 624 m 661 624 l 593 624 l 643 750 l 692 750 l 661 624 z "},"#":{"ha":1199,"x_min":69,"x_max":1129,"o":"m 946 833 l 946 333 q 922 274 946 299 q 863 250 897 250 l 807 250 l 807 79 q 784 24 807 47 q 729 1 761 1 q 674 24 697 1 q 651 79 651 47 l 651 250 l 547 250 l 547 79 q 525 24 547 47 q 471 1 503 1 q 416 24 439 1 q 393 79 393 47 l 393 250 l 338 250 q 278 274 303 250 q 254 333 254 299 l 254 833 l 946 833 m 536 250 l 406 250 l 406 88 q 424 34 406 56 q 471 13 443 13 q 517 34 499 13 q 536 88 536 56 l 536 250 m 794 250 l 664 250 l 664 88 q 683 34 664 56 q 729 13 701 13 q 776 34 757 13 q 794 88 794 56 l 794 250 m 933 821 l 265 821 l 265 342 q 288 287 265 310 q 344 264 311 264 l 854 264 q 910 287 886 264 q 933 342 933 310 l 933 821 m 1051 849 q 1106 826 1083 849 q 1129 772 1129 804 l 1129 447 q 1106 393 1129 415 q 1051 371 1083 371 q 997 393 1019 371 q 975 447 975 415 l 975 772 q 997 826 975 804 q 1051 849 1019 849 m 1119 764 q 1099 817 1119 796 q 1051 839 1079 839 q 1005 817 1025 839 q 985 764 985 796 l 985 456 q 1005 402 985 424 q 1051 381 1025 381 q 1099 402 1079 381 q 1119 456 1119 424 l 1119 764 m 147 849 q 202 826 179 849 q 225 772 225 804 l 225 447 q 202 393 225 415 q 147 371 179 371 q 92 393 115 371 q 69 447 69 415 l 69 772 q 92 826 69 804 q 147 849 115 849 m 214 764 q 194 817 214 796 q 147 839 175 839 q 100 817 119 839 q 81 764 81 796 l 81 456 q 100 402 81 424 q 147 381 119 381 q 194 402 175 381 q 214 456 214 424 l 214 764 m 771 1139 q 899 1025 850 1099 q 947 861 947 951 l 251 861 q 300 1025 251 951 q 428 1139 349 1099 l 375 1226 q 379 1243 372 1238 q 394 1239 388 1246 l 447 1149 q 599 1181 519 1181 q 751 1149 679 1181 l 801 1239 q 817 1243 808 1246 q 821 1226 828 1235 l 771 1139 m 599 1168 q 471 1144 531 1168 q 366 1081 411 1121 q 295 988 321 1042 q 269 874 269 933 l 929 874 q 903 988 929 933 q 832 1081 876 1042 q 727 1144 788 1121 q 599 1168 667 1168 m 442 1046 q 463 1038 454 1046 q 471 1017 471 1029 q 463 995 471 1004 q 442 986 454 986 q 421 995 429 986 q 413 1017 413 1004 q 421 1038 413 1029 q 442 1046 429 1046 m 758 1046 q 778 1038 769 1046 q 788 1017 788 1029 q 778 995 788 1004 q 758 986 769 986 q 738 995 746 986 q 729 1017 729 1004 q 738 1038 729 1029 q 758 1046 746 1046 m 463 461 l 463 511 l 513 511 l 529 597 l 486 597 l 486 644 l 536 644 l 549 714 l 606 714 l 593 644 l 638 644 l 651 714 l 707 714 l 696 644 l 736 644 l 736 597 l 686 597 l 671 511 l 713 511 l 713 461 l 664 461 l 650 385 l 593 385 l 606 461 l 561 461 l 547 385 l 490 385 l 504 461 l 463 461 m 615 511 l 631 597 l 585 597 l 569 511 l 615 511 z "},"$":{"ha":1199,"x_min":69,"x_max":1129,"o":"m 944 833 l 944 333 q 920 274 944 297 q 863 250 896 250 l 806 250 l 806 79 q 783 24 806 47 q 729 1 761 1 q 674 24 697 1 q 651 79 651 47 l 651 250 l 547 250 l 547 79 q 525 24 547 47 q 471 1 503 1 q 416 24 439 1 q 393 79 393 47 l 393 250 l 338 250 q 278 274 303 250 q 254 333 254 297 l 254 833 l 944 833 m 536 250 l 406 250 l 406 88 q 424 34 406 56 q 471 13 443 13 q 517 34 499 13 q 536 88 536 56 l 536 250 m 794 250 l 664 250 l 664 88 q 683 34 664 56 q 729 13 701 13 q 776 34 757 13 q 794 88 794 56 l 794 250 m 933 821 l 265 821 l 265 342 q 288 287 265 310 q 344 264 311 264 l 854 264 q 910 287 886 264 q 933 342 933 310 l 933 821 m 1051 849 q 1106 826 1083 849 q 1129 771 1129 803 l 1129 447 q 1106 393 1129 415 q 1051 371 1083 371 q 997 393 1019 371 q 975 447 975 415 l 975 771 q 997 826 975 803 q 1051 849 1019 849 m 1118 764 q 1099 817 1118 794 q 1051 839 1079 839 q 1004 817 1024 839 q 985 764 985 794 l 985 456 q 1004 402 985 424 q 1051 381 1024 381 q 1099 402 1079 381 q 1118 456 1118 424 l 1118 764 m 147 849 q 202 826 179 849 q 225 771 225 803 l 225 447 q 202 393 225 415 q 147 371 179 371 q 92 393 115 371 q 69 447 69 415 l 69 771 q 92 826 69 803 q 147 849 115 849 m 214 764 q 194 817 214 794 q 147 839 175 839 q 100 817 119 839 q 81 764 81 794 l 81 456 q 100 402 81 424 q 147 381 119 381 q 194 402 175 381 q 214 456 214 424 l 214 764 m 769 1139 q 898 1024 849 1097 q 947 860 947 950 l 251 860 q 300 1024 251 950 q 428 1138 349 1097 l 375 1226 q 379 1242 371 1235 q 394 1238 388 1246 l 447 1149 q 520 1172 482 1164 q 599 1181 558 1181 q 677 1172 639 1181 q 751 1149 715 1164 l 801 1238 q 817 1242 806 1247 q 821 1226 825 1233 l 769 1139 m 599 1167 q 471 1144 531 1167 q 366 1081 411 1121 q 295 987 321 1040 q 269 874 269 933 l 928 874 q 902 987 928 933 q 831 1081 876 1040 q 726 1144 786 1121 q 599 1167 667 1167 m 440 1046 q 463 1037 454 1046 q 471 1015 471 1028 q 463 995 471 1004 q 440 986 454 986 q 421 995 429 986 q 413 1015 413 1004 q 421 1037 413 1028 q 440 1046 429 1046 m 758 1046 q 778 1037 769 1046 q 786 1015 786 1028 q 778 995 786 1004 q 758 986 769 986 q 738 995 746 986 q 729 1015 729 1004 q 738 1037 729 1028 q 758 1046 746 1046 m 644 564 q 699 531 682 551 q 714 479 714 508 q 683 415 714 438 q 597 390 657 393 l 597 346 l 551 346 l 551 393 q 481 418 514 401 l 494 465 q 523 452 510 458 q 551 443 536 446 l 551 540 q 519 556 532 547 q 497 576 507 565 q 482 624 482 596 q 510 683 482 663 q 597 706 538 706 l 597 751 l 644 751 l 644 703 q 704 688 675 699 l 693 639 q 669 648 681 644 q 644 654 657 651 l 644 564 m 597 579 l 597 658 q 542 624 542 658 q 553 597 542 607 q 570 588 560 593 q 596 579 581 583 l 597 579 m 597 526 l 597 440 q 653 479 653 442 q 642 507 653 496 q 597 526 631 517 z "},"%":{"ha":1199,"x_min":69,"x_max":1129,"o":"m 946 833 l 946 333 q 922 274 946 299 q 864 250 897 250 l 807 250 l 807 79 q 784 24 807 47 q 729 1 761 1 q 675 24 697 1 q 653 79 653 47 l 653 250 l 549 250 l 549 79 q 526 24 549 47 q 471 1 503 1 q 416 24 439 1 q 393 79 393 47 l 393 250 l 338 250 q 278 274 303 250 q 254 333 254 299 l 254 833 l 946 833 m 536 250 l 406 250 l 406 88 q 424 34 406 56 q 471 13 443 13 q 517 34 499 13 q 536 88 536 56 l 536 250 m 796 250 l 664 250 l 664 88 q 683 34 664 56 q 729 13 701 13 q 776 34 757 13 q 796 88 796 56 l 796 250 m 935 821 l 265 821 l 265 343 q 288 287 265 310 q 344 264 311 264 l 854 264 q 911 287 888 264 q 935 343 935 310 l 935 821 m 1053 850 q 1107 827 1085 850 q 1129 772 1129 804 l 1129 449 q 1107 394 1129 417 q 1053 371 1085 371 q 998 394 1021 371 q 975 449 975 417 l 975 772 q 998 827 975 804 q 1053 850 1021 850 m 1119 764 q 1100 817 1119 796 q 1053 839 1081 839 q 1006 817 1025 839 q 986 764 986 796 l 986 456 q 1006 402 986 424 q 1053 381 1025 381 q 1100 402 1081 381 q 1119 456 1119 424 l 1119 764 m 147 850 q 202 827 179 850 q 225 772 225 804 l 225 449 q 202 394 225 417 q 147 371 179 371 q 92 394 115 371 q 69 449 69 417 l 69 772 q 92 827 69 804 q 147 850 115 850 m 214 764 q 194 817 214 796 q 147 839 175 839 q 100 817 119 839 q 81 764 81 796 l 81 456 q 100 402 81 424 q 147 381 119 381 q 194 402 175 381 q 214 456 214 424 l 214 764 m 771 1140 q 899 1025 850 1099 q 949 861 949 951 l 253 861 q 301 1025 253 951 q 429 1139 350 1099 l 376 1228 q 379 1243 372 1236 q 394 1239 390 1249 l 447 1150 q 522 1174 483 1165 q 600 1182 560 1182 q 678 1174 640 1182 q 751 1150 717 1165 l 801 1239 q 817 1243 808 1249 q 821 1228 826 1236 l 771 1140 m 600 1168 q 471 1145 531 1168 q 367 1082 411 1122 q 297 988 322 1042 q 271 874 271 935 l 929 874 q 903 988 929 935 q 832 1082 876 1042 q 728 1145 788 1122 q 600 1168 668 1168 m 442 1046 q 463 1038 454 1046 q 471 1017 471 1029 q 463 997 471 1006 q 442 988 454 988 q 422 997 431 988 q 413 1017 413 1006 q 422 1038 413 1029 q 442 1046 431 1046 m 760 1046 q 779 1038 771 1046 q 788 1017 788 1029 q 779 997 788 1006 q 760 988 771 988 q 738 997 747 988 q 729 1017 729 1006 q 738 1038 729 1029 q 760 1046 747 1046 m 433 694 q 494 718 453 718 q 554 694 535 718 q 576 629 576 672 q 554 563 576 585 q 494 539 533 539 q 433 563 454 539 q 411 629 411 585 q 433 694 411 672 m 494 581 q 522 629 522 581 q 494 676 522 676 q 465 629 465 676 q 494 581 465 581 m 661 714 l 717 714 l 536 385 l 482 385 l 661 714 m 643 536 q 704 558 664 558 q 765 536 743 558 q 786 469 786 511 q 765 404 786 426 q 704 381 742 381 q 643 404 664 381 q 622 469 622 426 q 643 536 622 511 m 704 422 q 732 469 732 422 q 704 518 732 518 q 675 469 675 518 q 704 422 675 422 z "},"&":{"ha":1199,"x_min":69,"x_max":1129,"o":"m 944 833 l 944 333 q 920 274 944 297 q 863 250 896 250 l 806 250 l 806 79 q 783 24 806 47 q 729 1 761 1 q 674 24 697 1 q 651 79 651 47 l 651 250 l 547 250 l 547 79 q 525 24 547 47 q 471 1 503 1 q 416 24 439 1 q 393 79 393 47 l 393 250 l 338 250 q 278 274 303 250 q 254 333 254 297 l 254 833 l 944 833 m 536 250 l 406 250 l 406 88 q 424 34 406 56 q 471 13 443 13 q 517 34 499 13 q 536 88 536 56 l 536 250 m 794 250 l 664 250 l 664 88 q 683 34 664 56 q 729 13 701 13 q 776 34 757 13 q 794 88 794 56 l 794 250 m 933 821 l 265 821 l 265 342 q 288 287 265 310 q 344 264 311 264 l 854 264 q 910 287 886 264 q 933 342 933 310 l 933 821 m 1051 849 q 1106 826 1083 849 q 1129 771 1129 803 l 1129 447 q 1106 393 1129 415 q 1051 371 1083 371 q 997 393 1019 371 q 975 447 975 415 l 975 771 q 997 826 975 803 q 1051 849 1019 849 m 1118 764 q 1099 817 1118 794 q 1051 839 1079 839 q 1004 817 1024 839 q 985 764 985 794 l 985 456 q 1004 402 985 424 q 1051 381 1024 381 q 1099 402 1079 381 q 1118 456 1118 424 l 1118 764 m 147 849 q 202 826 179 849 q 225 771 225 803 l 225 447 q 202 393 225 415 q 147 371 179 371 q 92 393 115 371 q 69 447 69 415 l 69 771 q 92 826 69 803 q 147 849 115 849 m 214 764 q 194 817 214 794 q 147 839 175 839 q 100 817 119 839 q 81 764 81 794 l 81 456 q 100 402 81 424 q 147 381 119 381 q 194 402 175 381 q 214 456 214 424 l 214 764 m 769 1139 q 898 1024 849 1097 q 947 860 947 950 l 251 860 q 300 1024 251 950 q 428 1138 349 1097 l 375 1226 q 379 1242 371 1235 q 394 1238 388 1246 l 447 1149 q 520 1172 482 1164 q 599 1181 558 1181 q 677 1172 639 1181 q 751 1149 715 1164 l 801 1238 q 817 1242 806 1247 q 821 1226 825 1233 l 769 1139 m 599 1167 q 471 1144 531 1167 q 366 1081 411 1121 q 295 987 321 1040 q 269 874 269 933 l 928 874 q 902 987 928 933 q 831 1081 876 1040 q 726 1144 786 1121 q 599 1167 667 1167 m 440 1046 q 463 1037 454 1046 q 471 1015 471 1028 q 463 995 471 1004 q 440 986 454 986 q 421 995 429 986 q 413 1015 413 1004 q 421 1037 413 1028 q 440 1046 429 1046 m 758 1046 q 778 1037 769 1046 q 786 1015 786 1028 q 778 995 786 1004 q 758 986 769 986 q 738 995 746 986 q 729 1015 729 1004 q 738 1037 729 1028 q 758 1046 746 1046 m 604 571 l 661 514 l 661 585 l 718 585 l 718 457 l 769 406 l 700 406 l 676 428 q 565 401 622 401 q 450 483 450 401 q 467 528 450 504 q 524 578 482 550 l 521 579 q 485 624 494 604 q 476 643 478 633 q 475 664 475 653 q 501 718 475 696 q 576 738 526 738 q 650 718 626 738 q 676 664 676 700 q 661 617 676 640 q 604 571 640 594 m 560 543 q 514 488 514 514 q 568 449 514 449 q 636 467 600 449 l 560 543 m 569 606 q 594 624 585 617 q 608 636 604 631 q 618 660 618 650 q 576 693 618 693 q 544 683 558 693 q 535 663 535 676 q 542 640 535 649 q 551 626 544 633 q 569 606 558 618 z "},"'":{"ha":1200,"x_min":69,"x_max":1131,"o":"m 947 833 l 947 332 q 923 273 947 297 q 864 249 899 249 l 808 249 l 808 78 q 785 23 808 46 q 731 0 763 0 q 676 23 699 0 q 653 78 653 46 l 653 249 l 549 249 l 549 78 q 526 23 549 46 q 471 0 503 0 q 417 23 439 0 q 394 78 394 46 l 394 249 l 338 249 q 279 273 303 249 q 256 332 256 297 l 256 833 l 947 833 m 538 249 l 406 249 l 406 86 q 424 33 406 54 q 471 11 443 11 q 518 33 499 11 q 538 86 538 54 l 538 249 m 796 249 l 665 249 l 665 86 q 684 33 665 54 q 731 11 703 11 q 777 33 758 11 q 796 86 796 54 l 796 249 m 935 821 l 265 821 l 265 342 q 288 285 265 308 q 346 263 311 263 l 856 263 q 911 285 888 263 q 935 342 935 308 l 935 821 m 1054 849 q 1108 826 1086 849 q 1131 772 1131 804 l 1131 447 q 1108 392 1131 415 q 1054 369 1086 369 q 999 392 1022 369 q 976 447 976 415 l 976 772 q 999 826 976 804 q 1054 849 1022 849 m 1121 764 q 1101 817 1121 796 q 1054 839 1082 839 q 1006 817 1026 839 q 986 764 986 796 l 986 454 q 1006 402 986 424 q 1054 381 1026 381 q 1101 402 1082 381 q 1121 454 1121 424 l 1121 764 m 147 849 q 202 826 179 849 q 225 772 225 804 l 225 447 q 202 392 225 415 q 147 369 179 369 q 92 392 115 369 q 69 447 69 415 l 69 772 q 92 826 69 804 q 147 849 115 849 m 214 764 q 194 817 214 796 q 147 839 175 839 q 100 817 119 839 q 81 764 81 796 l 81 454 q 100 402 81 424 q 147 381 119 381 q 194 402 175 381 q 214 454 214 424 l 214 764 m 772 1140 q 901 1025 851 1099 q 950 861 950 951 l 253 861 q 301 1025 253 951 q 429 1139 350 1099 l 376 1228 q 381 1243 372 1236 q 396 1239 389 1249 l 449 1149 q 522 1173 483 1164 q 600 1182 560 1182 q 678 1173 640 1182 q 753 1149 717 1164 l 803 1239 q 818 1243 810 1247 q 822 1228 828 1236 l 772 1140 m 600 1168 q 471 1145 531 1168 q 367 1082 411 1122 q 297 988 322 1042 q 271 874 271 935 l 931 874 q 904 988 931 935 q 833 1082 878 1042 q 728 1145 789 1122 q 600 1168 668 1168 m 442 1046 q 463 1038 454 1046 q 471 1017 471 1029 q 463 997 471 1006 q 442 988 454 988 q 422 997 431 988 q 414 1017 414 1006 q 422 1038 414 1029 q 442 1046 431 1046 m 760 1046 q 780 1038 771 1046 q 789 1017 789 1029 q 780 997 789 1006 q 760 988 771 988 q 739 997 747 988 q 731 1017 731 1006 q 739 1038 731 1029 q 760 1046 747 1046 m 617 626 l 542 626 l 593 753 l 647 753 l 617 626 z "},"(":{"ha":1199,"x_min":69,"x_max":1129,"o":"m 944 833 l 944 333 q 920 274 944 297 q 863 250 896 250 l 806 250 l 806 79 q 783 24 806 47 q 729 1 761 1 q 674 24 697 1 q 651 79 651 47 l 651 250 l 547 250 l 547 79 q 525 24 547 47 q 471 1 503 1 q 416 24 439 1 q 393 79 393 47 l 393 250 l 338 250 q 278 274 303 250 q 254 333 254 297 l 254 833 l 944 833 m 536 250 l 406 250 l 406 88 q 424 34 406 56 q 471 13 443 13 q 517 34 499 13 q 536 88 536 56 l 536 250 m 794 250 l 664 250 l 664 88 q 683 34 664 56 q 729 13 701 13 q 776 34 757 13 q 794 88 794 56 l 794 250 m 933 821 l 265 821 l 265 342 q 288 287 265 310 q 344 264 311 264 l 854 264 q 910 287 886 264 q 933 342 933 310 l 933 821 m 1051 849 q 1106 826 1083 849 q 1129 771 1129 803 l 1129 447 q 1106 393 1129 415 q 1051 371 1083 371 q 997 393 1019 371 q 975 447 975 415 l 975 771 q 997 826 975 803 q 1051 849 1019 849 m 1118 764 q 1099 817 1118 794 q 1051 839 1079 839 q 1004 817 1024 839 q 985 764 985 794 l 985 456 q 1004 402 985 424 q 1051 381 1024 381 q 1099 402 1079 381 q 1118 456 1118 424 l 1118 764 m 147 849 q 202 826 179 849 q 225 771 225 803 l 225 447 q 202 393 225 415 q 147 371 179 371 q 92 393 115 371 q 69 447 69 415 l 69 771 q 92 826 69 803 q 147 849 115 849 m 214 764 q 194 817 214 794 q 147 839 175 839 q 100 817 119 839 q 81 764 81 794 l 81 456 q 100 402 81 424 q 147 381 119 381 q 194 402 175 381 q 214 456 214 424 l 214 764 m 769 1139 q 898 1024 849 1097 q 947 860 947 950 l 251 860 q 300 1024 251 950 q 428 1138 349 1097 l 375 1226 q 379 1242 371 1235 q 394 1238 388 1246 l 447 1149 q 520 1172 482 1164 q 599 1181 558 1181 q 677 1172 639 1181 q 751 1149 715 1164 l 801 1238 q 817 1242 806 1247 q 821 1226 825 1233 l 769 1139 m 599 1167 q 471 1144 531 1167 q 366 1081 411 1121 q 295 987 321 1040 q 269 874 269 933 l 928 874 q 902 987 928 933 q 831 1081 876 1040 q 726 1144 786 1121 q 599 1167 667 1167 m 440 1046 q 463 1037 454 1046 q 471 1015 471 1028 q 463 995 471 1004 q 440 986 454 986 q 421 995 429 986 q 413 1015 413 1004 q 421 1037 413 1028 q 440 1046 429 1046 m 758 1046 q 778 1037 769 1046 q 786 1015 786 1028 q 778 995 786 1004 q 758 986 769 986 q 738 995 746 986 q 729 1015 729 1004 q 738 1037 729 1028 q 758 1046 746 1046 m 589 540 q 675 329 589 415 l 621 329 q 583 373 600 349 q 554 425 565 397 q 536 480 543 451 q 529 540 529 508 q 536 599 529 571 q 554 656 543 628 q 583 708 565 683 q 621 753 600 732 l 675 753 q 589 540 589 665 z "}}}
